<?xml version="1.0" encoding="UTF-8"?>
<svg width="526px" height="34px" viewBox="0 0 526 34" version="1.1" xmlns="http://www.w3.org/2000/svg" xmlns:xlink="http://www.w3.org/1999/xlink">
    <!-- Generator: Sketch 63.1 (92452) - https://sketch.com -->
    <title>Path 135</title>
    <desc>Created with Sketch.</desc>
    <defs>
        <linearGradient x1="50%" y1="-25.6415608%" x2="50%" y2="191.854353%" id="linearGradient-2">
            <stop stop-color="#DBE3F0" offset="0%"></stop>
            <stop stop-color="#FFFFFF" offset="100%"></stop>
        </linearGradient>
    </defs>
    <g id="V-Web-Final" stroke="none" stroke-width="1" fill="none" fill-rule="evenodd">
        <g id="documentation" transform="translate(-857.000000, -714.000000)" fill="url(#linearGradient-2)">
            <g id="HOW-TO-GUIDE-Copy" transform="translate(860.000000, 714.000000)">
                <g id="Group-51" transform="translate(0.933333, 3.933333)">
                    <path d="M10.7634818,23.3681549 C30.6122995,29.6563446 25.614055,23.9133378 44.1540554,15.801513 C62.6940558,7.68968822 87.644556,13.9282463 99.0097854,17.5372297 C110.375015,21.1462131 113.068892,25.470227 124.069409,25.470227 C135.069926,25.470227 152.404787,15.801513 161.084683,15.801513 C178.709799,15.801513 195.953275,23.3681549 204.768923,16.1430186 C213.584571,8.91788234 290.143266,22.1623901 308.707864,16.5021257 C327.272463,10.8418613 345.355403,7.35577137 378.478305,11.5786422 C411.601207,15.801513 426.126972,17.9531235 436.582426,19.3024085 C457.585759,22.0129061 484.991617,19.4383174 518.8,11.5786422 L493.429532,2.98661616 L24.0323578,0.533333333 C5.9058411,8.86193985 -1.3978477,13.7033931 2.1212914,15.0576931 C7.40000005,17.0891431 -9.08533599,17.0799652 10.7634818,23.3681549 Z" id="Path-135"></path>
                </g>
            </g>
        </g>
    </g>
</svg>
