<?xml version="1.0" encoding="UTF-8"?>
<svg width="494px" height="33px" viewBox="0 0 494 33" version="1.1" xmlns="http://www.w3.org/2000/svg" xmlns:xlink="http://www.w3.org/1999/xlink">
    <!-- Generator: Sketch 63.1 (92452) - https://sketch.com -->
    <title>Path 10</title>
    <desc>Created with Sketch.</desc>
    <defs>
        <linearGradient x1="55.4881705%" y1="155.932345%" x2="55.4881705%" y2="28.7416897%" id="linearGradient-2">
            <stop stop-color="#FFFFFF" offset="0%"></stop>
            <stop stop-color="#DBE3F0" offset="100%"></stop>
        </linearGradient>
    </defs>
    <g id="V-Web-Final" stroke="none" stroke-width="1" fill="none" fill-rule="evenodd">
        <g id="documentation" transform="translate(-394.000000, -306.000000)" fill="url(#linearGradient-2)">
            <g id="tutor" transform="translate(397.000000, 305.000000)">
                <g id="tutorial" transform="translate(0.933333, 4.933333)">
                    <g id="Path-10">
                        <g transform="translate(0.274872, 0.000000)">
                            <path d="M29.9267179,19.1671394 C44.1022899,19.1671394 49.3641432,9.16292905 65.5004211,11.7235767 C81.6366991,14.2842244 104.383646,16.844872 116.617665,16.844872 C128.851684,16.844872 147.531206,11.7235767 174.164233,11.7235767 C200.79726,11.7235767 224.509084,21.4103808 239.498528,21.4103808 C254.487972,21.4103808 271.712938,15.0322693 293.739218,15.0322693 C315.765498,15.0322693 324.975721,21.4103808 342.310998,21.4103808 C359.646275,21.4103808 358.022139,15.0322693 384.41574,15.0322693 C410.809341,15.0322693 417.488567,8.41488411 429.135051,11.7235767 C440.781536,15.0322693 449.275465,24.5610107 474.812321,24.5610107 C491.836891,24.5610107 487.900166,16.3740072 463.002143,3.89022148e-13 L-9.09494702e-13,3.89022148e-13 L8,11.7235767 C13.1674306,16.6859518 20.4763365,19.1671394 29.9267179,19.1671394 Z"></path>
                        </g>
                    </g>
                </g>
            </g>
        </g>
    </g>
</svg>
