<?xml version="1.0" encoding="UTF-8"?>
<svg width="21px" height="18px" viewBox="0 0 21 18" version="1.1" xmlns="http://www.w3.org/2000/svg" xmlns:xlink="http://www.w3.org/1999/xlink">
    <!-- Generator: Sketch 63.1 (92452) - https://sketch.com -->
    <title>编组 6</title>
    <desc>Created with Sketch.</desc>
    <g id="V3-最新稿件" stroke="none" stroke-width="1" fill="none" fill-rule="evenodd">
        <g id="documentation" transform="translate(-18.000000, -534.000000)">
            <g id="siderbars-copy" transform="translate(0.000000, 72.000000)">
                <g id="编组-6" transform="translate(19.000000, 462.947435)">
                    <rect id="Rectangle" fill="#F9D84B" x="9.09494702e-13" y="0.0525646049" width="14" height="12" rx="1"></rect>
                    <g id="Group-12" stroke="#3E6CDE" stroke-width="1.5">
                        <path d="M1.51830446,0.0502753365 C2.4132233,-0.0628441706 7.33429797,0.0502753365 14.0436708,0.0502753365 C15.483848,0.0502753365 16.1191992,0.722300897 15.9497247,2.06635202 L15.9497247,2.06635202 L15.9493999,4.83519662 C17.7058929,4.83791055 19.1289696,6.26328937 19.1289696,8.02119216 C19.1289696,9.78077105 17.7031779,11.2071916 15.9443747,11.2071916 L15.949,11.207 L15.9497247,13.9839233 C15.9497247,15.2695374 15.2715052,15.9210158 13.9150662,15.9383583 L13.7258934,15.9367926 L11.163,15.974 L11.1597575,15.818984 C11.065915,14.1414446 9.67587,12.8100551 7.97486233,12.8100551 C6.21310439,12.8100551 4.7849174,14.2382421 4.7849174,16 L4.784,16 L1.51830446,16 C0.559375329,15.9600796 0.054675784,15.3548309 0.00420582954,14.184254 L-2.45137244e-13,13.9839233 L-2.45137244e-13,13.9839233 L-2.45137244e-13,2.06635202 C-2.45137244e-13,0.952471142 0.62338563,0.163394844 1.51830446,0.0502753365 Z" id="Combined-Shape"></path>
                        <line x1="3.86137271" y1="5.05536141" x2="12.8613727" y2="5.05536141" id="Path-33"></line>
                        <line x1="3.86137271" y1="8.5" x2="12.8613727" y2="8.5" id="Path-33-Copy"></line>
                    </g>
                </g>
            </g>
        </g>
    </g>
</svg>