<?xml version="1.0" encoding="UTF-8"?>
<svg width="22px" height="19px" viewBox="0 0 22 19" version="1.1" xmlns="http://www.w3.org/2000/svg" xmlns:xlink="http://www.w3.org/1999/xlink">
    <!-- Generator: Sketch 63.1 (92452) - https://sketch.com -->
    <title>编组 9</title>
    <desc>Created with Sketch.</desc>
    <defs>
        <path d="M9.90277478,0.0372148285 C10.9272249,0.0372148285 11.2321381,0.227034947 12.0941304,1.35291258 L12.2151347,1.51957107 C13.3243735,3.0987059 18.4818414,11.405125 18.9136263,12.2682489 C19.2022369,12.8451719 19.2022369,13.7940209 18.9204018,14.3305776 C18.6428059,14.8590635 17.8046879,15.4339405 17.2592513,15.4833954 L17.0322205,15.4940989 C15.1134628,15.5537086 3.31100766,15.5527232 2.54628981,15.4833946 C2.0586672,15.4391873 1.07737791,14.7002729 0.882868658,14.3303182 C0.574690309,13.7441658 0.503775108,13.0384527 0.889534789,12.2687394 L1.0498064,11.9746754 C2.12544398,10.0806864 7.12991052,2.12593892 7.72183576,1.35297619 C8.41912207,0.442428217 9.00974832,0.0372148285 9.90277478,0.0372148285 Z" id="path-1"></path>
    </defs>
    <g id="V3-最新稿件" stroke="none" stroke-width="1" fill="none" fill-rule="evenodd">
        <g id="画板" transform="translate(-755.000000, -103.000000)">
            <g id="编组-5备份-2" transform="translate(716.000000, 85.000000)">
                <g id="编组-9" transform="translate(39.000000, 18.000000)">
                    <path d="M10.780918,-6.39488462e-14 C9.32341527,-6.39488462e-14 8.36165259,0.659840498 7.40906412,1.90377356 L7.29764462,2.05755189 C6.25444782,3.5452104 0.993838542,11.9277584 0.426667137,13.0594459 C-0.201807505,14.3134528 -0.0813449056,15.5122372 0.433333268,16.4911502 C0.851407973,17.2863244 2.25964661,18.3467331 3.28899995,18.4400533 L3.66110175,18.4562131 C6.01294131,18.5206633 17.4702864,18.5128208 18.2728445,18.4400525 C19.3322867,18.3439925 20.6154221,17.4638717 21.1264963,16.4908908 C21.6354713,15.5219063 21.6354713,14.0638167 21.1332717,13.0599364 L21.0455968,12.8958625 C20.178685,11.3323208 14.9599642,2.944406 14.1632859,1.90383717 C13.0423301,0.439718531 12.3359984,-6.39488462e-14 10.780918,-6.39488462e-14 Z M10.780918,1.5 C11.8053681,1.5 12.1102813,1.68982012 12.9722736,2.81569775 L13.093278,2.98235624 C14.2025167,4.56149107 19.3599846,12.8679101 19.7917696,13.731034 C20.0803801,14.307957 20.0803801,15.2568061 19.798545,15.7933627 C19.5209491,16.3218487 18.6828312,16.8967256 18.1373946,16.9461806 L17.9103638,16.956884 C15.991606,17.0164938 4.1891509,17.0155084 3.42443305,16.9461798 C2.93681044,16.9019724 1.95552115,16.1630581 1.7610119,15.7931033 C1.45283355,15.206951 1.38191835,14.5012379 1.76767803,13.7315246 L1.92794964,13.4374606 C3.00358722,11.5434716 8.00805376,3.58872409 8.599979,2.81576136 C9.29726531,1.90521339 9.88789156,1.5 10.780918,1.5 Z" id="路径-8" fill="#3E6CDE" fill-rule="nonzero"></path>
                    <g id="编组-8" transform="translate(0.878143, 1.462785)">
                        <mask id="mask-2" fill="white">
                            <use xlink:href="#path-1"></use>
                        </mask>
                        <use id="路径" fill="#FFFFFF" fill-rule="nonzero" xlink:href="#path-1"></use>
                        <path d="M8.27735481,-3 C9.30180491,-3 9.60671808,-2.81017988 10.4687104,-1.68430225 L10.5897148,-1.51764376 C11.6989535,0.0614910683 16.8564214,8.36791014 17.2882064,9.23103405 C17.5768169,9.80795702 17.5768169,10.7568061 17.2949818,11.2933627 C17.0173859,11.8218487 16.179268,12.3967256 15.6338314,12.4461806 L15.4068006,12.456884 C13.4880428,12.5164938 1.68558768,12.5155084 0.92086984,12.4461798 C0.433247221,12.4019724 -0.548042069,11.6630581 -0.742551317,11.2931033 C-1.05072967,10.706951 -1.12164487,10.0012379 -0.735885185,9.23152456 L-0.575613573,8.93746059 C0.500024005,7.04347159 5.50449054,-0.911275913 6.09641578,-1.68423864 C6.7937021,-2.59478661 7.38432835,-3 8.27735481,-3 Z" id="路径" fill="#F9D84B" fill-rule="nonzero" mask="url(#mask-2)"></path>
                    </g>
                    <g id="编组-7" transform="translate(9.378143, 4.462785)" fill="#3E6CDE">
                        <circle id="椭圆形" cx="1.5" cy="9.5" r="1.5"></circle>
                        <polygon id="直线" fill-rule="nonzero" points="2.5 0 2.5 7 0.5 7 0.5 0"></polygon>
                    </g>
                </g>
            </g>
        </g>
    </g>
</svg>