<?xml version="1.0" encoding="UTF-8"?>
<svg width="16px" height="22px" viewBox="0 0 16 22" version="1.1" xmlns="http://www.w3.org/2000/svg" xmlns:xlink="http://www.w3.org/1999/xlink">
    <!-- Generator: Sketch 63.1 (92452) - https://sketch.com -->
    <title>编组 6</title>
    <desc>Created with Sketch.</desc>
    <defs>
        <path d="M7,0.75 C10.4546893,0.75 13.25,3.49681479 13.25,6.87855677 C13.25,8.89138632 12.2531397,10.7378206 10.6163069,11.8777487 L10.399207,12.0223839 C9.85968293,12.3659938 9.72537664,12.843279 9.55786386,14.4482346 L9.39310782,16.09133 L9.32623029,16.6421027 C9.21039078,17.5080202 9.07078018,18.1181815 8.87910515,18.5390077 C8.65629761,19.0281858 7.90801058,19.25 7,19.25 C6.4232867,19.25 5.53896539,18.9169804 5.33733687,18.5141742 C5.10318561,18.0463952 4.92939085,17.3611816 4.77177544,16.361973 L4.6878966,15.7920713 L4.49606733,14.3732033 C4.29490555,12.9721072 4.13182478,12.4286675 3.66142722,12.0806458 L3.58454969,12.0272224 C1.84605246,10.8907155 0.75,8.94360836 0.75,6.87855677 C0.75,3.49681479 3.54531072,0.75 7,0.75 Z" id="path-1"></path>
    </defs>
    <g id="V3-最新稿件" stroke="none" stroke-width="1" fill="none" fill-rule="evenodd">
        <g id="画板" transform="translate(-223.000000, -355.000000)">
            <g id="编组-5备份" transform="translate(181.000000, 338.000000)">
                <g id="编组-6" transform="translate(42.000000, 17.000000)">
                    <path d="M8,0.25 C3.72270278,0.25 0.25,3.66245475 0.25,7.87855677 C0.25,10.4596975 1.60915859,12.8742055 3.76377824,14.2827439 L3.78115373,14.3496378 C3.82277166,14.5247071 3.93277617,15.0388224 4.046176,15.8384154 L4.22383257,17.1525992 L4.24503459,17.2992725 C4.43619827,18.6026782 4.64824702,19.4908737 4.99599647,20.185595 C5.51497212,21.2223859 6.9160319,21.75 8,21.75 C8.50724735,21.75 9.00546389,21.6990908 9.50646395,21.5505797 C10.2996608,21.3154529 10.9200729,20.8723391 11.2441774,20.1607615 C11.5598956,19.4675962 11.738288,18.5728176 11.8840028,17.2563518 L12.0689405,15.4321907 C12.1092115,15.0741776 12.1452457,14.8248415 12.1882563,14.6088632 L12.2140302,14.4886538 C12.2313128,14.4140126 12.2487187,14.3504686 12.2657875,14.2986254 L12.291,14.23 L12.2049815,14.2875825 C14.396763,12.8916896 15.75,10.4990073 15.75,7.87855677 C15.75,3.66245475 12.2772972,0.25 8,0.25 Z M8,1.75 C11.4546893,1.75 14.25,4.49681479 14.25,7.87855677 C14.25,9.89138632 13.2531397,11.7378206 11.6163069,12.8777487 L11.399207,13.0223839 C10.8596829,13.3659938 10.7253766,13.843279 10.5578639,15.4482346 L10.3931078,17.09133 L10.3262303,17.6421027 C10.2103908,18.5080202 10.0707802,19.1181815 9.87910515,19.5390077 C9.65629761,20.0281858 8.90801058,20.25 8,20.25 C7.4232867,20.25 6.53896539,19.9169804 6.33733687,19.5141742 C6.10318561,19.0463952 5.92939085,18.3611816 5.77177544,17.361973 L5.6878966,16.7920713 L5.49606733,15.3732033 C5.29490555,13.9721072 5.13182478,13.4286675 4.66142722,13.0806458 L4.58454969,13.0272224 C2.84605246,11.8907155 1.75,9.94360836 1.75,7.87855677 C1.75,4.49681479 4.54531072,1.75 8,1.75 Z" id="椭圆形" fill="#3E6CDE" fill-rule="nonzero"></path>
                    <g id="编组-10" transform="translate(1.000000, 1.000000)">
                        <mask id="mask-2" fill="white">
                            <use xlink:href="#path-1"></use>
                        </mask>
                        <use id="路径" fill="#FFFFFF" fill-rule="nonzero" xlink:href="#path-1"></use>
                        <circle id="椭圆形" fill="#F9D84B" mask="url(#mask-2)" cx="5.5" cy="4.5" r="6.5"></circle>
                    </g>
                    <path d="M12,14.0203072 C11.42892,14.9566105 10.0679187,15.3501549 7.98741217,15.3501549 C5.99934396,15.3501549 4.67546931,14.9909473 4.0833252,14.1363641 L4,14.0044443 L4.84378108,13.25 C5.02666268,13.5688292 6.4616681,13.9230773 7.98741217,13.9230773 C9.42996196,13.9230773 10.9026057,13.5520512 11.1632804,13.25 L12,14.0203072 Z" id="路径-7" fill="#3E6CDE" fill-rule="nonzero"></path>
                    <path d="M10.6066521,18.3198834 C9.95178551,18.5120039 9.12829022,18.6001549 8.14363109,18.6001549 C7.26641301,18.6001549 6.51850943,18.5302194 5.90572227,18.3786504 C5.3883939,18.2506926 5.08648648,17.6244758 5,16.5 C5.1828816,16.8188292 6.61788702,17.1730773 8.14363109,17.1730773 C9.58618088,17.1730773 11.0588246,16.8020512 11.3194993,16.5 C11.3301441,17.5707124 11.0925284,18.1773403 10.6066521,18.3198834 Z" id="路径-7" fill="#3E6CDE" fill-rule="nonzero"></path>
                </g>
            </g>
        </g>
    </g>
</svg>