<?xml version="1.0" encoding="UTF-8"?>
<svg width="229px" height="89px" viewBox="0 0 229 89" version="1.1" xmlns="http://www.w3.org/2000/svg" xmlns:xlink="http://www.w3.org/1999/xlink">
    <!-- Generator: Sketch 61.2 (89653) - https://sketch.com -->
    <title>编组 3</title>
    <desc>Created with Sketch.</desc>
    <g id="V3-最新稿件" stroke="none" stroke-width="1" fill="none" fill-rule="evenodd">
        <g id="画板" transform="translate(-218.000000, -31.000000)">
            <g id="编组-3" transform="translate(218.000000, 31.000000)">
                <g id="logo-copy-2">
                    <g id="Group-20" transform="translate(1.628956, 1.629753)">
                        <path d="M42.6996622,-3.55271368e-15 C66.2823822,-3.55271368e-15 85.4004622,19.1158044 85.4004622,42.6996622 C85.4004622,66.2823822 66.2823822,85.3993244 42.6996622,85.3993244 C19.11808,85.3993244 -5.40012479e-13,66.2823822 -5.40012479e-13,42.6996622 C-5.40012479e-13,19.1158044 19.11808,-3.55271368e-15 42.6996622,-3.55271368e-15 Z" id="1b55aa" fill="#3E6CDE"></path>
                        <path d="M9.81083022,41.9789938 C10.5094258,35.9635627 19.4773902,30.754816 23.3446969,32.0439182 C27.2108658,33.3330204 28.2314524,39.847936 28.1233636,41.0744604 C28.0164124,42.3009849 16.3632924,50.3018382 16.3632924,50.3018382 C16.3632924,50.3018382 9.11337244,47.9932871 9.81083022,41.9789938 Z" id="Fill-3" fill="#FFFFFF"></path>
                        <path d="M59.0733084,45.7551644 C59.0733084,45.7551644 59.2883484,44.3056356 60.0404196,42.6410667 C60.7924907,40.97536 62.3478329,38.0228267 65.1422151,38.0216889 C69.4725973,38.0205511 76.3117796,44.0359822 75.9897884,50.2664533 C75.6677973,56.4946489 67.5349618,56.6562133 67.5349618,56.6562133 L59.0733084,45.7551644 Z" id="Fill-5" fill="#FFFFFF"></path>
                        <path d="M43.6431076,37.7898098 C27.6129564,36.4210631 12.2279253,48.9866809 13.1142542,60.7478898 C13.9311787,71.590912 22.1356942,83.8652587 41.3959964,85.3147876 C54.648832,86.3126187 64.7340942,78.2321209 68.2111431,70.4940942 C74.1719609,57.2298809 59.6732587,39.1596942 43.6431076,37.7898098 Z" id="Fill-7" fill="#FFFFFF"></path>
                        <path d="M26.4053191,45.5094044 C27.5328569,46.3547733 27.742208,44.8585956 27.1300836,44.0996978 C26.0435058,42.7502933 25.6077369,43.7174044 25.6077369,43.7174044 C25.6077369,43.7174044 25.2777813,44.6640356 26.4053191,45.5094044 Z" id="Fill-9" fill="#FFFFFF"></path>
                        <path d="M59.2798151,48.9859982 C60.4073529,49.8313671 60.616704,48.3363271 60.0057173,47.5774293 C58.9180018,46.2268871 58.4833707,47.1939982 58.4833707,47.1939982 C58.4833707,47.1939982 58.1522773,48.1406293 59.2798151,48.9859982 Z" id="Fill-11" fill="#FFFFFF"></path>
                        <path d="M-5.40012479e-13,42.6996622 C-5.40012479e-13,19.1158044 19.11808,-3.55271368e-15 42.6996622,-3.55271368e-15 C66.2823822,-3.55271368e-15 85.4004622,19.1158044 85.4004622,42.6996622 C85.4004622,66.2823822 66.2823822,85.3993244 42.6996622,85.3993244 C19.11808,85.3993244 -5.40012479e-13,66.2823822 -5.40012479e-13,42.6996622 Z" id="Stroke-13" stroke="#3E6CDE" stroke-width="3"></path>
                        <path d="M58.9958258,76.4463787 C55.3333191,78.0199253 53.3592747,81.6096142 54.5857991,84.4631609 C55.3105636,86.1504853 59.8104747,85.1253476 61.3692302,84.6895787 C65.107968,83.6462364 68.3893191,80.023552 67.8477369,78.7628942 C66.6212124,75.9093476 62.6571947,74.8716942 58.9958258,76.4463787 Z" id="Fill-15" fill="#3E6CDE"></path>
                        <path d="M23.9766187,75.693056 C27.6391253,77.2666027 29.6484409,80.772096 28.4662898,83.5232427 C27.7676942,85.1491271 22.3848676,84.6007182 20.8386276,84.1080604 C16.3398542,82.6778738 14.6832498,79.0381227 15.2054898,77.822976 C16.3876409,75.0718293 20.314112,74.1183716 23.9766187,75.693056 Z" id="Fill-17" fill="#3E6CDE"></path>
                        <path d="M43.4955378,38.8762738 C43.4955378,38.8762738 39.4780444,34.6369138 40.91392,32.9040782 C42.3520711,31.1723804 44.1224533,34.2682738 44.2692267,35.3741938 C44.4171378,36.4801138 44.4535467,33.0519893 46.2227911,33.9360427 C47.9920356,34.8223716 44.3431822,40.0186027 44.3431822,40.0186027 L43.4955378,38.8762738 Z" id="Fill-19" fill="#FFFFFF"></path>
                    </g>
                </g>
                <g id="编组-2" transform="translate(111.000000, 15.900900)">
                    <g id="编组">
                        <path d="M101.008,0.827100444 C103.44,0.827100444 105.648,1.32310044 107.632,2.31510044 C109.616,3.30710044 111.32,4.61910044 112.744,6.25110044 C114.168,7.88310044 115.264,9.73910044 116.032,11.8191004 C116.8,13.8991004 117.184,16.0111004 117.184,18.1551004 C117.184,20.3951004 116.776,22.5551004 115.96,24.6351004 C115.144,26.7151004 114.016,28.5471004 112.576,30.1311004 C111.136,31.7151004 109.416,32.9871004 107.416,33.9471004 C105.416,34.9071004 103.232,35.3871004 100.864,35.3871004 C98.432,35.3871004 96.224,34.8911004 94.24,33.8991004 C92.256,32.9071004 90.552,31.6031004 89.128,29.9871004 C87.704,28.3711004 86.6,26.5231004 85.816,24.4431004 C85.032,22.3631004 84.64,20.2191004 84.64,18.0111004 C84.64,15.7711004 85.048,13.6111004 85.864,11.5311004 C86.68,9.45110044 87.816,7.61910044 89.272,6.03510044 C90.728,4.45110044 92.456,3.18710044 94.456,2.24310044 C96.456,1.29910044 98.64,0.827100444 101.008,0.827100444 Z M43.6,13.0214116 L43.6,35.0991004 L35.728,35.0991004 L35.728,13.0214116 L37.949,13.0211004 L38.3658309,13.5827911 L39.7095464,15.3952711 L41.0066131,13.5486578 C41.1090849,13.402643 41.2315903,13.2255024 41.3692359,13.0216974 L43.6,13.0214116 Z M56.272,1.01910044 L72.16,21.0351004 L72.16,1.01910044 L80.032,1.01910044 L80.032,35.0991004 L73.696,35.0991004 L58,15.6111004 L58,35.0991004 L50.128,35.0991004 L50.128,1.01910044 L56.272,1.01910044 Z M100.912,7.83510044 C99.536,7.83510044 98.336,8.13110044 97.312,8.72310044 C96.288,9.31510044 95.432,10.0911004 94.744,11.0511004 C94.056,12.0111004 93.536,13.1071004 93.184,14.3391004 C92.832,15.5711004 92.656,16.8271004 92.656,18.1071004 C92.656,19.4191004 92.84,20.6911004 93.208,21.9231004 C93.576,23.1551004 94.104,24.2511004 94.792,25.2111004 C95.48,26.1711004 96.344,26.9391004 97.384,27.5151004 C98.424,28.0911004 99.616,28.3791004 100.96,28.3791004 C102.336,28.3791004 103.536,28.0751004 104.56,27.4671004 C105.584,26.8591004 106.44,26.0671004 107.128,25.0911004 C107.816,24.1151004 108.328,23.0111004 108.664,21.7791004 C109,20.5471004 109.168,19.2911004 109.168,18.0111004 C109.168,16.6991004 108.984,15.4271004 108.616,14.1951004 C108.248,12.9631004 107.712,11.8751004 107.008,10.9311004 C106.304,9.98710044 105.44,9.23510044 104.416,8.67510044 C103.392,8.11510044 102.224,7.83510044 100.912,7.83510044 Z" id="形状结合" fill="#F2D354" fill-rule="nonzero"></path>
                        <path d="M35.5544235,1.76747506e-13 C37.5000235,1.76747506e-13 39.3614279,3.49184 39.5548501,4.93568 C39.5889835,5.19281778 39.6185657,5.30204444 39.6561124,5.30204444 C39.8427079,5.30204444 40.1681124,2.31424 41.8736412,2.31424 C42.141019,2.31424 42.4425301,2.38819556 42.7838635,2.55886222 C45.7079524,4.02090667 39.6754546,12.6122667 39.6754546,12.6122667 L38.2748501,10.7224178 C38.2748501,10.7224178 31.6336412,3.71598222 34.0093212,0.853333333 C34.5099435,0.249173333 35.0355968,1.76747506e-13 35.5544235,1.76747506e-13 Z" id="Combined-Shape" fill="#F2D354"></path>
                        <path d="M29.328,27.2991004 L29.328,17.2911004 L17.424,17.2911004 L17.424,23.0031004 L24,23.0031004 L24,24.1551004 C22.88,25.5631004 21.68,26.6111004 20.4,27.2991004 C19.12,27.9871004 17.776,28.3311004 16.368,28.3311004 C15.152,28.3311004 14.032,28.0751004 13.008,27.5631004 C11.984,27.0511004 11.104,26.3391004 10.368,25.4271004 C9.632,24.5151004 9.056,23.4351004 8.64,22.1871004 C8.224,20.9391004 8.016,19.5791004 8.016,18.1071004 C8.016,16.6671004 8.208,15.3231004 8.592,14.0751004 C8.976,12.8271004 9.528,11.7311004 10.248,10.7871004 C10.968,9.84310044 11.816,9.10710044 12.792,8.57910044 C13.768,8.05110044 14.864,7.78710044 16.08,7.78710044 C17.616,7.78710044 19.048,8.21110044 20.376,9.05910044 C21.704,9.90710044 22.72,11.0991004 23.424,12.6351004 L29.328,8.21910044 C28.208,5.91510044 26.512,4.09910044 24.24,2.77110044 C21.968,1.44310044 19.328,0.779100444 16.32,0.779100444 C14.016,0.779100444 11.872,1.22710044 9.888,2.12310044 C7.904,3.01910044 6.176,4.23510044 4.704,5.77110044 C3.232,7.30710044 2.08,9.11510044 1.248,11.1951004 C0.416,13.2751004 -3.37507799e-14,15.4831004 -3.37507799e-14,17.8191004 C-3.37507799e-14,20.1231004 0.416,22.3391004 1.248,24.4671004 C2.08,26.5951004 3.208,28.4591004 4.632,30.0591004 C6.056,31.6591004 7.72,32.9391004 9.624,33.8991004 C11.528,34.8591004 13.552,35.3394231 15.696,35.3394231 C21.232,35.3394231 25.776,32.6593156 29.328,27.2991004 Z" id="路径" fill="#3E6CDE" fill-rule="nonzero"></path>
                    </g>
                    <path d="M15.696,35.3391004 C17.296,35.3391004 18.776,35.0511004 20.136,34.4751004 C21.496,33.8991004 22.784,33.0031004 24,31.7871004 L24,31.7871004 L24,35.0991004 L30.528,35.0991004 L30.528,17.2911004 L17.424,17.2911004 L17.424,23.0031004 L24,23.0031004 L24,24.1551004 C22.88,25.5631004 21.68,26.6111004 20.4,27.2991004 C19.12,27.9871004 17.776,28.3311004 16.368,28.3311004 C15.152,28.3311004 14.032,28.0751004 13.008,27.5631004 C11.984,27.0511004 11.104,26.3391004 10.368,25.4271004 C9.632,24.5151004 9.056,23.4351004 8.64,22.1871004 C8.224,20.9391004 8.016,19.5791004 8.016,18.1071004 C8.016,16.6671004 8.208,15.3231004 8.592,14.0751004 C8.976,12.8271004 9.528,11.7311004 10.248,10.7871004 C10.968,9.84310044 11.816,9.10710044 12.792,8.57910044 C13.768,8.05110044 14.864,7.78710044 16.08,7.78710044 C17.616,7.78710044 19.048,8.21110044 20.376,9.05910044 C21.704,9.90710044 22.72,11.0991004 23.424,12.6351004 L23.424,12.6351004 L29.328,8.21910044 C28.208,5.91510044 26.512,4.09910044 24.24,2.77110044 C21.968,1.44310044 19.328,0.779100444 16.32,0.779100444 C14.016,0.779100444 11.872,1.22710044 9.888,2.12310044 C7.904,3.01910044 6.176,4.23510044 4.704,5.77110044 C3.232,7.30710044 2.08,9.11510044 1.248,11.1951004 C0.416,13.2751004 1.13686838e-13,15.4831004 1.13686838e-13,17.8191004 C1.13686838e-13,20.1231004 0.416,22.3391004 1.248,24.4671004 C2.08,26.5951004 3.208,28.4591004 4.632,30.0591004 C6.056,31.6591004 7.72,32.9391004 9.624,33.8991004 C11.528,34.8591004 13.552,35.3391004 15.696,35.3391004 Z" id="G" fill="#3E6CDE" fill-rule="nonzero"></path>
                    <g id="IS-NOT-ORM" transform="translate(3.650000, 42.779100)" fill-rule="nonzero">
                        <polygon id="I" fill="#3E6CDE" points="3.28 14.32 3.28 0.12 -1.27009514e-13 0.12 -1.27009514e-13 14.32"></polygon>
                        <path d="M11.06,14.48 C11.74,14.48 12.4033333,14.4033333 13.05,14.25 C13.6966667,14.0966667 14.2666667,13.85 14.76,13.51 C15.2533333,13.17 15.65,12.7233333 15.95,12.17 C16.25,11.6166667 16.4,10.94 16.4,10.14 C16.4,9.48666667 16.2966667,8.92666667 16.09,8.46 C15.8833333,7.99333333 15.5866667,7.59666667 15.2,7.27 C14.8133333,6.94333333 14.3466667,6.67 13.8,6.45 C13.2533333,6.23 12.64,6.02666667 11.96,5.84 C11.48,5.70666667 11.0566667,5.58666667 10.69,5.48 C10.3233333,5.37333333 10.0166667,5.25666667 9.77,5.13 C9.52333333,5.00333333 9.33333333,4.86 9.2,4.7 C9.06666667,4.54 9,4.34 9,4.1 C9,3.71333333 9.15,3.42 9.45,3.22 C9.75,3.02 10.18,2.92 10.74,2.92 C11.1666667,2.92 11.5933333,2.98 12.02,3.1 C12.4466667,3.22 12.84,3.36 13.2,3.52 C13.56,3.68 13.86,3.83333333 14.1,3.98 C14.34,4.12666667 14.4866667,4.22666667 14.54,4.28 L14.54,4.28 L15.96,1.56 C15.6533333,1.37333333 15.3066667,1.18666667 14.92,1 C14.5333333,0.813333333 14.1233333,0.646666667 13.69,0.5 C13.2566667,0.353333333 12.8,0.233333333 12.32,0.14 C11.84,0.0466666667 11.3466667,-2.16715534e-13 10.84,-2.16715534e-13 C10.1333333,-2.16715534e-13 9.46333333,0.1 8.83,0.3 C8.19666667,0.5 7.64,0.796666667 7.16,1.19 C6.68,1.58333333 6.3,2.06666667 6.02,2.64 C5.74,3.21333333 5.6,3.87333333 5.6,4.62 C5.6,5.15333333 5.67666667,5.62 5.83,6.02 C5.98333333,6.42 6.22,6.77333333 6.54,7.08 C6.86,7.38666667 7.26,7.65666667 7.74,7.89 C8.22,8.12333333 8.78666667,8.34 9.44,8.54 C9.93333333,8.68666667 10.3866667,8.82 10.8,8.94 C11.2133333,9.06 11.5733333,9.19 11.88,9.33 C12.1866667,9.47 12.4266667,9.62666667 12.6,9.8 C12.7733333,9.97333333 12.86,10.1933333 12.86,10.46 C12.86,11.1666667 12.28,11.52 11.12,11.52 C10.5733333,11.52 10.0333333,11.4466667 9.5,11.3 C8.96666667,11.1533333 8.48666667,10.9866667 8.06,10.8 C7.63333333,10.6133333 7.27333333,10.4266667 6.98,10.24 C6.68666667,10.0533333 6.50666667,9.92666667 6.44,9.86 L6.44,9.86 L5,12.72 C5.41333333,13 5.86666667,13.2466667 6.36,13.46 C6.85333333,13.6733333 7.36,13.8566667 7.88,14.01 C8.4,14.1633333 8.93,14.28 9.47,14.36 C10.01,14.44 10.54,14.48 11.06,14.48 Z" id="S" fill="#F2D354"></path>
                        <polygon id="N" fill="#3E6CDE" points="26.26 14.32 26.26 6.2 32.8 14.32 35.44 14.32 35.44 0.12 32.16 0.12 32.16 8.46 25.54 0.12 22.98 0.12 22.98 14.32"></polygon>
                        <path d="M44.12,14.44 C45.1066667,14.44 46.0166667,14.24 46.85,13.84 C47.6833333,13.44 48.4,12.91 49,12.25 C49.6,11.59 50.07,10.8266667 50.41,9.96 C50.75,9.09333333 50.92,8.19333333 50.92,7.26 C50.92,6.36666667 50.76,5.48666667 50.44,4.62 C50.12,3.75333333 49.6633333,2.98 49.07,2.3 C48.4766667,1.62 47.7666667,1.07333333 46.94,0.66 C46.1133333,0.246666667 45.1933333,0.04 44.18,0.04 C43.1933333,0.04 42.2833333,0.236666667 41.45,0.63 C40.6166667,1.02333333 39.8966667,1.55 39.29,2.21 C38.6833333,2.87 38.21,3.63333333 37.87,4.5 C37.53,5.36666667 37.36,6.26666667 37.36,7.2 C37.36,8.12 37.5233333,9.01333333 37.85,9.88 C38.1766667,10.7466667 38.6366667,11.5166667 39.23,12.19 C39.8233333,12.8633333 40.5333333,13.4066667 41.36,13.82 C42.1866667,14.2333333 43.1066667,14.44 44.12,14.44 Z M44.16,11.52 C43.6,11.52 43.1033333,11.4 42.67,11.16 C42.2366667,10.92 41.8766667,10.6 41.59,10.2 C41.3033333,9.8 41.0833333,9.34333333 40.93,8.83 C40.7766667,8.31666667 40.7,7.78666667 40.7,7.24 C40.7,6.70666667 40.7733333,6.18333333 40.92,5.67 C41.0666667,5.15666667 41.2833333,4.7 41.57,4.3 C41.8566667,3.9 42.2133333,3.57666667 42.64,3.33 C43.0666667,3.08333333 43.5666667,2.96 44.14,2.96 C44.6866667,2.96 45.1733333,3.07666667 45.6,3.31 C46.0266667,3.54333333 46.3866667,3.85666667 46.68,4.25 C46.9733333,4.64333333 47.1966667,5.09666667 47.35,5.61 C47.5033333,6.12333333 47.58,6.65333333 47.58,7.2 C47.58,7.73333333 47.51,8.25666667 47.37,8.77 C47.23,9.28333333 47.0166667,9.74333333 46.73,10.15 C46.4433333,10.5566667 46.0866667,10.8866667 45.66,11.14 C45.2333333,11.3933333 44.7333333,11.52 44.16,11.52 Z M59.34,14.32 L59.34,3 L63.66,3 L63.66,0.12 L51.72,0.12 L51.72,3 L56.06,3 L56.06,14.32 L59.34,14.32 Z" id="OT" fill="#F2D354"></path>
                        <path d="M75.9,14.44 C76.8866667,14.44 77.7966667,14.24 78.63,13.84 C79.4633333,13.44 80.18,12.91 80.78,12.25 C81.38,11.59 81.85,10.8266667 82.19,9.96 C82.53,9.09333333 82.7,8.19333333 82.7,7.26 C82.7,6.36666667 82.54,5.48666667 82.22,4.62 C81.9,3.75333333 81.4433333,2.98 80.85,2.3 C80.2566667,1.62 79.5466667,1.07333333 78.72,0.66 C77.8933333,0.246666667 76.9733333,0.04 75.96,0.04 C74.9733333,0.04 74.0633333,0.236666667 73.23,0.63 C72.3966667,1.02333333 71.6766667,1.55 71.07,2.21 C70.4633333,2.87 69.99,3.63333333 69.65,4.5 C69.31,5.36666667 69.14,6.26666667 69.14,7.2 C69.14,8.12 69.3033333,9.01333333 69.63,9.88 C69.9566667,10.7466667 70.4166667,11.5166667 71.01,12.19 C71.6033333,12.8633333 72.3133333,13.4066667 73.14,13.82 C73.9666667,14.2333333 74.8866667,14.44 75.9,14.44 Z M75.94,11.52 C75.38,11.52 74.8833333,11.4 74.45,11.16 C74.0166667,10.92 73.6566667,10.6 73.37,10.2 C73.0833333,9.8 72.8633333,9.34333333 72.71,8.83 C72.5566667,8.31666667 72.48,7.78666667 72.48,7.24 C72.48,6.70666667 72.5533333,6.18333333 72.7,5.67 C72.8466667,5.15666667 73.0633333,4.7 73.35,4.3 C73.6366667,3.9 73.9933333,3.57666667 74.42,3.33 C74.8466667,3.08333333 75.3466667,2.96 75.92,2.96 C76.4666667,2.96 76.9533333,3.07666667 77.38,3.31 C77.8066667,3.54333333 78.1666667,3.85666667 78.46,4.25 C78.7533333,4.64333333 78.9766667,5.09666667 79.13,5.61 C79.2833333,6.12333333 79.36,6.65333333 79.36,7.2 C79.36,7.73333333 79.29,8.25666667 79.15,8.77 C79.01,9.28333333 78.7966667,9.74333333 78.51,10.15 C78.2233333,10.5566667 77.8666667,10.8866667 77.44,11.14 C77.0133333,11.3933333 76.5133333,11.52 75.94,11.52 Z" id="O" fill="#3E6CDE"></path>
                        <path d="M87.9,14.32 L87.9,9.74 L90.04,9.74 L92.9,14.32 L96.6,14.32 L93.34,9.04 C93.7,8.84 94.0233333,8.59666667 94.31,8.31 C94.5966667,8.02333333 94.84,7.7 95.04,7.34 C95.24,6.98 95.3933333,6.59666667 95.5,6.19 C95.6066667,5.78333333 95.66,5.36 95.66,4.92 C95.66,4.33333333 95.5433333,3.75333333 95.31,3.18 C95.0766667,2.60666667 94.7533333,2.09333333 94.34,1.64 C93.9266667,1.18666667 93.4366667,0.82 92.87,0.54 C92.3033333,0.26 91.6866667,0.12 91.02,0.12 L91.02,0.12 L84.62,0.12 L84.62,14.32 L87.9,14.32 Z M90.9,6.88 L87.9,6.88 L87.9,3 L90.8,3 C91.1733333,3 91.52,3.17333333 91.84,3.52 C92.16,3.86666667 92.32,4.33333333 92.32,4.92 C92.32,5.49333333 92.18,5.96333333 91.9,6.33 C91.62,6.69666667 91.2866667,6.88 90.9,6.88 L90.9,6.88 Z M101.5,14.32 L101.5,5.82 L104.58,12 L106.34,12 L109.42,5.82 L109.42,14.32 L112.7,14.32 L112.7,0.12 L109.16,0.12 L105.46,7.54 L101.78,0.12 L98.22,0.12 L98.22,14.32 L101.5,14.32 Z" id="RM" fill="#F2D354"></path>
                    </g>
                </g>
            </g>
        </g>
    </g>
</svg>