<?xml version="1.0" encoding="UTF-8"?>
<svg width="199px" height="150px" viewBox="0 0 199 150" version="1.1" xmlns="http://www.w3.org/2000/svg" xmlns:xlink="http://www.w3.org/1999/xlink">
    <!-- Generator: Sketch 63.1 (92452) - https://sketch.com -->
    <title>编组 2</title>
    <desc>Created with Sketch.</desc>
    <defs>
        <rect id="path-1" x="0" y="0" width="548.076923" height="150"></rect>
        <polygon id="path-3" points="0 150 210 150 210 0 0 0"></polygon>
    </defs>
    <g id="V3-最新稿件" stroke="none" stroke-width="1" fill="none" fill-rule="evenodd">
        <g id="documentation" transform="translate(-963.000000, -676.000000)">
            <g id="community" transform="translate(956.000000, 676.000000)">
                <g id="编组-2">
                    <g id="Fill-24" transform="translate(7.000000, 0.000000)">
                        <mask id="mask-2" fill="white">
                            <use xlink:href="#path-1"></use>
                        </mask>
                        <g id="Mask"></g>
                        <path d="M-21.9089717,168.641952 C-28.1439789,152.1046 -23.4675159,127.766924 -26.5854346,116.845639 C-29.7025231,105.925185 -52.1457258,85.0193191 -45.9115489,74.7230574 C-39.6773721,64.4259646 -32.5854562,59.6676422 -32.5854562,48.4346767 C-32.5854562,37.2017113 -27.9853843,13.566355 -17.3097301,8.5736489 C-6.63490624,3.58094275 36.6937853,-26.6853124 46.9808414,-26.9969929 C57.2678975,-27.3086734 51.6782031,-3.28267759 89.7076783,-5.77944624 C127.737153,-8.27538374 161,-42.9874421 167,32.5602346 C173,108.107911 217.990417,99.3724142 189,168.641952 C160.010413,237.911491 12.3798314,190.171179 12.3798314,190.171179 C12.3798314,190.171179 -15.6747948,185.179304 -21.9089717,168.641952 Z" fill="#5C76E9" mask="url(#mask-2)"></path>
                    </g>
                    <g id="Group-41">
                        <polygon id="Fill-22" stroke="#4B63E3" stroke-width="2" fill="#F5FAFD" points="36.6923077 115.961538 156.692308 115.961538 156.692308 36.9615385 36.6923077 36.9615385"></polygon>
                        <polygon id="Fill-22" stroke="#4B63E3" stroke-width="2" fill="#BDC8F1" points="36.6923077 115.961538 156.692308 115.961538 156.692308 46.9615385 36.6923077 46.9615385"></polygon>
                        <path d="M130.430204,102.337039 C128.777347,98.4677317 128.557119,96.7023354 129.76952,97.0408496 C130.981922,97.3793638 131.666267,97.9067977 131.822557,98.6231513 C132.322557,98.8995055 132.572557,99.142822 132.572557,99.353101 C132.572557,99.5633799 132.572557,99.9642206 132.572557,100.555623 L132.151848,101.650617 L130.430204,102.337039 Z" id="Path-25" stroke="#F2B941" stroke-width="1.5" fill="#FFFFFF" transform="translate(130.786279, 99.668519) scale(-1, 1) translate(-130.786279, -99.668519) "></path>
                        <path d="M46.4230769,76.8856861 C50.2515504,70.6512367 53.4589143,67.534012 56.0451688,67.534012 C59.9245505,67.534012 59.8917039,75.5065655 63.8429593,75.5065655 C67.7942147,75.5065655 67.9834945,61.7192419 74.6231681,61.7192419 C79.0496171,61.7192419 82.6495867,67.0525752 85.4230769,77.7192419" id="Path-12" stroke="#3E6CDE" stroke-width="3"></path>
                        <path d="M114.72882,94.6020577 C112.587328,94.1459442 108.666399,100.092652 106.96733,99.7307692 C105.232936,99.3613631 105.231939,92.57933 102.963041,92.0960804 C99.5674649,91.3728614 92.5484549,90.0011812 81.9060107,87.9810399 C79.4469538,87.4569319 77.8816439,85.0558052 78.4103745,82.6182476 L83.2641718,60.221531 C83.7929024,57.7831454 86.2160423,56.2315207 88.6750992,56.7556287 L143.36322,68.4035773 C145.822277,68.9268574 147.387587,71.3279841 146.858856,73.7663697 L142.005059,96.1622583 C141.476328,98.6014719 139.053188,100.153097 136.594132,99.6289885 C126.07234,97.1413878 118.783902,95.4657442 114.72882,94.6020577 Z" id="Fill-5" stroke="#3E6CDE" stroke-width="2" fill="#FFFFFF"></path>
                        <path d="M167.732092,44.209239 C166.983469,44.0504723 165.612791,46.1204376 165.018831,45.9944714 C164.412522,45.8658863 164.412174,43.5051559 163.619013,43.3369436 C162.431988,43.0852012 159.978283,42.6077386 156.2579,41.9045558 C155.398263,41.7221212 154.851062,40.8863227 155.035896,40.0378432 L156.732685,32.2418609 C156.917519,31.3930932 157.7646,30.8529945 158.624236,31.0354291 L177.7421,35.0899163 C178.601737,35.2720627 179.148938,36.1078611 178.964104,36.9566289 L177.267315,44.7523229 C177.082481,45.6013789 176.2354,46.1414776 175.375764,45.959043 C171.697557,45.0931441 169.149667,44.5098762 167.732092,44.209239 Z" id="Fill-5" fill="#D0D7F6" style="mix-blend-mode: multiply;"></path>
                        <path d="M31.3660458,27.7933229 C30.9917346,27.7116715 30.3063957,28.776225 30.0094157,28.7114424 C29.7062611,28.645313 29.7060868,27.4312231 29.3095063,27.3447138 C28.7159939,27.2152463 27.4891417,26.9696941 25.6289498,26.6080573 C25.1991314,26.5142337 24.925531,26.0843945 25.0179478,25.6480336 L25.8663426,21.6386713 C25.9587594,21.2021622 26.3822998,20.9243972 26.8121182,21.0182207 L36.3710502,23.1033855 C36.8008686,23.1970608 37.074469,23.6269 36.9820522,24.0634091 L36.1336574,28.0726232 C36.0412406,28.5092806 35.6177002,28.7870456 35.1878818,28.6932221 C33.3487787,28.2479027 32.0748333,27.9479363 31.3660458,27.7933229 Z" id="Fill-5-Copy" fill="#D0D7F6" style="mix-blend-mode: multiply;" transform="translate(31.000000, 24.857143) scale(-1, 1) translate(-31.000000, -24.857143) "></path>
                        <path d="M25.488061,136.057764 C24.9889794,135.948895 24.0751943,137.3683 23.6792209,137.281923 C23.2750148,137.193751 23.2747824,135.574964 22.7460084,135.459618 C21.9546585,135.286995 20.3188556,134.959592 17.8385997,134.47741 C17.2655086,134.352312 16.900708,133.779193 17.0239304,133.197378 L18.1551235,127.851562 C18.2783459,127.26955 18.8430665,126.899196 19.4161576,127.024294 L32.1614003,129.804514 C32.7344914,129.929414 33.099292,130.502533 32.9760696,131.084546 L31.8448765,136.430164 C31.7216541,137.012374 31.1569335,137.382727 30.5838424,137.257629 C28.1317049,136.66387 26.4331111,136.263915 25.488061,136.057764 Z" id="Fill-5-Copy" fill="#D0D7F6" style="mix-blend-mode: multiply;" transform="translate(25.000000, 132.142857) scale(-1, -1) rotate(30.000000) translate(-25.000000, -132.142857) "></path>
                        <mask id="mask-4" fill="white">
                            <use xlink:href="#path-3"></use>
                        </mask>
                        <g id="Clip-10"></g>
                        <circle id="Oval" fill="#3E6CDE" mask="url(#mask-4)" cx="44" cy="42" r="2"></circle>
                        <circle id="Oval" fill="#3E6CDE" mask="url(#mask-4)" cx="50" cy="42" r="2"></circle>
                        <circle id="Oval" fill="#3E6CDE" mask="url(#mask-4)" cx="56" cy="42" r="2"></circle>
                        <polygon id="Fill-9-Copy" fill="#3E6CDE" mask="url(#mask-4)" points="46.4230769 92 85.4230769 92 85.4230769 89 46.4230769 89"></polygon>
                        <polygon id="Fill-12-Copy" fill="#3E6CDE" mask="url(#mask-4)" points="46 99 52 99 52 96 46 96"></polygon>
                        <path d="M73.1718204,129.332516 C73.1718204,129.332516 76.832017,131.179379 77.2211877,133.66781 C77.6111883,136.157097 72.0740104,139.849967 72.0740104,139.849967 L74.8463334,143.423077 C74.8463334,143.423077 81.1153846,137.761874 81.1153846,133.105796 C81.1153846,128.449717 71.6923077,123.230769 71.6923077,123.230769 L73.1718204,129.332516 Z" id="Fill-32" stroke="#F2B941" stroke-width="2" fill="#F2D354" mask="url(#mask-4)"></path>
                        <path d="M55.5384615,184.685718 L59.8530203,184.685718 C63.4552575,162.839721 65.8177486,151.953463 66.9404935,152.026947 C68.0632384,152.10043 68.0849107,163.14273 67.0055103,185.153846 L73.136216,184.568478 L76.2783717,163.615385 L74.3846154,143.833027 L59.2852727,142.076923 L59.1715619,144.418395 C57.5366156,150.285934 56.4794283,155.876566 56,161.19029 C55.5205717,166.504014 55.3667256,174.335823 55.5384615,184.685718 Z" id="Fill-28" stroke="#F2B941" stroke-width="2" fill="#FFFFFF" mask="url(#mask-4)"></path>
                        <path d="M58.0000325,144.769231 C59.3662696,146.161547 74.3846154,147.022347 75.7307692,144.769231 C76.6282051,143.267153 76.4225718,136.438825 75.1138694,124.284245 C75.1138694,124.284245 75.1138694,121.894899 71.6923077,121.894899 C70.7346068,121.894899 69.9947923,123.230769 68.5182433,123.230769 C67.0305187,123.230769 64.9615385,123.504324 63.9509787,123.230769 C63.0268537,122.980612 63.2487665,121.754248 62.3808549,121.894899 C61.3521542,122.061606 60.0857463,122.121048 59.3662696,122.356644 C56.6968066,123.230769 50.7524861,121.94365 50.2900166,119.602224 C49.827547,117.260797 50.1713104,112.68247 50.1713104,111.645127 C50.1713104,110.607784 47.3895194,109.209042 46.4230769,110.938321 C45.4566344,112.6676 45.1051006,121.006581 47.3895194,123.659809 C49.6731167,126.313869 50.8751456,126.933808 53.2068036,127.718226 C55.5384615,128.502644 58.7661601,129.064698 58.7661601,130.060587 C58.7661601,131.056476 56.6337954,143.376915 58.0000325,144.769231 Z" id="Fill-27" stroke="#F2B941" stroke-width="2" fill="#F2D354" mask="url(#mask-4)"></path>
                        <g id="Group-15" mask="url(#mask-4)" fill="#FFFFFF" stroke="#F2B941" stroke-width="2">
                            <g transform="translate(61.923077, 107.076923)">
                                <path d="M1.21091225,10.2341231 C3.07403182,11.3739119 3.75152984,11.3392093 3.76589643,12.2970021 C3.78026302,13.2540237 2.64832714,16.0183958 2.64832714,16.1538462 C2.64832714,16.2892965 6.90469667,16.2892965 7.54373601,15.5404668 C7.96976223,15.0412471 7.75674912,13.6640442 6.90469667,11.4088583 C6.90469667,11.4088583 9.46111421,8.388714 8.28985925,4.86061258 C7.11936043,1.33173998 2.64832714,1.22377622 2.64832714,1.22377622 C2.64832714,1.22377622 0.94475231,1.54920984 0.679348507,2.36279389 C0.413188569,3.1771491 0.306573366,3.88276938 0.306573366,3.88276938 C0.14702863,4.20897417 -0.651451185,9.09433429 1.21091225,10.2341231 Z" id="Fill-29"></path>
                                <path d="M4.11029159,6.34060554 C4.95934466,7.54105073 5.49019135,10.2164615 6.18014123,10.7624004 C6.87009111,11.3083393 8.17066171,9.39755317 8.89696027,9.39755317 C9.62325884,9.39755317 9.7449461,10.3250289 10.487679,10.7624004 C11.231166,11.198221 13.4615385,10.9792202 13.4615385,12.0160388 C13.4615385,13.0528574 11.3650068,16.0635449 12.9567928,18.3566434 C14.5493329,20.6497418 19.3833203,20.3206687 20.5555011,18.3566434 C21.7276818,16.392618 20.6173306,11.2835913 18.0701714,8.44455397 C15.5222581,5.60629208 11.1696476,5.90400951 11.1696476,5.90400951 C11.1696476,5.90400951 9.01609916,-0.264169459 4.6260574,0.00879998967 C0.235261599,0.281769439 5.32907052e-15,3.06574763 5.32907052e-15,3.06574763 C5.32907052e-15,3.06574763 3.26048447,5.14016034 4.11029159,6.34060554 Z" id="Fill-30"></path>
                            </g>
                        </g>
                        <polygon id="Fill-31" stroke="#F2D354" stroke-width="2" fill="#FFFEF9" mask="url(#mask-4)" transform="translate(50.171310, 103.599122) rotate(15.000000) translate(-50.171310, -103.599122) " points="48.8251566 106.964507 48.8251566 101.935184 50.3572596 100.233738 51.5174642 102.052241 51.5174642 106.964507"></polygon>
                        <path d="M135.118012,117.25171 C135.118012,117.25171 130.84859,113.867508 130.928329,109.174377 C131.008068,104.482885 131.847433,103.435033 131.617113,102.761179 C131.386793,102.087325 128.462767,100.607116 128.089117,101.097864 C127.715468,101.588611 126.457016,106.462262 127.26628,110.252174 C128.074696,114.041267 129.01799,116.796003 129.01799,116.796003 L135.118012,117.25171 Z" id="Fill-37" stroke="#F2B941" stroke-width="2" fill="#F2D354" mask="url(#mask-4)"></path>
                        <path d="M122.791087,160.911814 C123.73782,171.457636 130.241803,177.800082 132.015142,178.737303 C133.789321,179.674525 137.33684,178.737303 137.33684,178.737303 C137.33684,178.737303 133.801082,173.229671 133.210529,164.676485 C132.619136,156.121634 136.627,147.303359 137.33684,147.303359 C138.046679,147.303359 135.496059,159.505129 139.162024,166.066512 C142.828829,172.628727 147.508128,176.042167 147.508128,176.042167 L153.502347,176.042167 C164.673872,176.042167 142.969838,162.494074 144.750737,154.715802 C146.607241,146.61125 149.189545,145.259521 148.535149,139.83429 C147.880752,134.40906 129.886463,139.83429 129.886463,139.83429 C129.886463,139.83429 121.845194,150.365992 122.791087,160.911814 Z" id="Fill-34" stroke="#F2B941" stroke-width="2" fill="#FFFFFF" mask="url(#mask-4)"></path>
                        <path d="M124.720182,110.350618 C122.671134,105.943186 119.534504,100.251556 119.093437,99.7307692 C118.65237,99.2099829 116.204519,100.102609 115.809055,100.463027 C115.413591,100.823445 116.713721,110.350618 120.21428,114.758049 C123.714838,119.165481 128.993939,121.215468 128.993939,121.215468 C126.842489,133.828336 126.10092,140.403067 126.769231,140.939659 C127.771697,141.744548 138.592612,142.113887 142.221216,140.939659 C145.84982,139.765432 149.312825,139.022573 149.312825,137.423077 C149.312825,135.823581 146.089358,122.103126 144.888304,119.261714 C143.687251,116.420303 137.577367,115.423556 137.577367,115.423556 C137.577367,115.423556 126.769231,114.758049 124.720182,110.350618 Z" id="Fill-33" stroke="#F2B941" stroke-width="2" fill="#F2D354" mask="url(#mask-4)"></path>
                        <path d="M134.874766,115.961538 C134.874766,115.961538 135.167218,117.635538 137.503628,117.635538 C139.840038,117.635538 139.003303,112.948088 139.003303,112.948088 C139.003303,112.948088 141.653271,111.251039 141.575233,108.783127 C141.497195,106.314393 138.926095,103.769231 138.926095,103.769231 C138.926095,103.769231 135.186087,105.620781 134.874766,108.783127 C134.709558,110.457987 135.294842,111.713721 135.731522,112.021902 C136.821562,112.792765 134.874766,115.961538 134.874766,115.961538 Z" id="Fill-35" stroke="#F2B941" stroke-width="2" fill="#FFFFFF" mask="url(#mask-4)"></path>
                        <path d="M137.692197,103.900311 C138.407245,104.940674 139.580819,105.163156 139.496801,106.946974 C139.412782,108.73 137.538462,112.817025 137.538462,112.817025 C137.538462,112.817025 143.948067,114.156296 144.736856,109.441748 C145.525644,104.7272 143.014668,104.7272 142.232583,103.241081 C141.449605,101.754962 139.496801,101.076923 138.993585,101.076923 C138.49037,101.076923 136.977148,102.859949 137.692197,103.900311 Z" id="Fill-36" stroke="#F2B941" stroke-width="2" fill="#FFFFFF" mask="url(#mask-4)"></path>
                        <path d="M82.099137,51.563594 L85.5413503,53.9256596 C86.6887547,54.8213737 86.6887547,55.2692308 85.5413503,55.2692308 C83.8202436,55.2692308 85.6064756,56.0745184 86.0939411,56.6538462 C86.5814066,57.2331739 87.6314412,58.5991699 85.5413503,59.902189 C84.1479563,60.7708684 82.2621539,57.9913368 79.883943,51.563594 L82.099137,51.563594 Z" id="Path-23" stroke="#F2B941" stroke-width="2" fill="#F4F6FD" mask="url(#mask-4)"></path>
                        <path d="M116.196655,52.7493702 L119.638869,55.1114358 C120.786273,56.0071499 120.786273,56.4550069 119.638869,56.4550069 C117.917762,56.4550069 119.703994,57.2602946 120.191459,57.8396223 C120.678925,58.41895 121.72896,59.7849461 119.638869,61.0879652 C118.245475,61.9566446 116.359672,59.1771129 113.981461,52.7493702 L116.196655,52.7493702 Z" id="Path-23" stroke="#F2B941" stroke-width="2" fill="#F4F6FD" mask="url(#mask-4)" transform="translate(117.435916, 56.996234) scale(-1, 1) rotate(15.000000) translate(-117.435916, -56.996234) "></path>
                        <path d="M78.8786394,54.455476 C77.8733358,54.455476 75.4230769,34.3793794 89.2160704,27.6385759 C90.2898692,27.1137974 93.9918153,27.0344414 95.6366636,27.007077 C98.9872152,26.9517245 103.465484,27.4605114 107.906754,29.0171997 C112.632448,30.6735801 113.360315,31.7255556 116.5,36.9615385 C121.547868,45.3797545 121.645797,53 120.72379,53.6224005 C119.801784,54.244801 114.461538,53.6224005 114.461538,52.5839102 C114.461538,52.5839102 111.678394,38.0089522 106.167091,35.667798 C104.127389,34.8013502 101.26051,35.667798 98.1251497,35.667798 C95.1629161,35.667798 92.7795517,35.3413554 90.8773009,35.667798 C83.3383974,36.9615385 86.05269,50.4551463 85.2319218,51.6505762 C84.4111536,52.8460062 79.883943,54.455476 78.8786394,54.455476 Z" id="Fill-38" stroke="#F2B941" stroke-width="2" fill="#F2D354" mask="url(#mask-4)"></path>
                        <path d="M96.7934442,20.2244921 C96.7934442,20.2244921 95.6933654,22.8504874 95.8127735,24.0868502 C95.9313347,25.3240496 96.939952,27.0899237 96.7934442,28.0326713 C96.6469364,28.9737458 95.8076923,31.211412 95.8076923,31.211412 C95.8076923,31.211412 95.9313347,33.3311301 98.6743334,32.7430631 C101.415638,32.1541596 101.058261,28.5036268 101.058261,28.5036268 C101.058261,28.5036268 105.230769,28.6207383 105.230769,24.735146 C105.230769,20.8487172 100.046694,17.4240353 100.046694,17.4240353 L96.7934442,20.2244921 Z" id="Fill-39" stroke="#F2B941" stroke-width="2" fill="#FFFFFF" mask="url(#mask-4)"></path>
                        <path d="M93.8125304,22.4138433 C93.0416745,21.6706641 93.6981761,19.4529071 95.0368364,17.9513745 C96.3754966,16.449842 97.6030902,17.562365 98.5412332,16.449842 C99.4793762,15.337319 104.961771,15.337319 106.729642,18.4265492 C108.497513,21.5157794 107.586877,24.7692308 107.136748,24.7692308 C106.68582,24.7692308 102.820047,23.5931902 100.629481,21.1749535 C98.4389139,18.7567167 97.6728516,18.7567167 96.3534795,21.1749535 C95.0341075,23.5931902 94.5833863,23.1570225 93.8125304,22.4138433 Z" id="Fill-40" stroke="#F2B941" stroke-width="2" fill="#FFFFFF" mask="url(#mask-4)"></path>
                        <line x1="97.4615385" y1="70.3846154" x2="131.461538" y2="78.3846154" id="Path-13" stroke="#3E6CDE" stroke-width="3" mask="url(#mask-4)"></line>
                        <line x1="95.4615385" y1="79.3846154" x2="118.5" y2="84.5" id="Path-13" stroke="#3E6CDE" stroke-width="3" mask="url(#mask-4)"></line>
                        <path d="M48,105.783408 C49.1524138,104.368571 50.1713104,105.659356 50.1713104,106.620183 C50.1713104,107.581009 48.731987,108.859042 49.6915359,108.859042 C50.6510849,108.859042 51.1666286,108.859042 50.1713104,109.784648 C49.5077649,110.401718 48.5502443,110.5142 47.2987485,110.122094 C46.9979736,108.172861 47.2317241,106.726632 48,105.783408 Z" id="Path-24" stroke="#F2B941" stroke-width="1.5" fill="#FFFFFF" mask="url(#mask-4)"></path>
                        <path d="M116.001653,99.9755949 C113.688385,94.9006554 113.380163,92.5851813 115.076988,93.0291728 C117.622226,93.69516 117.13246,95.6371721 117.681865,96.0618957 C118.231271,96.4866192 119,96.0618957 119,96.4755949 C119,96.7513944 118.767917,97.7684543 118.303751,99.5267746 L117.321458,99.895088 L116.001653,99.9755949 Z" id="Path-25" stroke="#F2B941" stroke-width="1.5" fill="#FFFFFF" mask="url(#mask-4)"></path>
                    </g>
                </g>
            </g>
        </g>
    </g>
</svg>