<?xml version="1.0" encoding="UTF-8"?>
<svg width="176px" height="157px" viewBox="0 0 176 157" version="1.1" xmlns="http://www.w3.org/2000/svg" xmlns:xlink="http://www.w3.org/1999/xlink">
    <!-- Generator: Sketch 63.1 (92452) - https://sketch.com -->
    <title>Group 25</title>
    <desc>Created with Sketch.</desc>
    <defs>
        <polygon id="path-1" points="0.794 0.951 204.794 0.951 204.794 150.951 0.794 150.951"></polygon>
        <path d="M38.2477174,31.6615185 C69.4512149,34.2895185 50.6034399,0.0935185267 105.177122,6.17893916 C159.750804,12.2643598 175.290985,-16.9298174 211.858357,15.8935185 C248.425729,48.7168545 217.842145,84.5945185 222.695325,98.4855185 C227.549428,112.375519 229.909688,122.840519 214.546938,144.003519 C212.733269,146.501944 208.414413,148.726685 204.304754,150.092605 C204.143674,150.146143 204.540154,150.092605 203.837907,150.092605 C203.135661,150.092605 202.871823,150.092605 201.945014,150.092605 C196.678856,150.092605 190.771958,150.093519 181.830167,150.092605 C150.661001,150.089422 103.648143,135.652306 52.9991971,152.826119 C-23.8084952,178.869719 2.53736623,160.240519 12.5909748,144.003519 C22.6464305,127.767519 28.8867606,94.3555185 28.8867606,94.3555185 C28.8867606,94.3555185 7.04421998,29.0335185 38.2477174,31.6615185 Z" id="path-3"></path>
    </defs>
    <g id="V3-最新稿件" stroke="none" stroke-width="1" fill="none" fill-rule="evenodd">
        <g id="documentation" transform="translate(-389.000000, -495.000000)">
            <g id="explanation-copy" transform="translate(337.000000, 495.000000)">
                <g id="Group-25">
                    <g id="Group-3" transform="translate(52.000000, 6.049000)">
                        <mask id="mask-2" fill="white">
                            <use xlink:href="#path-1"></use>
                        </mask>
                        <g id="Clip-2"></g>
                        <path d="M-23.1124366,63.5598453 C30,47.9049767 3.02614213,0.051 61.6029285,16.751 C120.179715,33.451 124.233928,5.53177617 152.196603,26.2413881 C180.159278,46.951 165.842948,85.452 170.696128,99.343 C175.550231,113.233 177.910491,123.698 162.547741,144.861 C147.184991,166.024 -39.4082223,168.951 -13.7514797,136.751 C11.9052629,104.551 -49.4618309,161.098 -39.4082223,144.861 C-29.3527667,128.625 -23.1124366,95.213 -23.1124366,95.213 C-23.1124366,95.213 -76.2248731,79.2147138 -23.1124366,63.5598453 Z" id="Fill-1" fill="#5C76E9" mask="url(#mask-2)"></path>
                    </g>
                    <g id="Fill-21" transform="translate(0.000803, 6.906481)">
                        <g id="Fill-32-+-Fill-34-Mask" transform="translate(-0.000000, 0.000000)">
                            <mask id="mask-4" fill="white">
                                <use xlink:href="#path-3"></use>
                            </mask>
                            <g id="Mask"></g>
                            <path d="M209.764635,129.037738 C209.764635,129.037738 209.699331,139.524178 210.289865,142.696872 C210.881331,145.867726 211.208783,150.205579 211.603405,150.592739 C211.997094,150.981739 213.310635,155.254299 213.310635,155.254299 L217.71025,152.988353 C217.71025,152.988353 217.677598,150.269952 217.71025,149.364125 C217.742902,148.457379 217.809139,139.750405 217.71025,137.906565 C217.612294,136.060885 217.762493,128.454698 217.762493,128.454698 L209.764635,129.037738 Z" id="Fill-32" stroke="#F2B941" stroke-width="2" fill="#FFFFFF" mask="url(#mask-4)" transform="translate(213.762493, 141.854499) scale(-1, 1) rotate(8.000000) translate(-213.762493, -141.854499) "></path>
                            <path d="M193.892907,133.626632 C194.070357,134.917061 193.419425,138.663578 193.892907,142.777419 C194.366389,146.893004 197.325861,154.754235 198.391406,156.043791 C199.457791,157.333346 201.900599,160.447114 202.961913,158.850669 C204.023227,157.254225 199.296846,128.553901 198.822523,128.308729 C198.349041,128.061811 192.116719,131.416588 192.116719,131.416588 C192.116719,131.416588 193.715456,132.337949 193.892907,133.626632 Z" id="Fill-34" stroke="#F2B941" stroke-width="2" fill="#FFFFFF" mask="url(#mask-4)" transform="translate(197.616719, 143.795738) scale(-1, 1) rotate(8.000000) translate(-197.616719, -143.795738) "></path>
                        </g>
                        <g id="Group-9" transform="translate(202.610867, 93.107391) scale(-1, 1) rotate(8.000000) translate(-202.610867, -93.107391) translate(177.110867, 51.107391)" stroke="#F2B941" stroke-width="2">
                            <path d="M15.8185896,12.6567986 C20.5104743,11.9973972 15.6137625,9.03558823 15.980381,5.79584527 C16.3460245,2.5561023 13.3007065,3.5411402 18.0131199,2.99466751 C22.7255332,2.44819482 27.4001575,5.55442852 27.5366644,7.62220799 L27.6741464,9.69165099 C27.6741464,9.69165099 28.7369399,13.037579 28.5994579,15.1843766 C28.462951,17.3311741 27.2615093,18.7545048 23.006394,18.7154116 C18.7512788,18.6763184 22.4127803,16.0538574 22.4127803,16.0538574 L20.1701668,3.68045139 L15.8185896,12.6567986 Z" id="Fill-22" fill="#FFFFFF"></path>
                            <path d="M9.13592792,36.1925585 C9.50257446,36.1410297 7.56059086,34.3123927 7.96841043,33.4100816 C8.24029015,32.8085408 9.58637398,31.5671916 12.0066619,29.6860339 C12.0066619,29.6860339 14.6110856,32.7195344 14.905746,35.3816635 C15.2565323,38.5596555 16.1023957,43.8962683 16.1023957,43.8962683 C16.1023957,43.8962683 20.6333939,47.458403 26.9550302,46.8114177 C33.275731,46.1635697 31.9199228,46.1136475 31.9199228,46.1136475 C31.9199228,46.1136475 30.117428,39.8912458 30.7547487,37.8230028 C31.894573,34.1240267 33.5361655,30.4331905 33.3741572,29.2804416 C32.9792408,26.4704657 31.5871666,25.0564737 31.5871666,25.0564737 C31.5871666,25.0564737 34.7651791,24.2421505 40.8702858,24.5702295 C46.9753924,24.8983084 47.1944075,24.8675278 47.2230533,24.4715554 C47.3109837,23.2578109 46.5065376,17.7196106 45.9147892,17.3517242 C45.3230408,16.9838378 46.1309721,18.8899456 32.0475952,17.6048498 C30.4217283,17.4564908 27.4006887,17.0813994 25.947799,17.171377 C17.2864404,17.707776 12.1806648,19.3717741 10.6025814,20.6187499 C9.16980823,21.7509999 5.57903008,26.0661974 3.16878833,29.0504163 C2.47746361,29.9063737 1.36513701,31.4493735 1.09004051,31.9643966 C0.308700579,33.4271853 0.705493488,36.2505136 1.90162461,37.7391175 C2.72776835,38.7672663 8.88360309,36.2280205 9.13592792,36.1925585 Z" id="Fill-28" fill="#F2CF51"></path>
                            <path d="M12.762619,82.149561 C16.4386731,82.2916043 25.9056879,85.2992254 38.2744742,82.6034139 C50.6442155,79.9076024 51.2194457,78.6415719 50.958036,76.7815452 C50.6966263,74.9215186 43.5231418,66.6041737 38.8603161,57.6926004 C34.1974904,48.7810272 31.1098269,41.2254625 31.1098269,41.2254625 L15.9358303,43.3580286 C13.3418048,57.6045685 11.7532799,66.7583281 11.1702557,70.8193077 C10.5089702,75.425406 10.8054142,82.0739344 12.762619,82.149561 Z" id="Fill-30" fill="#F2CF51"></path>
                            <path d="M28.3207177,6.60949041 C27.8553843,4.06542792 26.8597864,2.58113992 25.7926938,1.69676007 C23.506787,-0.197742665 20.7411606,0.581998027 20.6506369,0.610691933 L15.8242438,2.73564485 L17.0283816,17.8056057 C17.5009638,19.4728976 18.1810491,20.2271555 18.7802391,20.4660621 C21.202312,21.4317813 22.9121285,21.7308052 24.1243173,21.7175208 C27.1443596,21.6844241 27.5878026,20.1303426 27.5671393,19.0512932 C27.5628967,18.8297404 27.5383363,18.5889252 27.4758476,18.3468123 C27.2687264,18.2910615 27.0988871,18.2114322 26.9678422,18.1541511 C26.660111,18.0196384 26.1166313,17.8118041 25.7905389,17.1378313 C24.9406913,15.3813529 24.6321262,13.9677091 25.2941116,12.5536088 C26.3295495,12.42493 27.5409097,12.155397 28.1687934,10.7722924 C28.5296787,9.97733296 28.7046221,8.70836602 28.3207177,6.60949041 Z" id="Fill-24" fill="#F4F6FD"></path>
                            <path d="M21.5113415,4.63619135 C21.7801251,7.065712 19.7281127,7.31746452 19.9652063,9.0044731 C20.2022999,10.6914817 25.7336533,19.2895304 18.5327293,20.5715944 C15.8235224,21.0531739 14.9548435,18.7905712 14.568751,18.1673642 C13.928495,17.1339017 15.9689568,16.7463383 14.9245873,13.5994772 C13.2504336,8.55496987 13.5299264,7.95516786 13.976946,6.85665929 C14.1934392,6.32532474 13.9950314,3.06837862 16.6270041,1.5584945 C22.0189339,-1.53469456 26.5735136,2.04457178 26.7102951,3.01782279 C26.7469576,3.27868973 25.2098579,1.98707685 24.1725887,2.12133646 C22.2403968,2.37143094 21.4401131,3.99007099 21.5113415,4.63619135 Z" id="Fill-26" fill="#FFFFFF"></path>
                            <path d="M8.00260144,35.8648094 C8.35164445,35.8157546 8.71163319,38.688292 10.2867397,40.7757802 C11.3368107,42.167439 12.7343396,43.9957271 14.4793264,46.2606445 L13.9800426,48.7872094 C10.6646154,46.8399145 8.18701124,44.7994287 6.54723002,42.6657519 C4.9074488,40.5320752 3.87648302,38.6824304 3.45433267,37.1168176 C6.25381651,36.3148486 7.76990611,35.8975126 8.00260144,35.8648094 Z" id="Path-21" fill="#F4F6FD"></path>
                        </g>
                    </g>
                    <path d="M158.206,43 L83,43 L83,142 L158.206,142 L158.206,43 Z" id="Fill-4" stroke="#4B63E3" stroke-width="2" fill="#F5FAFD"></path>
                    <polygon id="Fill-14" fill="#4B63E3" points="83.004 50 158.004 50 158.004 48 83.004 48"></polygon>
                    <polygon id="Fill-16" fill="#3E6CDE" points="98 114 143 114 143 111 98 111"></polygon>
                    <polygon id="Fill-17" fill="#3E6CDE" points="106 121 136 121 136 118 106 118"></polygon>
                    <g id="Group-14" transform="translate(99.000000, 63.000000)" fill="#FFFFFF" stroke="#3E6CDE" stroke-width="2.5">
                        <path d="M21,0 L21.0003426,6.0000061 C23.2025348,6.00381364 24.9865829,7.79099785 24.9865829,9.99505257 C24.9865829,12.2014592 23.1987254,13.9901051 20.9932914,13.9901051 L21,13.99 L21,20 L15,20 L15,20 C15,17.790861 13.209139,16 11,16 C8.790861,16 7,17.790861 7,20 L1,20 L1,0 L21,0 Z" id="Combined-Shape"></path>
                        <path d="M19,18 L19.0003426,24.0000061 C21.2025348,24.0038136 22.9865829,25.7909978 22.9865829,27.9950526 C22.9865829,30.2014592 21.1987254,31.9901051 18.9932914,31.9901051 L19,31.99 L19,38 L13,38 L13,38 C13,35.790861 11.209139,34 9,34 C6.790861,34 5,35.790861 5,38 L-1,38 L-1,18 L19,18 Z" id="Combined-Shape" transform="translate(10.993291, 28.000000) rotate(-90.000000) translate(-10.993291, -28.000000) "></path>
                        <path d="M39,2 L39.0003426,8.0000061 C41.2025348,8.00381364 42.9865829,9.79099785 42.9865829,11.9950526 C42.9865829,14.2014592 41.1987254,15.9901051 38.9932914,15.9901051 L39,15.99 L39,22 L33,22 L33,22 C33,19.790861 31.209139,18 29,18 C26.790861,18 25,19.790861 25,22 L19,22 L19,2 L39,2 Z" id="Combined-Shape" transform="translate(30.993291, 12.000000) rotate(90.000000) translate(-30.993291, -12.000000) "></path>
                    </g>
                    <ellipse id="Oval" fill="#F4F6FD" cx="162.5" cy="79" rx="1.5" ry="1"></ellipse>
                    <path d="M176.215388,80.9327321 C176.868819,81.1800101 172.810106,80.2119652 164.039248,78.0285974 C162.610958,77.0845999 161.776191,76.5364219 161.534948,76.3840636 C161.293705,76.2317052 160.613186,76.2064533 159.49339,76.3083079" id="Path-17" stroke="#F4C545" stroke-width="2"></path>
                    <path d="M159,74 L159.000343,80.0000061 C161.202535,80.0038136 162.986583,81.7909978 162.986583,83.9950526 C162.986583,86.2014592 161.198725,87.9901051 158.993291,87.9901051 L159,87.99 L159,94 L153,94 L153,94 C153,91.790861 151.209139,90 149,90 C146.790861,90 145,91.790861 145,94 L139,94 L139,74 L159,74 Z" id="Combined-Shape" stroke="#F2D354" stroke-width="2.5" fill="#FFFEF9" transform="translate(150.993291, 84.000000) scale(-1, 1) rotate(30.000000) translate(-150.993291, -84.000000) "></path>
                    <g id="Group-11" transform="translate(112.000000, 131.000000)">
                        <path d="M4,2 C4,3.10496486 3.10451145,4 2,4 C0.895488551,4 0,3.10496486 0,2 C0,0.895035139 0.895488551,0 2,0 C3.10451145,0 4,0.895035139 4,2" id="Fill-19" fill="#BDC8F1"></path>
                        <path d="M18,2 C18,3.10496486 17.1045114,4 16,4 C14.8954886,4 14,3.10496486 14,2 C14,0.895035139 14.8954886,0 16,0 C17.1045114,0 18,0.895035139 18,2" id="Fill-19-Copy-3" fill="#BDC8F1"></path>
                        <path d="M11,2 C11,3.10496486 10.1045114,4 9,4 C7.89548855,4 7,3.10496486 7,2 C7,0.895035139 7.89548855,0 9,0 C10.1045114,0 11,0.895035139 11,2" id="Fill-19-Copy-2" fill="#3E6CDE"></path>
                    </g>
                    <path d="M171,129 C171,133.972342 166.970302,138 162,138 C157.029698,138 153,133.972342 153,129 C153,124.027658 157.029698,120 162,120 C166.970302,120 171,124.027658 171,129" id="Fill-19" fill="#D0D7F6" style="mix-blend-mode: multiply;"></path>
                    <path d="M178,44 C178,46.2099297 176.209023,48 174,48 C171.790977,48 170,46.2099297 170,44 C170,41.7900703 171.790977,40 174,40 C176.209023,40 178,41.7900703 178,44" id="Fill-19-Copy" fill="#D0D7F6" style="mix-blend-mode: multiply;"></path>
                    <path d="M209,35 C209,38.867377 205.86579,42 202,42 C198.13421,42 195,38.867377 195,35 C195,31.132623 198.13421,28 202,28 C205.86579,28 209,31.132623 209,35" id="Fill-19-Copy-4" fill="#D0D7F6" style="mix-blend-mode: multiply;"></path>
                    <rect id="矩形" fill="#FFFFFF" transform="translate(133.500000, 8.500000) scale(-1, 1) translate(-133.500000, -8.500000) " x="133" y="0" width="1" height="17"></rect>
                </g>
            </g>
        </g>
    </g>
</svg>