<?xml version="1.0" encoding="UTF-8"?>
<svg width="193px" height="150px" viewBox="0 0 193 150" version="1.1" xmlns="http://www.w3.org/2000/svg" xmlns:xlink="http://www.w3.org/1999/xlink">
    <!-- Generator: Sketch 63.1 (92452) - https://sketch.com -->
    <title>编组</title>
    <desc>Created with Sketch.</desc>
    <defs>
        <rect id="path-1" x="0.856792447" y="0" width="548.076923" height="150"></rect>
        <polygon id="path-3" points="0.7 95 136.7 95 136.7 0 0.7 0"></polygon>
    </defs>
    <g id="V3-最新稿件" stroke="none" stroke-width="1" fill="none" fill-rule="evenodd">
        <g id="documentation" transform="translate(-389.000000, -676.000000)">
            <g id="Group-Copy-5" transform="translate(389.000000, 676.000000)">
                <g id="编组">
                    <g id="Path-26">
                        <mask id="mask-2" fill="white">
                            <use xlink:href="#path-1"></use>
                        </mask>
                        <g id="Mask"></g>
                        <path d="M-46.7179639,172 C-53.2722043,101.739046 -37.7472855,66.1609867 -0.143207553,65.2658228 C56.2629093,63.9230769 16.2219681,26.2556946 74.2910817,23 C132.360195,19.7443054 133.417417,74.869637 166.079413,78.6848185 C198.741408,82.5 203.545892,121.172655 168.570525,140.285919 C133.595158,159.399183 26.4732411,160.03292 -7.22436263,150 C-29.6894318,143.311387 -42.8539656,150.64472 -46.7179639,172 Z" fill="#F2D354" mask="url(#mask-2)"></path>
                    </g>
                    <g id="Group-18" transform="translate(19.000000, 34.000000)">
                        <polygon id="Fill-1" stroke="#F4C545" stroke-width="2" fill="#FFFEF9" points="19.6329114 62.5316456 116.632911 62.5316456 116.632911 0 19.6329114 0"></polygon>
                        <polygon id="Fill-3" stroke="#F4C545" stroke-width="3" points="19.6329114 29.6202532 116.632911 29.6202532 116.632911 7.40506329 19.6329114 7.40506329"></polygon>
                        <g id="Group-17">
                            <mask id="mask-4" fill="white">
                                <use xlink:href="#path-3"></use>
                            </mask>
                            <g id="Clip-9"></g>
                            <circle id="Oval" stroke="#3E6CDE" stroke-width="2" fill="#5C76E9" mask="url(#mask-4)" cx="34.5" cy="46.5" r="9.5"></circle>
                            <path d="M34.4992173,38 C29.8060714,38 26,41.9018574 26,46.7153788 C26,50.5658749 28.4352804,53.8321356 31.812947,54.9845559 C32.2382209,55.064808 32.3931981,54.7956959 32.3931981,54.5645698 C32.3931981,54.3575194 32.3858928,53.809665 32.3817183,53.0825809 C30.0174038,53.6090347 29.5185549,51.9141103 29.5185549,51.9141103 C29.1318948,50.9072138 28.5746033,50.6391718 28.5746033,50.6391718 C27.8028485,50.0988076 28.6330458,50.1095079 28.6330458,50.1095079 C29.4862028,50.1710345 29.9349581,51.0077965 29.9349581,51.0077965 C30.6931459,52.3394464 31.924614,51.9547713 32.4088523,51.7316705 C32.48608,51.1688357 32.7057614,50.7846956 32.9484023,50.5669449 C31.0610209,50.3470541 29.0765831,49.5991045 29.0765831,46.2595468 C29.0765831,45.3082918 29.4079315,44.5298464 29.951656,43.9210004 C29.8639921,43.7005746 29.5723012,42.8140564 30.0351453,41.6145549 C30.0351453,41.6145549 30.7484576,41.3802187 32.3723257,42.5080283 C33.050155,42.3143533 33.7775561,42.2180507 34.5002609,42.2143056 C35.2224439,42.2180507 35.9493232,42.3143533 36.6281961,42.5080283 C38.2510206,41.3802187 38.9632892,41.6145549 38.9632892,41.6145549 C39.427177,42.8140564 39.135486,43.7005746 39.048344,43.9210004 C39.5931121,44.5298464 39.9218515,45.3082918 39.9218515,46.2595468 C39.9218515,49.6076647 37.9342828,50.344379 36.0411615,50.5599897 C36.3458977,50.8291018 36.6177599,51.3609057 36.6177599,52.1735921 C36.6177599,53.3388527 36.6073237,54.2788723 36.6073237,54.5645698 C36.6073237,54.797836 36.7607354,55.0690881 37.1917493,54.9840208 C40.5668068,53.8289255 43,50.5648048 43,46.7153788 C43,41.9018574 39.1939286,38 34.4992173,38" id="Fill-49" fill="#FFFFFE" mask="url(#mask-4)"></path>
                            <text id="GINO" mask="url(#mask-4)" font-family="Helvetica" font-size="14" font-weight="normal" letter-spacing="4.666667" fill="#F4C545">
                                <tspan x="41" y="26">GINO</tspan>
                            </text>
                            <polygon id="Fill-8" fill="#F4C545" mask="url(#mask-4)" points="50.8415625 39.5909967 88.8415625 39.5909967 88.8415625 36.6346618 50.8415625 36.6346618"></polygon>
                            <path d="M76.003125,51.8358538 L51.8415625,51.8358538 L51.8415625,56.6621891 L76.003125,56.6621891 L76.003125,51.8358538 Z" id="Fill-10" stroke="#F4C545" stroke-width="2" fill="#FFFEF9" mask="url(#mask-4)"></path>
                            <polygon id="Fill-11" fill="#F4C545" mask="url(#mask-4)" points="50.8415625 45.4630173 88.8415625 45.4630173 88.8415625 43.1433624 50.8415625 43.1433624"></polygon>
                            <polygon id="Fill-12" fill="#F4C545" mask="url(#mask-4)" points="93 39.4364363 109 39.4364363 109 36.150722 93 36.150722"></polygon>
                            <polygon id="Fill-13" fill="#F4C545" mask="url(#mask-4)" points="93 45.954822 109 45.954822 109 43.3767233 93 43.3767233"></polygon>
                            <polygon id="Fill-14" fill="#3E6CDE" mask="url(#mask-4)" points="69.7537766 59.2932872 68.5 54 73.3677006 56.4992677 72.1932789 57.4818167 73.3677006 59.1703084 72.1048785 60.0227017 70.8995501 58.3764651"></polygon>
                            <polygon id="Fill-15" stroke="#F4C545" stroke-width="2" fill="#F8E9A1" mask="url(#mask-4)" points="19.221875 62 4 89.7439351 130.3114 89.7439351 116.1389 62"></polygon>
                            <polygon id="Fill-16" fill="#F4C545" mask="url(#mask-4)" points="49.501875 82 44 90.8396395 90.8784375 90.8396395 85.7559375 82"></polygon>
                            <line x1="66" y1="56.7225518" x2="67.434368" y2="56.2774482" id="Path-32" stroke="#3E6CDE" mask="url(#mask-4)"></line>
                            <line x1="65.8414556" y1="53.1271071" x2="66.8170737" y2="54.0003426" id="Path-32-Copy" stroke="#3E6CDE" mask="url(#mask-4)"></line>
                            <line x1="71" y1="53.7225518" x2="72.434368" y2="53.2774482" id="Path-32-Copy-2" stroke="#3E6CDE" mask="url(#mask-4)"></line>
                            <line x1="69.5974242" y1="51" x2="69.4025758" y2="52.2274743" id="Path-32-Copy-3" stroke="#3E6CDE" mask="url(#mask-4)"></line>
                            <path d="M2.37579818,91.0762749 C2.85422297,92.1308905 3.39562357,92.9146976 4,93.4276961 C4.60437643,93.9406946 5.43770976,94.3237702 6.5,94.5769231 L128.690163,94.5769231 C129.702427,94.3848337 130.47326,93.8721688 131.002661,93.0389283 C131.532063,92.2056878 131.864509,91.55147 132,91.0762749 L2.37579818,91.0762749 Z" id="Path-20" fill="#F4C545" mask="url(#mask-4)"></path>
                        </g>
                        <circle id="Oval" stroke="#F9E9B5" stroke-width="4" style="mix-blend-mode: multiply;" cx="132" cy="91" r="7"></circle>
                    </g>
                    <line x1="147" y1="77.5769231" x2="156.5" y2="71.5" id="Path-31" stroke="#F9E9B5" stroke-width="5"></line>
                    <line x1="20" y1="63.5769231" x2="29.5" y2="57.5" id="Path-31-Copy" stroke="#F9E9B5" stroke-width="5" transform="translate(25.000000, 60.500000) scale(1, -1) translate(-25.000000, -60.500000) "></line>
                    <path d="M76,123.537958 C76,122.769094 77.1350196,122 78.3123172,122 C79.4896149,122 89.2735223,122 95.2464602,122 C95.89946,122.053362 97.1326435,122.713961 97.1326435,123.537958 C97.1326435,124.361955 95.7274937,125.041474 95.2464602,125.041474 C94.9257712,125.041474 89.0829426,125.072733 77.7179744,125.135252 C76.5726581,124.760683 76,124.228252 76,123.537958 Z" id="Path-22" fill="#F8E9A1"></path>
                    <rect id="矩形" fill="#FFFFFF" x="58" y="0" width="1" height="15"></rect>
                </g>
            </g>
        </g>
    </g>
</svg>