<?xml version="1.0" encoding="UTF-8"?>
<svg width="54px" height="54px" viewBox="0 0 54 54" version="1.1" xmlns="http://www.w3.org/2000/svg" xmlns:xlink="http://www.w3.org/1999/xlink">
    <!-- Generator: Sketch 63.1 (92452) - https://sketch.com -->
    <title>sourcecode</title>
    <desc>Created with Sketch.</desc>
    <g id="V-Web-Final" stroke="none" stroke-width="1" fill="none" fill-rule="evenodd">
        <g id="documentation" transform="translate(-463.000000, -754.000000)">
            <g id="sourcecode" transform="translate(463.000000, 754.000000)">
                <g id="Group-9" transform="translate(7.171429, 11.571429)">
                    <path d="M19.7829333,33.5943249 L11.6575343,33.5943249 C10.928534,33.5936704 10.2669377,33.8888642 9.78756312,34.3667966 C9.30817283,34.8447447 9.01099047,35.5054448 9.00951642,36.235865 C9.00951337,36.9694638 9.30600959,37.6316011 9.78619327,38.1108551 C10.2649215,38.5886564 10.9262303,38.8846903 11.6575343,38.8846903 L26.4509898,38.8846903 C27.1513849,38.8855608 27.8250263,38.6073866 28.3220666,38.11122 C28.8188965,37.6155903 29.0983727,36.9426665 29.0992461,36.2407586 C29.0977154,35.5053501 28.8004684,34.844645 28.3209787,34.3666963 C27.841564,33.8888224 27.1799457,33.5936705 26.4496444,33.5943255 L19.7829333,33.5943249 Z M19.7829333,31.4986182 L35.9104176,31.4986182 C36.9357951,31.4986182 37.8682004,31.0720086 38.5424343,30.3746429 C39.1987393,29.6958212 39.6085714,28.7595141 39.6085714,27.7250494 L39.6085714,2.27333227 C39.6085714,1.2388309 39.1987241,0.302592446 38.5424112,-0.376166891 C37.8681925,-1.0734443 36.9358024,-1.5 35.9104176,-1.5 L2.19834306,-1.5 C1.17211544,-1.5 0.240017974,-1.07342697 -0.433896799,-0.376523818 C-1.09026718,0.302236466 -1.5,1.2385842 -1.5,2.27333227 L-1.5,27.7250494 C-1.5,28.7595098 -1.09012295,29.6958282 -0.43374909,30.3746627 C0.240535497,31.0720209 1.17299613,31.4986182 2.19834306,31.4986182 L19.7829333,31.4986182 Z" id="Path" stroke="#FFFFFF" stroke-width="3"></path>
                    <rect id="Rectangle" fill="#FFFFFF" x="11.4325714" y="30.4868571" width="14.82" height="5.08114286"></rect>
                    <rect id="Rectangle" fill="#3E6CDE" x="10.1622857" y="34.8622857" width="17.784" height="2.54057143" rx="1.27028571"></rect>
                    <path d="M36.8122456,1.28795162 L1.29646774,1.28795162 L1.29646774,28.7082537 L36.8122456,28.7082537 L36.8122456,1.28795162 Z" id="Path" stroke="#FFFFFF" stroke-width="2" fill="#FFFFFF"></path>
                    <rect id="Rectangle" fill="#F4D54B" x="1.27028571" y="1.27028571" width="30.4868571" height="21.5948571" rx="2"></rect>
                    <polygon id="Path" fill="#3E6CDE" points="15.9720761 35.0932367 13.4315047 35.0932367 13.4315047 29.2916265 15.9711809 29.2916265 15.9711809 35.0932367"></polygon>
                    <polygon id="Path" fill="#3E6CDE" points="24.2995047 35.0932367 21.7589333 35.0932367 21.7589333 29.2916265 24.2986094 29.2916265 24.2986094 35.0932367"></polygon>
                    <path d="M37.3122456,0.787951618 L0.796467743,0.787951618 L0.796467743,29.2082537 L37.3122456,29.2082537 L37.3122456,0.787951618 Z" id="Path" stroke="#3E6CDE" stroke-width="3" stroke-linejoin="round"></path>
                    <g id="Group-5" transform="translate(6.423684, 10.872364)" fill="#3E6CDE" stroke="#3E6CDE" stroke-width="0.5">
                        <path d="M4.49843419,9.31237827 C4.69485861,9.50348012 4.95915656,9.60844136 5.23329062,9.60426846 C5.50721178,9.60026588 5.76835876,9.48734206 5.95899222,9.29057699 C6.15009406,9.09479128 6.25522563,8.83083398 6.25105273,8.5573812 C6.24705015,8.28375811 6.13412633,8.0231221 5.93719094,7.83316993 L2.57549315,4.58158564 L5.88162322,1.82031726 C6.0915457,1.64535347 6.22311984,1.3938723 6.24722047,1.12173952 C6.27136368,0.849479002 6.18620243,0.578836548 6.01021671,0.369595355 C5.64312914,-0.0671966987 4.99194364,-0.124723123 4.55400191,0.240874125 L0.369092895,3.73563636 C0.145246548,3.92273563 0.0111601595,4.1961884 0.00068532569,4.48795085 C-0.00995983062,4.77967071 0.1038156,5.062108 0.31356776,5.26504726 L4.49843419,9.31237827 Z" id="Path"></path>
                        <path d="M19.3939885,1.82031726 L22.6991392,4.58158564 L19.3384634,7.83316993 C19.0342248,8.12459173 18.9385887,8.57219926 19.0972867,8.96257843 C19.2557718,9.35295761 19.6366555,9.60690846 20.0579908,9.6034524 C20.3264616,9.60375749 20.5845854,9.49930722 20.7773904,9.31237827 L24.9620866,5.26504726 C25.172009,5.062108 25.2857419,4.77967071 25.2750967,4.48795085 C25.2644516,4.1961884 25.1305781,3.92273563 24.9065188,3.73563636 L20.7218227,0.240874125 C20.2837107,-0.124723123 19.6325252,-0.0671966987 19.2654376,0.369595355 C19.0896222,0.578836548 19.0042906,0.849479002 19.0283913,1.12173952 C19.0525345,1.3938723 19.1841086,1.64535347 19.3939885,1.82031726 Z" id="Path"></path>
                        <path d="M10.0053013,9.47052271 C10.2440083,9.6059291 10.5267436,9.64067489 10.7910416,9.56701041 C11.0553395,9.49334593 11.2795691,9.3173602 11.4137832,9.07801451 L15.6650328,1.534729 C15.7987786,1.29657557 15.8323747,1.01494731 15.758327,0.752139692 C15.6843219,0.489204331 15.5086768,0.266465081 15.2703104,0.132889659 C14.7730113,-0.146524404 14.1431161,0.0289503531 13.8619988,0.525440444 L9.61074922,8.06868337 C9.47704606,8.30687939 9.44344994,8.58850764 9.51745507,8.85127268 C9.5914602,9.11425062 9.76693495,9.33698987 10.0053013,9.47052271 Z" id="Path"></path>
                    </g>
                </g>
            </g>
        </g>
    </g>
</svg>