<?xml version="1.0" encoding="UTF-8"?>
<svg width="54px" height="54px" viewBox="0 0 54 54" version="1.1" xmlns="http://www.w3.org/2000/svg" xmlns:xlink="http://www.w3.org/1999/xlink">
    <!-- Generator: Sketch 63.1 (92452) - https://sketch.com -->
    <title>guide</title>
    <desc>Created with Sketch.</desc>
    <g id="V-Web-Final" stroke="none" stroke-width="1" fill="none" fill-rule="evenodd">
        <g id="documentation" transform="translate(-939.000000, -345.000000)">
            <g id="guide" transform="translate(939.000000, 345.000000)">
                <path d="M8.17142857,13.1142857 L22.8939566,13.1142857 C23.2485678,13.1142857 23.596803,13.208569 23.9029764,13.3874738 L26.0379423,14.6349883 C26.6360349,14.9844689 27.3723819,14.9995763 27.9843055,14.6749213 L30.4862085,13.3475409 C30.7749057,13.1943731 31.0967393,13.1142857 31.4235519,13.1142857 L45.8285714,13.1142857 C46.9331409,13.1142857 47.8285714,14.0097162 47.8285714,15.1142857 L47.8285714,42.3571429 C47.8285714,43.4617124 46.9331409,44.3571429 45.8285714,44.3571429 L31.6182109,44.3571429 C31.1696992,44.3571429 30.7342051,44.5079007 30.3816874,44.7851983 L28.297965,46.4242966 C27.544486,47.0169984 26.4764116,46.9916898 25.7518513,46.3639649 L23.9991765,44.84553 C23.6355884,44.5305344 23.1706461,44.3571429 22.6895863,44.3571429 L8.17142857,44.3571429 C7.06685907,44.3571429 6.17142857,43.4617124 6.17142857,42.3571429 L6.17142857,15.1142857 C6.17142857,14.0097162 7.06685907,13.1142857 8.17142857,13.1142857 Z" id="Rectangle-Copy-4" stroke="#FFFFFF" stroke-width="5" fill="#FFFFFF" stroke-linejoin="round"></path>
                <path d="M22.6232106,13.8642857 L9.17142857,13.8642857 C8.55010823,13.8642857 7.98760823,14.1161255 7.58043831,14.5232955 C7.1732684,14.9304654 6.92142857,15.4929654 6.92142857,16.1142857 L6.92142857,41.3571429 C6.92142857,41.9784632 7.1732684,42.5409632 7.58043831,42.9481331 C7.98760823,43.355303 8.55010823,43.6071429 9.17142857,43.6071429 L22.316655,43.6071429 C23.2186422,43.6071429 24.090409,43.9322519 24.7721367,44.5228687 L25.7088207,45.3343677 C26.0902783,45.6648445 26.5621604,45.836745 27.0378486,45.8480168 C27.5135369,45.8592885 27.9930314,45.7099314 28.3897137,45.397893 L29.6459059,44.4097468 C30.3068767,43.8898138 31.1234281,43.6071429 31.9643874,43.6071429 L44.8285714,43.6071429 C45.4498918,43.6071429 46.0123918,43.355303 46.4195617,42.9481331 C46.8267316,42.5409632 47.0785714,41.9784632 47.0785714,41.3571429 L47.0785714,16.1142857 C47.0785714,15.4929654 46.8267316,14.9304654 46.4195617,14.5232955 C46.0123918,14.1161255 45.4498918,13.8642857 44.8285714,13.8642857 L31.672399,13.8642857 C31.3047348,13.8642857 30.942672,13.954384 30.6178876,14.1266978 L28.827962,15.0763398 C27.6806052,15.685068 26.2999547,15.6567416 25.1785311,15.0014655 L23.7583577,14.1716224 C23.4139127,13.9703544 23.0221481,13.8642857 22.6232106,13.8642857 Z" id="Rectangle-Copy-4" stroke="#3E6CDE" stroke-width="1.5" fill="#FFFFFF"></path>
                <rect id="Rectangle" fill="#F9D84B" x="7.09714286" y="15.1971429" width="34.7142857" height="22.7220779" rx="3"></rect>
                <path d="M22.8939566,14.6142857 L7.67142857,15.1142857 L8.17142857,42.8571429 L22.6895863,42.8571429 C23.531441,42.8571429 24.34509,43.160578 24.9813692,43.7118203 L27.3705724,45.2453381 L29.4542948,43.6062399 C30.0712008,43.1209691 30.8333155,42.8571429 31.6182109,42.8571429 L46.3285714,42.3571429 L45.8285714,14.6142857 L31.1892161,14.6725995 L28.6873131,15.9999799 C27.6164467,16.5681262 26.3278396,16.5416882 25.2811775,15.9300972 L22.8939566,14.6142857 Z" id="Rectangle-Copy-4" stroke="#3E6CDE" stroke-width="3"></path>
                <path d="M15.5442857,33.9428571 C29.5457143,33.9428571 37.1828571,33.9428571 38.4557143,33.9428571" id="Path-4" stroke="#3E6CDE" stroke-width="3" stroke-linecap="round" transform="translate(27.000000, 33.942857) rotate(90.000000) translate(-27.000000, -33.942857) "></path>
                <path d="M15.5442857,27.6942857 C29.5457143,27.6942857 37.1828571,27.6942857 38.4557143,27.6942857" id="Path-4" stroke="#3E6CDE" stroke-width="3" stroke-linecap="round" transform="translate(27.000000, 27.694286) rotate(90.000000) translate(-27.000000, -27.694286) "></path>
                <path d="M13.4614286,25.6114286 C18.5528571,25.6114286 21.33,25.6114286 21.7928571,25.6114286" id="Path-4" stroke="#3E6CDE" stroke-width="3" stroke-linecap="round"></path>
                <path d="M13.4614286,31.86 C18.5528571,31.86 21.33,31.86 21.7928571,31.86" id="Path-4" stroke="#3E6CDE" stroke-width="3" stroke-linecap="round"></path>
                <path d="M32.2071429,25.6114286 C37.2985714,25.6114286 40.0757143,25.6114286 40.5385714,25.6114286" id="Path-4" stroke="#3E6CDE" stroke-width="3" stroke-linecap="round"></path>
                <path d="M32.2071429,31.86 C37.2985714,31.86 40.0757143,31.86 40.5385714,31.86" id="Path-4" stroke="#3E6CDE" stroke-width="3" stroke-linecap="round"></path>
            </g>
        </g>
    </g>
</svg>