<?xml version="1.0" encoding="UTF-8"?>
<svg width="198px" height="150px" viewBox="0 0 198 150" version="1.1" xmlns="http://www.w3.org/2000/svg" xmlns:xlink="http://www.w3.org/1999/xlink">
    <!-- Generator: Sketch 63.1 (92452) - https://sketch.com -->
    <title>Group 51</title>
    <desc>Created with Sketch.</desc>
    <defs>
        <rect id="path-1" x="0" y="0" width="548.076923" height="150"></rect>
        <rect id="path-3" x="7" y="0" width="548.076923" height="150" rx="4"></rect>
    </defs>
    <g id="V3-最新稿件" stroke="none" stroke-width="1" fill="none" fill-rule="evenodd">
        <g id="documentation" transform="translate(-963.000000, -329.000000)">
            <g id="guide-copy" transform="translate(963.000000, 329.000000)">
                <g id="Group-51">
                    <g id="Group-3">
                        <g id="Fill-1">
                            <mask id="mask-2" fill="white">
                                <use xlink:href="#path-1"></use>
                            </mask>
                            <g id="Mask"></g>
                            <path d="M27.3992787,23.7899486 C42.3182138,0.00356946879 49.0316683,-29.7295145 82.9720579,-28.9863414 C116.913331,-28.2431683 150,-44 139.042032,36.1392062 C129.367687,106.890858 215,72 194,159.562938 C185.513688,194.948006 161.36237,189.181383 74.8319281,163.907778 C-11.6980719,138.635052 -48.9364615,183.978291 -62.861007,142.351358 C-69.3907732,122.831294 -45.8283317,114.971875 -43.2173966,96.7603944 C-40.6069031,78.5489135 -39.238955,56.6620479 -22.1652148,50.9217067 C-10.6317083,47.0439184 12.4799021,47.5767678 27.3992787,23.7899486 Z" fill="#5C76E9" mask="url(#mask-2)"></path>
                            <circle id="Oval" fill="#D0D7F6" style="mix-blend-mode: multiply;" mask="url(#mask-2)" cx="22.5" cy="96.5" r="7.5"></circle>
                            <polygon id="Path-10" stroke="#F2D354" stroke-width="3" mask="url(#mask-2)" points="71.6956522 129.268372 48.5438793 117 52 136.360857"></polygon>
                            <polygon id="Path-11" fill="#D0D7F6" style="mix-blend-mode: multiply;" mask="url(#mask-2)" points="160 95.9074825 176 84.1044292 175.404382 101.84778"></polygon>
                        </g>
                    </g>
                    <mask id="mask-4" fill="white">
                        <use xlink:href="#path-3"></use>
                    </mask>
                    <g id="Mask"></g>
                    <path d="M29,163 C29,163 29.489516,147.772988 29.489516,146.687433 C29.489516,143.800578 145.919815,145.330574 148.716837,146.087672 C151.513858,146.845106 150.954305,163 150.954305,163 L29,163 Z" id="Fill-4" fill="#4B63E3" mask="url(#mask-4)"></path>
                    <path d="M44,148.555815 C44,148.555815 44.3691432,139.626175 44.3691432,138.989569 C44.3691432,137.296618 132.169041,138.19386 134.27827,138.637848 C136.3875,139.082033 135.965541,148.555815 135.965541,148.555815 L44,148.555815 Z" id="Fill-4" fill="#4B63E3" mask="url(#mask-4)"></path>
                    <path d="M59.5,168.081247 L78,168.081247 L87.6970938,121.832255 C94.4585829,126.623525 98.2262183,129.8961 99,131.649979 C99.9436178,133.788816 99.2769511,139.664792 97,149.277907 C97,152.70093 106.453432,151.277907 110.226716,150.277907 C114,149.277907 117.134264,130.470684 115.406991,123.188896 C113.679718,115.907108 89.9090909,94.3213818 89.9090909,101.091927 C89.9090909,107.862471 85.9746054,101.091927 80.0800882,101.091927 C74.1860163,101.091927 73,103.452725 73,103.452725 L59.5,168.081247 Z" id="Fill-18" stroke="#F2B941" stroke-width="2" fill="#FFFFFF" mask="url(#mask-4)"></path>
                    <g id="Group-32" transform="translate(45.000000, 59.000000)">
                        <path d="M69.4062616,-0.75 L-0.75,-0.75 L-0.75,20.7540294 L69.4718579,20.3777659 C69.4836533,20.0772174 69.4920201,19.827668 69.4945172,19.641723 C69.4986058,19.3372703 69.491543,18.8619436 69.4825548,18.2713403 C69.4722545,17.5945149 69.4595804,16.7631587 69.4595804,15.8644569 L69.4598806,3.89253825 C69.4618472,3.08830851 69.4731822,2.34452945 69.4825548,1.72865965 C69.4945022,0.943609738 69.5026289,0.359060347 69.4062616,-0.75 Z" id="Fill-20" stroke="#4B63E3" stroke-width="1.5" fill="#FFFEF9" opacity="0.6"></path>
                        <path d="M22.0306135,7.5 C21.098772,7.5 41.756511,7.5 40.8246695,7.5 L22.0306135,7.5 Z" id="Fill-22" stroke="#3E6CDE" stroke-width="3"></path>
                        <path d="M22.0194833,12.5 C21.4264347,12.5 34.5735653,12.5 33.9805167,12.5 L22.0194833,12.5 Z" id="Fill-22" stroke="#3E6CDE" stroke-width="3"></path>
                        <path d="M52,14.1445455 C52,14.1445455 52,5 52,5 L62.7954545,5 C62.7954545,5 62.7954545,14.1445455 62.7954545,14.1445455 C62.7954545,14.1445455 59.1969697,14.1445455 52,14.1445455 Z" id="Fill-26" fill="#3E6CDE"></path>
                        <circle id="Oval" fill="#3E6CDE" cx="9.75" cy="9.75" r="5.75"></circle>
                        <g id="Group-8" transform="translate(6.000000, 7.000000)" fill="#BDC7F1">
                            <path d="M4,0.888811554 C3.97560796,0.885255812 3.7072987,0 2.87826023,0 L0.624398736,0 C0.102467945,0 0,0.300983058 0,0.672453462 L0,5.32733738 C0,5.69880778 0.102467945,6 0.624398736,6 L3.11612534,6 C3.60323727,5.81430269 4,5.68830221 4,5.19002941 L4,0.888811554 Z" id="Fill-28"></path>
                            <path d="M7.5,0.888811554 C7.47560796,0.885255812 7.2072987,0 6.37826023,0 L4.12439874,0 C3.60246794,0 3.5,0.300983058 3.5,0.672453462 L3.5,5.32733738 C3.5,5.69880778 3.60246794,6 4.12439874,6 L6.61612534,6 C7.10323727,5.81430269 7.5,5.68830221 7.5,5.19002941 L7.5,0.888811554 Z" id="Fill-28-Copy" transform="translate(5.500000, 3.000000) scale(-1, 1) translate(-5.500000, -3.000000) "></path>
                        </g>
                        <polyline id="Path-8" stroke="#5C76E9" stroke-width="2" points="54 8.5 56.1726534 12 61.1730497 7"></polyline>
                    </g>
                    <g id="Group-32-Copy" transform="translate(35.000000, 27.000000)">
                        <path d="M90.3711919,-0.75 L-0.75,-0.75 L-0.75,26.8369565 L90.3711919,26.8369565 L90.3711919,-0.75 Z" id="Fill-20" stroke="#4B63E3" stroke-width="1.5" fill="#F5FAFD"></path>
                        <path d="M28.7355829,9.7826087 C27.5201374,9.7826087 54.4650143,9.7826087 53.2495689,9.7826087 L28.7355829,9.7826087 Z" id="Fill-22" stroke="#3E6CDE" stroke-width="3"></path>
                        <path d="M28.7210651,16.3043478 C27.9475236,16.3043478 45.0959547,16.3043478 44.3224131,16.3043478 L28.7210651,16.3043478 Z" id="Fill-22" stroke="#3E6CDE" stroke-width="3"></path>
                        <path d="M66.6736789,18.4597584 C66.6736789,18.4597584 66.6736789,6.53209037 66.6736789,6.53209037 L80.7547066,6.53209037 C80.7547066,6.53209037 80.7547066,18.4597584 80.7547066,18.4597584 C80.7547066,18.4597584 76.0610307,18.4597584 66.6736789,18.4597584 Z" id="Fill-26" fill="#3E6CDE"></path>
                        <circle id="Oval" fill="#3E6CDE" cx="12.7173913" cy="12.7173913" r="7.5"></circle>
                        <g id="Group-8" transform="translate(7.826087, 9.130435)" fill="#FFFEF9">
                            <path d="M5.2173913,1.15931942 C5.18557561,1.15468149 4.835607,0 3.75425247,0 L0.814433134,0 C0.133653841,0 0,0.392586597 0,0.877113211 L0,6.94870093 C0,7.43322754 0.133653841,7.82608696 0.814433134,7.82608696 L4.06451132,7.82608696 C4.6998747,7.58387308 5.2173913,7.41952462 5.2173913,6.76960358 L5.2173913,1.15931942 Z" id="Fill-28"></path>
                            <path d="M9.7826087,1.15931942 C9.750793,1.15468149 9.40082439,0 8.31946987,0 L5.37965053,0 C4.69887123,0 4.56521739,0.392586597 4.56521739,0.877113211 L4.56521739,6.94870093 C4.56521739,7.43322754 4.69887123,7.82608696 5.37965053,7.82608696 L8.62972871,7.82608696 C9.26509209,7.58387308 9.7826087,7.41952462 9.7826087,6.76960358 L9.7826087,1.15931942 Z" id="Fill-28-Copy" transform="translate(7.173913, 3.913043) scale(-1, 1) translate(-7.173913, -3.913043) "></path>
                        </g>
                        <polyline id="Path-8" stroke="#FFFEF9" stroke-width="2" points="69.4347826 11.7826087 72.2686783 16.3478261 78.7909344 9.82608696"></polyline>
                    </g>
                    <path d="M59.772849,87.4958772 C58.8146892,87.6648266 57.1456109,98.2746969 57.1456109,99.8506387 C57.1456109,100.858685 57.6089038,109.038265 58.0275534,115.750021 C58.263405,119.531177 57.8239616,121.264156 59.3751989,123.392899 C62.733342,128.001234 61.6127766,121.404471 61.6127766,121.218026 C61.6127766,121.03114 63.5720723,121.322445 63.6665418,120.855892 C63.7605657,120.389339 60.990647,118.2923 61.0530325,118.04356 C61.1158637,117.79482 61.48756,109.493674 61.48756,108.498272 C61.48756,107.503313 62.5616497,100.15162 62.5616497,100.15162 L66.1402431,88.5797486 L59.772849,87.4958772 Z" id="Fill-47" stroke="#F2B941" stroke-width="2" fill="#F5FAFD" transform="translate(61.642927, 106.260289) rotate(10.000000) translate(-61.642927, -106.260289) "></path>
                    <path d="M95.358283,67.5 C95.358283,67.5 101.488546,60.5714719 102.881492,57.4421105 C104.274438,54.3127492 107.06033,45.7485738 107.06033,45.7485738 C107.06033,45.7485738 105.913147,41.3842268 105.666948,40.9722725 C105.421621,40.5603181 106.13752,39.7298287 107.06033,40.9722725 C107.983141,42.2147162 107.408676,43.7721581 108.176957,43.1956852 C108.944802,42.6192124 109.221558,40.9784145 108.699039,40.316392 C108.176957,39.6548083 109.927852,40.0663239 110.174052,41.2192696 C110.419814,42.3722153 112.632115,42.6192124 112.222219,43.6896795 C111.812761,44.7601466 110.174052,48.2189837 110.174052,48.2189837 C110.174052,48.2189837 108.125447,61.6853719 105.339555,65.7812246 C102.553663,69.8770774 99,73.1524814 99,73.1524814 L95.358283,67.5 Z" id="Fill-49" stroke="#F2B941" stroke-width="2" fill="#F5FAFD"></path>
                    <path d="M83.5446427,64.9149029 C82.8626275,67.3532483 80.7315348,68.4782264 79.9437352,69.0305448 C79.1559355,69.5828631 80.4393545,72.4146633 81.8354632,74.1352545 C83.2309522,75.8558457 75.9929161,79.2995435 74.1610967,79.2995435 C73.9778453,77.0690299 73.9778453,75.6058598 74.1610967,74.9100332 C74.3849163,74.0601647 74.3849163,72.3173481 74.1610967,69.6815834 C74.1610967,69.6815834 68.3410455,67.0503167 69.8509594,60.2744053 C70.9088662,55.5269276 76.4689987,54.6374432 79.2805907,55.7023122 C81.8354632,56.6699506 83.9787872,63.3627462 83.5446427,64.9149029 Z" id="Fill-1" stroke="#F2B941" stroke-width="2" fill="#F5FAFD"></path>
                    <path d="M99,101.038825 C98.7918693,99.8585694 96.1291185,93.2995371 91.0117474,81.3617285 C97.8092364,76.7872428 100.8816,74.0508271 100.228838,73.1524814 C99.257222,71.8153204 96.8831538,68.75 94.150648,67.5 C92.6517167,66.8143056 91.3098981,67.3143056 90.1251921,69 L86.8033691,72 C77.389962,74.1297072 71.8560759,75.5997412 70.2017108,76.4101018 C67.7201631,77.6256427 63.6956522,80.9723264 60.5,87 C59.8415316,88.2420103 63.2805323,92.1743135 67.7201631,94.0542092 C68.2465937,94.2771184 70.2017108,90.9622446 70.2017108,88.7540569 C70.2017108,88.1967126 67.7201631,98 69.3303246,110.122151 C69.5151888,111.513906 99.312196,102.809209 99,101.038825 Z" id="Fill-45" stroke="#F2B941" stroke-width="2" fill="#F2D354"></path>
                    <path d="M80.3702937,56.5854623 C80.0638658,56.5854623 77,58.405727 77.0196842,61.3636364 C77.0393684,64.3215458 77.7433832,66.2727273 77,67.6363636 C76.5044112,68.5454545 75.4051709,69.2077987 73.7022792,69.6233962" id="Path-9" stroke="#F2B941" stroke-width="2"></path>
                </g>
            </g>
        </g>
    </g>
</svg>