<?xml version="1.0" encoding="UTF-8"?>
<svg width="182px" height="150px" viewBox="0 0 182 150" version="1.1" xmlns="http://www.w3.org/2000/svg" xmlns:xlink="http://www.w3.org/1999/xlink">
    <!-- Generator: Sketch 63.1 (92452) - https://sketch.com -->
    <title>编组 3</title>
    <desc>Created with Sketch.</desc>
    <defs>
        <rect id="path-1" x="-100" y="0" width="1000" height="1000"></rect>
        <polygon id="path-3" points="1.03126146 0.0414634146 47.6979281 0.0414634146 47.6979281 51.1525745 1.03126146 51.1525745"></polygon>
        <polygon id="path-5" points="0 1.06875017 42.2222222 1.06875017 42.2222222 32.1798613 0 32.1798613"></polygon>
        <polygon id="path-7" points="0 0 45.5555556 0 45.5555556 55.5555556 0 55.5555556"></polygon>
        <path d="M1.02516454,36.6177128 C-2.85528455,57.734904 8.76716996,78.6693099 28.6451413,86.3669221 L28.6451413,86.3669221 C29.5566396,86.7196825 30.5793264,86.2603754 30.929307,85.3411362 L30.929307,85.3411362 L30.929307,85.3411362 L40.852652,59.2531171 C41.2020132,58.3335656 40.7470383,57.302468 39.8358498,56.9493951 L39.8358498,56.9493951 C33.9914828,54.6859797 30.5938831,48.5646969 31.7345722,42.3568645 L31.7345722,42.3568645 C32.875571,36.1484071 38.2228417,31.6646948 44.4837786,31.6646948 L44.4837786,31.6646948 C50.744096,31.6646948 56.0901278,36.1484071 57.2311266,42.3568645 L57.2311266,42.3568645 C58.3724352,48.5653218 54.9745257,54.6869171 49.1301587,56.9493951 L49.1301587,56.9493951 C48.2192799,57.302468 47.7639954,58.3335656 48.1133566,59.2531171 L48.1133566,59.2531171 L58.0363918,85.3411362 C58.3866822,86.2603754 59.4090592,86.7196825 60.3208672,86.3669221 L60.3208672,86.3669221 L60.3211769,86.3669221 C80.1997677,78.6696223 91.8212931,57.734904 87.940844,36.6177128 L87.940844,36.6177128 C84.0607046,15.500209 65.7756098,0.165912977 44.4834688,0.165912977 L44.4834688,0.165912977 C23.1919473,0.165912977 4.90530391,15.500209 1.02516454,36.6177128 L1.02516454,36.6177128 Z M4.5023616,37.2676167 C8.07619048,17.8173665 24.8727836,3.73257331 44.4837786,3.73257331 L44.4837786,3.73257331 L44.4840883,3.73257331 C64.0950832,3.73257331 80.8907472,17.817679 84.4645761,37.2676167 L84.4645761,37.2676167 C87.9296942,56.1267042 77.974758,74.7464522 60.6758033,82.3247071 L60.6758033,82.3247071 L51.990089,59.4937066 C58.3993806,56.172635 62.0450639,48.987447 60.7070848,41.7063356 L60.7070848,41.7063356 C59.2597755,33.8296873 52.4249322,28.0986594 44.4840883,28.0986594 L44.4840883,28.0986594 C36.5432443,28.0986594 29.7065428,33.8296873 28.2598529,41.7063356 L28.2598529,41.7063356 C26.9215641,48.987447 30.5675571,56.1716976 36.9768486,59.4937066 L36.9768486,59.4937066 L28.2911343,82.3237697 C10.9931088,74.7452024 1.03755323,56.1267042 4.5023616,37.2676167 L4.5023616,37.2676167 Z" id="path-9"></path>
    </defs>
    <g id="V3-最新稿件" stroke="none" stroke-width="1" fill="none" fill-rule="evenodd">
        <g id="documentation" transform="translate(-390.000000, -850.000000)">
            <g id="Group-Copy-8" transform="translate(389.000000, 850.000000)">
                <g id="编组-3" transform="translate(0.714910, 0.000000)">
                    <g id="Path-16">
                        <mask id="mask-2" fill="white">
                            <use xlink:href="#path-1"></use>
                        </mask>
                        <path d="M-48.9976621,101.789697 C-18.6004607,141.86662 -43.2005336,150.215185 -14.6995901,173.469393 C13.8013533,196.7236 61.4825744,150.916344 84.9195374,168.220858 C108.3565,185.525372 129.633013,193.476031 146.01025,169.066321 C156.928407,152.793181 168.990963,107.872532 182.197919,34.3043756 L74.9195374,10.2556946 C-27.9567299,44.5604144 -69.262463,75.0717487 -48.9976621,101.789697 Z" fill="#5C76E9" mask="url(#mask-2)" transform="translate(64.098959, 97.356387) rotate(180.000000) translate(-64.098959, -97.356387) "></path>
                    </g>
                    <g id="Group-19" transform="translate(15.285090, 19.000000)">
                        <g id="Group-20" transform="translate(38.888889, 65.555556)">
                            <g id="Group-6" transform="translate(2.222222, 2.222222)">
                                <mask id="mask-4" fill="white">
                                    <use xlink:href="#path-3"></use>
                                </mask>
                                <g id="Clip-5"></g>
                                <polygon id="Fill-4" stroke="#4B63E3" stroke-width="2" fill="#BDC8F1" opacity="0.6" mask="url(#mask-4)" points="11.3961066 41.011206 6.78131929 35.7464363 14.4244007 12.3212331 36.5607823 7.81920054 41.0312615 12.9315312 34.8303651 36.5857317"></polygon>
                            </g>
                            <path d="M14.0335281,23.3333333 C14.0335281,23.3333333 13.365935,23.9450249 13.6527528,24.3025017 C13.9395706,24.6599785 17.8416617,29.4032376 18.2701131,29.3011984 C18.6984378,29.1991592 18.8888889,28.8420901 18.8888889,28.8420901 L17.6036612,33.024881 C17.6036612,33.024881 17.5796964,33.8918743 16.2350003,32.7187635 C14.8904311,31.5456527 12.1293979,29.0997016 12.2246235,28.3332529 C12.2834579,27.8598781 12.7751817,25.6833594 13.2837697,24.3789971 C13.5984831,23.5719229 14.0335281,23.3333333 14.0335281,23.3333333" id="Fill-11" fill="#4B63E3"></path>
                            <path d="M26.6666667,12.2916791 C26.6666667,12.2916791 27.0782373,12.0165466 27.418247,11.9247923 C27.7582567,11.8329077 31.116663,11.0326642 31.3727825,11.1173806 C31.628902,11.2022272 35.4168009,15.9429526 35.4705669,16.1448381 C35.5242058,16.3465933 35.6314836,16.7319874 35.4705669,16.7869878 C35.3093959,16.8421186 31.2832996,17.7777778 31.2832996,17.7777778 C31.2832996,17.7777778 31.6412313,17.6126461 31.6769482,17.2457593 C31.7127922,16.8787421 27.9728124,12.2550556 27.5613689,12.2183017 C27.1497982,12.1815479 26.6666667,12.2916791 26.6666667,12.2916791" id="Fill-13" fill="#4B63E3"></path>
                            <g id="Group-17">
                                <mask id="mask-6" fill="white">
                                    <use xlink:href="#path-5"></use>
                                </mask>
                                <g id="Clip-16"></g>
                                <path d="M21.1329139,13.3333333 C21.1329139,13.3333333 21.0052144,11.2418907 21.367914,11.1355056 C21.7304956,11.0292464 26.4117488,9.43409967 26.6109034,10.2139212 C26.810058,10.9937428 26.4117488,12.3408675 26.4117488,12.3408675 L21.1329139,13.3333333 Z" id="Fill-18" stroke="#4B63E3" stroke-width="2" fill="#97A6ED" mask="url(#mask-6)"></path>
                                <path d="M14.4030159,18.8016763 C14.4030159,18.8016763 10.2849887,16.4348647 9.64655329,19.4138502 C9.00800454,22.3925459 8.62489796,24.1471836 9.10380952,24.3512415 C9.58260771,24.5552995 13.2114059,24.0792126 13.2114059,24.0792126 L14.4030159,18.8016763 Z" id="Fill-15" stroke="#4B63E3" stroke-width="2" fill="#BDC8F1" opacity="0.6" mask="url(#mask-6)"></path>
                            </g>
                            <polyline id="Path-37" stroke="#526AE5" stroke-width="2" points="42.7777778 15 22.7777778 19.4295183 14.4444444 42.2220742"></polyline>
                            <g id="Group-3" transform="translate(8.888889, 17.777778)">
                                <mask id="mask-8" fill="white">
                                    <use xlink:href="#path-7"></use>
                                </mask>
                                <g id="Clip-2"></g>
                                <polygon id="Fill-1" stroke="#4B63E3" stroke-width="2" fill="#BDC8F1" mask="url(#mask-8)" points="4.57106667 13.185419 4.57106667 30.586691 22.6106807 41.1110456 41.0125871 30.5129723 41.0125871 13.185419 22.7918269 2.34641788"></polygon>
                                <polyline id="Path-35" stroke="#4B63E3" stroke-width="2.5" mask="url(#mask-8)" points="4.57106667 13.185419 22.7918269 24.4442964 41.0125614 13.185419"></polyline>
                                <polyline id="Path-35" stroke="#4B63E3" stroke-width="2.5" mask="url(#mask-8)" transform="translate(22.838055, 20.247473) scale(1, -1) translate(-22.838055, -20.247473) " points="18.0082096 18.7981042 22.7918269 21.7539722 27.6678998 18.7409746"></polyline>
                                <line x1="22.7918269" y1="23.7370922" x2="22.7918269" y2="41.1110456" id="Path-36" stroke="#4B63E3" stroke-width="2" mask="url(#mask-8)"></line>
                                <line x1="22.7777778" y1="2.22222222" x2="22.7777778" y2="19.5961756" id="Path-36-Copy" stroke="#4B63E3" stroke-width="2" mask="url(#mask-8)"></line>
                            </g>
                            <path d="M24.4444444,36.5655511 L20.7565467,34.4444444 C20.7565467,34.4444444 20,34.937832 20,35.5050634 L20,52.105091 L23.9119524,54.4444444 C23.9119524,54.4444444 23.6878977,37.4535173 23.8770659,37.1576161 C24.0661081,36.8615836 24.4444444,36.5655511 24.4444444,36.5655511" id="Fill-7" fill="#4B63E3"></path>
                            <path d="M38.8888889,36.5655511 L42.5767866,34.4444444 C42.5767866,34.4444444 43.3333333,34.9377006 43.3333333,35.5050634 L43.3333333,52.1049596 L39.4213809,54.4444444 C39.4213809,54.4444444 39.6454356,37.4533859 39.4562675,37.1574847 C39.2672252,36.8614522 38.8888889,36.5655511 38.8888889,36.5655511" id="Fill-9" fill="#4B63E3"></path>
                        </g>
                        <g id="Group-22">
                            <g id="Group-3" transform="translate(24.444444, 5.555556)">
                                <path d="M4.5023616,37.2676167 C8.07619048,17.8173665 24.8727836,3.73257331 44.4837786,3.73257331 L44.4837786,3.73257331 L44.4840883,3.73257331 C64.0950832,3.73257331 80.8907472,17.817679 84.4645761,37.2676167 L84.4645761,37.2676167 C87.9296942,56.1267042 77.974758,74.7464522 60.6758033,82.3247071 L60.6758033,82.3247071 L51.990089,59.4937066 C58.3993806,56.172635 62.0450639,48.987447 60.7070848,41.7063356 L60.7070848,41.7063356 C59.2597755,33.8296873 52.4249322,28.0986594 44.4840883,28.0986594 L44.4840883,28.0986594 C36.5432443,28.0986594 29.7065428,33.8296873 28.2598529,41.7063356 L28.2598529,41.7063356 C26.9215641,48.987447 30.5675571,56.1716976 36.9768486,59.4937066 L36.9768486,59.4937066 L28.2911343,82.3237697 C10.9931088,74.7452024 1.03755323,56.1267042 4.5023616,37.2676167 L4.5023616,37.2676167 Z" id="Path" fill="#F5FAFD"></path>
                                <mask id="mask-10" fill="white">
                                    <use xlink:href="#path-9"></use>
                                </mask>
                                <g id="Clip-2"></g>
                                <path d="M1.02516454,36.6177128 C-2.85528455,57.734904 8.76716996,78.6693099 28.6451413,86.3669221 L28.6451413,86.3669221 C29.5566396,86.7196825 30.5793264,86.2603754 30.929307,85.3411362 L30.929307,85.3411362 L30.929307,85.3411362 L40.852652,59.2531171 C41.2020132,58.3335656 40.7470383,57.302468 39.8358498,56.9493951 L39.8358498,56.9493951 C33.9914828,54.6859797 30.5938831,48.5646969 31.7345722,42.3568645 L31.7345722,42.3568645 C32.875571,36.1484071 38.2228417,31.6646948 44.4837786,31.6646948 L44.4837786,31.6646948 C50.744096,31.6646948 56.0901278,36.1484071 57.2311266,42.3568645 L57.2311266,42.3568645 C58.3724352,48.5653218 54.9745257,54.6869171 49.1301587,56.9493951 L49.1301587,56.9493951 C48.2192799,57.302468 47.7639954,58.3335656 48.1133566,59.2531171 L48.1133566,59.2531171 L58.0363918,85.3411362 C58.3866822,86.2603754 59.4090592,86.7196825 60.3208672,86.3669221 L60.3208672,86.3669221 L60.3211769,86.3669221 C80.1997677,78.6696223 91.8212931,57.734904 87.940844,36.6177128 L87.940844,36.6177128 C84.0607046,15.500209 65.7756098,0.165912977 44.4834688,0.165912977 L44.4834688,0.165912977 C23.1919473,0.165912977 4.90530391,15.500209 1.02516454,36.6177128 L1.02516454,36.6177128 Z M4.5023616,37.2676167 C8.07619048,17.8173665 24.8727836,3.73257331 44.4837786,3.73257331 L44.4837786,3.73257331 L44.4840883,3.73257331 C64.0950832,3.73257331 80.8907472,17.817679 84.4645761,37.2676167 L84.4645761,37.2676167 C87.9296942,56.1267042 77.974758,74.7464522 60.6758033,82.3247071 L60.6758033,82.3247071 L51.990089,59.4937066 C58.3993806,56.172635 62.0450639,48.987447 60.7070848,41.7063356 L60.7070848,41.7063356 C59.2597755,33.8296873 52.4249322,28.0986594 44.4840883,28.0986594 L44.4840883,28.0986594 C36.5432443,28.0986594 29.7065428,33.8296873 28.2598529,41.7063356 L28.2598529,41.7063356 C26.9215641,48.987447 30.5675571,56.1716976 36.9768486,59.4937066 L36.9768486,59.4937066 L28.2911343,82.3237697 C10.9931088,74.7452024 1.03755323,56.1267042 4.5023616,37.2676167 L4.5023616,37.2676167 Z" id="Fill-1" fill="#4B63E3" mask="url(#mask-10)"></path>
                            </g>
                            <g id="Group-21" fill="#D0D7F6">
                                <polygon id="Fill-11" stroke="#D0D7F6" stroke-width="2" style="mix-blend-mode: multiply;" points="0 38.8891177 5.55555556 33.3333333 11.1111111 38.8891177 5.55555556 44.4444444"></polygon>
                                <path d="M121.625752,50.6626361 L122.97781,49.3014976 L124.329575,50.6626361 L122.97781,52.0237747 L121.625752,50.6626361 Z M123.847974,10.4126087 L125.290552,11.8543321 L133.848434,20.4126087 L143.847974,10.4126087 L133.848434,0.412608669 L123.847974,10.4126087 Z" id="Fill-17" style="mix-blend-mode: multiply;"></path>
                            </g>
                            <path d="M21.1111111,105.597019 C22.3846881,97.6574395 26.8673501,93.555424 34.5590971,93.2909724" id="Path-38-Copy-2" stroke="#4B63E3" stroke-width="4" transform="translate(27.835104, 99.443996) scale(-1, 1) translate(-27.835104, -99.443996) "></path>
                            <path d="M102.222222,109.957639 C103.650471,99.5960152 109.92015,92.9434688 121.031261,90" id="Path-38" stroke="#4B63E3" stroke-width="4"></path>
                        </g>
                    </g>
                    <rect id="矩形" fill="#FFFFFF" x="50.2850898" y="0" width="1" height="1"></rect>
                </g>
            </g>
        </g>
    </g>
</svg>
