<?xml version="1.0" encoding="UTF-8"?>
<svg width="54px" height="54px" viewBox="0 0 54 54" version="1.1" xmlns="http://www.w3.org/2000/svg" xmlns:xlink="http://www.w3.org/1999/xlink">
    <!-- Generator: Sketch 63.1 (92452) - https://sketch.com -->
    <title>bsd</title>
    <desc>Created with Sketch.</desc>
    <g id="V-Web-Final" stroke="none" stroke-width="1" fill="none" fill-rule="evenodd">
        <g id="documentation" transform="translate(-939.000000, -913.000000)">
            <g id="bsd" transform="translate(939.000000, 913.000000)">
                <g id="Group-13" transform="translate(4.085714, 6.400000)">
                    <circle id="Oval" stroke="#FFFFFF" stroke-width="3" fill="#FFFFFF" cx="22.1580547" cy="22.1580547" r="22.1580547"></circle>
                    <circle id="Oval" fill="#F4D54B" cx="19.6257056" cy="19.6257056" r="17.0933565"></circle>
                    <path d="M1.74807088,18.478964 C-0.0760013556,28.4054652 5.3873345,38.2460449 14.7313189,41.8644407 L14.7313189,41.8644407 C15.1597844,42.0302619 15.640516,41.8143566 15.8050305,41.3822523 L15.8050305,41.3822523 L15.8050305,41.3822523 L20.4696705,29.1191276 C20.6338938,28.6868764 20.420025,28.2021912 19.991705,28.0362232 L19.991705,28.0362232 C17.2444592,26.9722656 15.6473587,24.0948507 16.1835593,21.1767516 L16.1835593,21.1767516 C16.7199056,18.2583588 19.2334827,16.1507123 22.1765444,16.1507123 L22.1765444,16.1507123 C25.1193149,16.1507123 27.6323097,18.2583588 28.1686559,21.1767516 L28.1686559,21.1767516 C28.7051477,24.0951444 27.1079016,26.9727062 24.3606558,28.0362232 L24.3606558,28.0362232 C23.9324814,28.2021912 23.7184671,28.6868764 23.8826903,29.1191276 L23.8826903,29.1191276 L28.5471848,41.3822523 C28.7118448,41.8143566 29.1924308,42.0302619 29.6210419,41.8644407 L29.6210419,41.8644407 L29.6211875,41.8644407 C38.9654631,38.2461918 44.4283622,28.4054652 42.60429,18.478964 L42.60429,18.478964 C40.7803633,8.55231601 32.1851381,1.34416482 22.1763988,1.34416482 L22.1763988,1.34416482 C12.1679507,1.34416482 3.57199754,8.55231601 1.74807088,18.478964 L1.74807088,18.478964 Z M4.10759353,18.9387239 C5.72108436,10.1574416 13.3043095,3.79852366 22.1581639,3.79852366 L22.1581639,3.79852366 L22.1583037,3.79852366 C31.0121581,3.79852366 38.5949638,10.1575827 40.2084546,18.9387239 L40.2084546,18.9387239 C41.7728653,27.4531117 37.2784705,35.8594438 29.4684421,39.2808289 L29.4684421,39.2808289 L25.5470679,28.9732257 C28.4406964,27.4738482 30.0866277,24.2299226 29.4825649,20.9426902 L29.4825649,20.9426902 C28.8291424,17.3865882 25.7433883,14.7991781 22.1583037,14.7991781 L22.1583037,14.7991781 C18.5732191,14.7991781 15.4866261,17.3865882 14.8334832,20.9426902 L14.8334832,20.9426902 C14.2292806,24.2299226 15.8753517,27.473425 18.7689802,28.9732257 L18.7689802,28.9732257 L14.847606,39.2804057 C7.03799715,35.8588796 2.54332263,27.4531117 4.10759353,18.9387239 L4.10759353,18.9387239 Z" id="Fill-1" fill="#4464EB"></path>
                    <path d="M29.8025902,40.8628189 L25.7050155,29.2322208 C28.7178139,27.6710936 30.4315304,24.2935717 29.8025902,20.8709593 C29.1222574,17.1684045 25.9094211,14.4744356 22.17669,14.4744356 C18.4439589,14.4744356 15.230249,17.1684045 14.5502074,20.8709593 C13.9211216,24.2935717 15.6349837,27.670653 18.6477821,29.2322208 L14.5649118,39.963887" id="Path" stroke="#3E6CDE" stroke-width="2"></path>
                </g>
            </g>
        </g>
    </g>
</svg>