<?xml version="1.0" encoding="utf-8"?>
<!-- Generator: Adobe Illustrator 19.1.0, SVG Export Plug-In . SVG Version: 6.00 Build 0)  -->
<svg version="1.1" xmlns="http://www.w3.org/2000/svg" xmlns:xlink="http://www.w3.org/1999/xlink" x="0px" y="0px"
	 width="587.7px" height="108.4px" viewBox="0 0 587.7 108.4" style="enable-background:new 0 0 587.7 108.4;" xml:space="preserve"
	>
<g>
	<g>
		<rect y="3.7" style="fill:#000000;" width="85" height="85"/>
		<path style="fill:#FFFFFF;" d="M8,14.3h8.7c5.1,0,8.1,3,8.1,7.4v0.1c0,4.9-3.8,7.5-8.6,7.5h-3.6v6.4H8V14.3z M16.4,25
			c2.3,0,3.7-1.4,3.7-3.2v-0.1c0-2.1-1.5-3.2-3.8-3.2h-3.6V25H16.4z"/>
		<path style="fill:#FFFFFF;" d="M26.6,25L26.6,25c0-6.1,4.6-11.1,11.1-11.1c4,0,6.4,1.3,8.4,3.3l-3,3.4c-1.6-1.5-3.3-2.4-5.4-2.4
			c-3.6,0-6.2,3-6.2,6.6v0.1c0,3.6,2.5,6.7,6.2,6.7c2.4,0,3.9-1,5.6-2.5l3,3c-2.2,2.3-4.6,3.8-8.7,3.8C31.3,35.9,26.6,31.1,26.6,25"
			/>
		<rect x="8" y="72.8" style="fill:#FFFFFF;" width="31.9" height="5.3"/>
	</g>
	<g>
		<path d="M106.2,3.6h34.7c20.3,0,32.5,12,32.5,29.4v0.2c0,19.7-15.3,29.9-34.4,29.9h-14.2v25.5h-18.7V3.6z
			 M139.7,46.5c9.3,0,14.8-5.6,14.8-12.9v-0.2c0-8.4-5.8-12.9-15.2-12.9h-14.4v26H139.7z"/>
		<path d="M222.8,23.6H242l-25,66.7c-5,13.2-10.3,18.2-21.4,18.2c-6.7,0-11.7-1.7-16.4-4.5l6.2-13.4
			c2.4,1.5,5.5,2.5,7.9,2.5c3.2,0,4.9-1,6.4-4.2l-25.5-65.3h19.5l14.8,44.3L222.8,23.6z"/>
		<path d="M239.3,46.4v-0.2c0-24.2,18.2-44,44.3-44c16,0,25.6,5.3,33.5,13.1L305.2,29
			c-6.6-5.9-13.2-9.6-21.7-9.6c-14.3,0-24.6,11.9-24.6,26.5v0.2c0,14.6,10.1,26.7,24.6,26.7c9.7,0,15.7-3.9,22.3-10l11.9,12
			c-8.7,9.3-18.5,15.2-34.8,15.2C257.9,90.1,239.3,70.8,239.3,46.4z"/>
		<path d="M319.6,0H338v32.8c4.3-5.5,9.7-10.4,19.1-10.4c14,0,22.1,9.2,22.1,24.2v42.1h-18.5V52.3
			c0-8.7-4.1-13.2-11.2-13.2c-7,0-11.5,4.5-11.5,13.2v36.3h-18.5V0z"/>
		<path d="M381.6,69.9v-0.2c0-14.2,10.8-20.8,26.2-20.8c6.6,0,11.3,1.1,15.9,2.7v-1.1c0-7.6-4.7-11.9-14-11.9
			c-7,0-12,1.3-18,3.5L387.2,28c7.2-3.2,14.2-5.2,25.3-5.2c10.1,0,17.4,2.7,22,7.3c4.9,4.9,7,12,7,20.8v37.8h-17.8v-7
			c-4.5,5-10.7,8.3-19.7,8.3C391.7,89.9,381.6,82.8,381.6,69.9z M424,65.7v-3.3c-3.2-1.5-7.3-2.4-11.8-2.4c-7.9,0-12.7,3.2-12.7,9
			v0.2c0,5,4.1,7.9,10.1,7.9C418.1,77.1,424,72.4,424,65.7z"/>
		<path d="M445.5,23.6h18.5v13.1c3.8-9,9.8-14.8,20.8-14.3v19.3h-1c-12.3,0-19.8,7.4-19.8,22.9v24h-18.5V23.6
			z"/>
		<path d="M488.3,23.6h18.5v9.2c4.3-5.5,9.8-10.4,19.2-10.4c8.5,0,14.9,3.8,18.3,10.3
			c5.7-6.7,12.5-10.3,21.4-10.3c13.7,0,22,8.3,22,23.9v42.4h-18.5V52.3c0-8.7-3.9-13.2-10.8-13.2c-6.9,0-11.2,4.5-11.2,13.2v36.3
			h-18.5V52.3c0-8.7-3.9-13.2-10.8-13.2c-6.9,0-11.2,4.5-11.2,13.2v36.3h-18.5V23.6z"/>
	</g>
</g>
</svg>
