<?xml version="1.0" encoding="UTF-8"?>
<svg width="54px" height="54px" viewBox="0 0 54 54" version="1.1" xmlns="http://www.w3.org/2000/svg" xmlns:xlink="http://www.w3.org/1999/xlink">
    <!-- Generator: Sketch 63.1 (92452) - https://sketch.com -->
    <title>download</title>
    <desc>Created with Sketch.</desc>
    <g id="V-Web-Final" stroke="none" stroke-width="1" fill="none" fill-rule="evenodd">
        <g id="documentation" transform="translate(-463.000000, -913.000000)">
            <g id="download" transform="translate(463.000000, 913.000000)">
                <g id="Group-11" transform="translate(2.542857, 13.342857)">
                    <path d="M20.054526,-0.571129657 C16.0657943,-0.571129657 12.4511552,1.07871742 9.82970289,3.72576775 C7.56128812,6.01633321 6.0408285,9.05197079 5.66349612,12.3957131 C4.12297175,13.2519039 2.79923735,14.4499093 1.79868871,15.88505 C0.512445763,17.7299775 -0.241398169,19.9648207 -0.241398169,22.3667826 C-0.241398169,25.5060938 1.04701838,28.3640836 3.13090244,30.4353084 C5.20798625,32.4997742 8.0734665,33.7800967 11.2263941,33.7800967 L32.3558106,33.7800967 C36.5136797,33.7800967 40.2785602,32.1029697 43.0043192,29.3937774 C45.7355333,26.6791631 47.4237447,22.9289439 47.4237447,18.7885483 C47.4237447,14.6453537 45.7358136,10.8941925 43.0054293,8.17907528 C40.2795296,5.46841744 36.5142152,3.79088813 32.3558106,3.79088813 C31.739019,3.79088813 31.1331098,3.82935146 30.5415374,3.90086425 C27.9063522,1.14830172 24.1836447,-0.571129657 20.054526,-0.571129657 Z" id="Fill-1" stroke="#FFFFFF" stroke-width="5" fill="#FFFFFF"></path>
                    <path d="M32.1067943,4.38017329 C31.4094505,4.38017329 30.7264913,4.43218172 30.0527745,4.52639087 C27.4150983,1.64085554 23.7290785,-1.42108547e-14 19.7585618,-1.42108547e-14 C12.4337761,-1.42108547e-14 6.41841243,5.64875071 5.87770168,12.7919322 C2.39091301,14.59793 2.13162821e-14,18.2237393 2.13162821e-14,22.4012663 C2.13162821e-14,28.3751905 4.89099664,33.2317969 10.89684,33.2317969 L32.1067943,33.2317969 C40.1099527,33.2317969 46.6234291,26.7580254 46.6234291,18.8035677 C46.6234291,10.8493863 40.1099527,4.38017329 32.1067943,4.38017329 Z M32.1067943,29.45977 L10.89684,29.45977 C6.97844173,29.45977 3.79512097,26.2912618 3.79512097,22.4012663 C3.79512097,18.5113397 6.98302815,15.3428316 10.89684,15.3428316 C11.9451837,15.3428316 12.7942268,14.4988861 12.7942268,13.4567145 C12.7942268,12.4147502 11.9451837,11.5708047 10.89684,11.5708047 C10.5553604,11.5708047 10.2184673,11.5896603 9.88650798,11.6179783 C10.9109467,7.13399537 14.9433105,3.77202693 19.7585618,3.77202693 C21.9974976,3.77202693 24.1134341,4.48861051 25.8450149,5.79013351 C20.9635386,8.11925464 17.590507,13.074905 17.590507,18.8035677 L17.590507,21.4818291 L17.1825243,21.09035 C16.4273638,20.3678265 15.2264175,20.3888923 14.4973162,21.1375927 C13.7703692,21.8881579 13.791564,23.0817271 14.5448482,23.8063917 L18.164643,27.2765211 C18.5175191,27.6175803 18.9911709,27.8072419 19.4833073,27.8048245 C19.9434083,27.8048245 20.4035093,27.6396822 20.7688938,27.3049082 L24.5640148,23.8347097 C25.3048601,23.1237897 25.3398142,21.9555685 24.6435822,21.2020334 C23.9470028,20.4484983 22.773019,20.3842648 21.9974976,21.0574044 L21.3856279,21.6185843 L21.3856279,18.7989401 C21.3856279,12.9238526 26.1960148,8.14301413 32.1067943,8.14301413 C38.0179212,8.14301413 42.8282386,12.9238526 42.8282386,18.7989401 C42.8282386,24.6738204 38.0179212,29.45977 32.1067943,29.45977 Z" id="Fill-2" fill="#FFFFFF"></path>
                    <path d="M29.2598736,6.70343552 C28.4672501,6.70343552 27.7008972,6.79762433 26.9607385,6.9652758 L26.9762412,6.96013265 C25.1828151,4.60717796 22.357199,3.08749103 19.1768535,3.08749103 C13.7499905,3.08749103 9.35493556,7.66244187 9.35493556,13.1177165 C6.57613305,14.1762083 4.5900304,16.880049 4.5900304,20.029732 C4.5900304,24.0909815 7.89531393,27.4185255 11.9406798,27.4185255 L29.2598736,27.4185255 C34.947457,27.4185255 39.561459,22.7809357 39.561459,17.0635137 C39.561459,11.3410254 34.947457,6.70343552 29.2598736,6.70343552 Z" id="Fill-1" fill="#F4D54B"></path>
                    <path d="" id="Path-11" stroke="#3E6CDE" stroke-width="2"></path>
                    <path d="M11.6571429,13.3241379 C5.22769277,14.28301 2.01296773,17.2919322 2.01296773,22.3509045 C2.01296773,27.4098768 4.41212247,30.627413 9.21043194,32.0035131 L34.2918811,32.0035131 C41.492472,30.2930197 45.0927675,25.8929729 45.0927675,18.8033729 C45.0927675,8.16897291 36.5120913,5.59375501 32.2296903,5.59375501 C23.3760605,5.59375501 19.116923,10.9109475 19.4522778,21.5453324" id="Path-12" stroke="#3E6CDE" stroke-width="3" stroke-linecap="round" stroke-linejoin="round"></path>
                    <polyline id="Path-13" stroke="#3E6CDE" stroke-width="3" stroke-linecap="round" stroke-linejoin="round" points="15.1549241 18.488852 19.260906 22.249278 23.3116798 18.488852"></polyline>
                    <path d="M7.97441628,13.9034483 C7.97441628,8.36365276 10.3679189,4.59152457 15.1549241,2.5870637 C19.9419293,0.582602827 24.3160874,1.58483326 28.2773986,5.59375501" id="Path-14" stroke="#3E6CDE" stroke-width="3"></path>
                    <path d="M32.1067943,10.2634799 C34.0982214,10.2634799 39.10108,12.395864 39.10108,17.4309078" id="Fill-3" stroke="#3E6CDE" stroke-width="3" stroke-linecap="round" stroke-linejoin="round"></path>
                </g>
            </g>
        </g>
    </g>
</svg>