<?xml version="1.0" encoding="UTF-8"?>
<svg width="197px" height="152px" viewBox="0 0 197 152" version="1.1" xmlns="http://www.w3.org/2000/svg" xmlns:xlink="http://www.w3.org/1999/xlink">
    <!-- Generator: Sketch 63.1 (92452) - https://sketch.com -->
    <title>编组 4</title>
    <desc>Created with Sketch.</desc>
    <defs>
        <polygon id="path-1" points="0.881044058 0.844605447 207.881044 0.844605447 207.881044 151.844605 0.881044058 151.844605"></polygon>
    </defs>
    <g id="V3-最新稿件" stroke="none" stroke-width="1" fill="none" fill-rule="evenodd">
        <g id="documentation" transform="translate(-962.000000, -848.000000)">
            <g id="python-copy" transform="translate(962.000000, 848.000000)">
                <g id="编组-4">
                    <g id="Group-50">
                        <g id="Group-3">
                            <mask id="mask-2" fill="white">
                                <use xlink:href="#path-1"></use>
                            </mask>
                            <g id="Clip-2"></g>
                            <path d="M-23.7633784,68.5521587 C7.07070414,61.0064092 5.20993451,16.0229261 44.2845233,16.0229261 C83.3591121,16.0229261 81.7642567,37.4988672 114.193509,52.5900227 C146.622762,67.6815217 168,62.125 177,74.0242847 C185.285855,84.9793677 176.600471,97.1610004 168,116.5 C167.258739,118.166798 153.942238,133 226,168.304137 C298.057762,203.608274 66.8775947,150.603923 28.06892,156.408399 C-10.7397547,162.212531 -66.5595065,121.661701 -66.5595065,121.661701 C-61.5090259,90.318083 -54.5977756,76.0979082 -23.7633784,68.5521587 Z" id="Fill-1" fill="#F2D354" mask="url(#mask-2)"></path>
                        </g>
                        <path d="M107.453007,80.6602842 C106.756116,85.0111768 110.612361,83.0908239 110.212284,83.285127 C109.812206,83.4794301 107.923841,86.8791783 110.066461,87.7851078 C112.209081,88.6910372 112.504436,84.6899823 114.011139,84.3030272 C115.517843,83.9160721 119.691819,85.2536777 124.912505,85.3385427 C128.15788,85.391298 131.847867,90.6175597 138.920634,90.9775063 C143.635812,91.2174706 144.186602,89.8934593 140.573002,87.0054724 C133.371608,83.0398699 128.796754,80.8625583 126.848441,80.4735378 C121.582497,79.4220842 115.559898,80.3032315 114.530495,80.0274037 C113.501092,79.7515759 108.149897,76.3093917 107.453007,80.6602842 Z" id="Fill-32" stroke="#3E6CDE" stroke-width="2" fill="#FFFFFF" transform="translate(125.146644, 84.739979) scale(1, -1) rotate(-15.000000) translate(-125.146644, -84.739979) "></path>
                        <g id="Group-16" transform="translate(143.000000, 62.000000)" fill="#FFFFFF" stroke="#3E6CDE" stroke-width="2">
                            <path d="M1.88749436,5.75272691 C1.88749436,5.75272691 1.39695614,9.70538052 3.02358581,12.25 C4.05971192,13.8708647 5.97333805,13.8839097 5.97333805,15.0183894 C5.97333805,15.7011926 4.68540615,19.8736931 3.02358581,22.6386684 C1.92428611,24.4677087 0.000598361159,25.3504924 1.88749436,25.3504924 C4.79356228,25.3504924 12.6545774,26.050887 12.7228641,25.3504924 C12.7465368,25.1081131 10.4635758,15.4015209 10.4631205,15.0053445 C11.4899704,14.3539944 12.1146234,13.0785716 12.7228641,12.2235797 C14.3669514,9.91251866 14.1539645,5.27416467 13.5728902,4.54036304 C12.9918159,3.8065614 1.88749436,5.75272691 1.88749436,5.75272691 Z" id="Fill-38"></path>
                            <path d="M2.59444024,1.30056588 C1.9609083,1.83072955 0.21902152,3.23872097 0.21902152,6.1996183 C0.21902152,9.16051564 2.66406871,7.80854465 2.8121856,7.80854465 C2.96030249,7.80854465 2.10127187,5.96024618 4.17490834,6.20666956 C6.24862371,6.45309295 6.73354153,3.92417098 9.01766296,6.9129267 C11.3017844,9.90168242 11.3017844,7.91656489 12.10696,7.80854465 C12.9121356,7.70052441 13.1443539,8.42730439 13.1443539,9.26154434 C13.1443539,10.0957843 12.7067411,10.8122666 12.5586242,10.7814124 C12.4105073,10.7506402 12.1142735,12.1214052 12.5586242,12.2446579 C13.0029749,12.3679107 14.3953683,10.3655052 13.8917551,5.4980895 C13.3881419,0.630755811 9.34626848,-1.77635684e-15 7,-1.77635684e-15 C4.65373152,-1.77635684e-15 3.22797218,0.770402215 2.59444024,1.30056588 Z" id="Fill-40"></path>
                        </g>
                        <g id="Group-13" transform="translate(28.000000, 102.000000)">
                            <polygon id="Path-27" stroke="#EDC149" stroke-width="2" fill="#FFFFFF" opacity="0.5" points="18.986075 0 58.8113561 0 65 18.3333333 13.3333333 18.3333333"></polygon>
                            <polygon id="Path-27" fill="#F0CA4E" points="21.0933288 1.66666667 56.9254082 1.66666667 61.7075421 15.8333333 16.7253012 15.8333333"></polygon>
                            <polygon id="Path-27" stroke="#EDC149" stroke-width="2" fill="#FFFFFF" opacity="0.5" transform="translate(39.166667, 29.166667) scale(1, -1) translate(-39.166667, -29.166667) " points="0.833333333 18.3333333 77.5 18.3333333 65.4649894 40 13.3925149 40"></polygon>
                            <polygon id="Path-27" fill="#F0CA4E" transform="translate(39.583333, 35.833333) scale(1, -1) translate(-39.583333, -35.833333) " points="23.3333333 31.6666667 55.8333333 31.6666667 50.7315353 40 28.6573342 40"></polygon>
                            <path d="M7.10542736e-15,40.8333333 C0.0728237569,41.4005641 0.479918202,41.6841795 1.22128334,41.6841795 C1.96264847,41.6841795 27.1604809,41.6841795 76.8147806,41.6841795 C78.641338,41.6841795 79.5546167,41.5423718 79.5546167,41.2587564 C79.5546167,40.975141 53.0364111,40.8333333 7.10542736e-15,40.8333333 Z" id="Path-34" fill="#F0CA4E"></path>
                        </g>
                        <path d="M133.244315,81.0482253 C131.500346,82.2608267 132.837927,89.3627043 133.969762,89.2953088 C135.101597,89.2279132 139.183331,88.0673955 140.004266,88 C140.825201,87.9324247 136.10729,105.598509 137.647365,111.072128 C138.26623,113.271652 138.26623,114.323198 137.647365,114.226766 L142.089624,119 L163.074574,111.072128 L161.774745,98.3203535 L159,99.1165243 C159.582409,97.7677913 160.376087,96.9949103 161.381034,96.7978813 C162.888455,96.5023379 166.749138,97.2294024 167.305133,95.5078109 C167.861128,93.7862194 166.581245,89.9482893 164.659292,85.6304819 C163.433028,82.8757514 161.774745,81.9790049 160.221314,81.6076092 C158.667883,81.2362134 156.028202,81.0482253 156.028202,81.0482253 C156.028202,81.0482253 155.128903,84.2275858 150.252786,83.5757361 C145.376669,82.9238865 146.902523,80.1066207 146.902523,80.1066207 C145.127136,79.768904 143.941928,79.5511509 143.346897,79.4533613 C140.549394,78.9936094 133.939768,80.5646685 133.244315,81.0482253 Z" id="Fill-36" stroke="#3E6CDE" stroke-width="2" fill="#5C76E9"></path>
                        <path d="M159.374398,97.7726626 C159.374398,97.7726626 160.225577,100.842347 155.5,102.838181 C151.929403,104.346213 146.916364,104.833778 144.520933,104.603258 C143.746084,104.528692 142.478491,104.759049 142,104.603258 C140.042263,103.965845 138.10622,103.164725 137.498597,104.603258 C136.891154,106.041618 136.489182,105.814517 136.219088,106.53361 C135.949173,107.252877 136.219088,108.544074 136.489182,108.748359 C136.759277,108.952645 136.219088,109.606429 136.62423,109.671912 C137.029192,109.73722 142.632486,109.06724 143.510024,108.748359 C144.387742,108.429653 150.029858,108.682876 153,108.748359 C155.970502,108.813668 160.792125,107.445494 162.817295,104.603258 C164.842645,101.760849 166.125325,98.3611377 165.990278,96.7265039 C165.85523,95.0918701 159.982021,96.7265039 159.982021,96.7265039 L159.374398,97.7726626 Z" id="Fill-34" stroke="#3E6CDE" stroke-width="2" fill="#FFFFFF"></path>
                        <path d="M142.142889,114.607848 C137.46641,115.770437 140.186865,115.655523 145.265798,112.973937 C150.34473,110.292352 160.786426,108.072128 163.902306,108.072128 C167.018185,108.072128 170,110.636079 170,115.770437 C170,120.904794 165.973677,122.827923 163.579834,123.062943 C161.185799,123.297754 134,118.952697 134,118.952697 L142.142889,114.607848 Z" id="Fill-42" stroke="#3E6CDE" stroke-width="2" fill="#FFFFFF"></path>
                        <path d="M134.128251,120.975243 C134.128251,120.975243 128.275076,121.919741 129.76206,122.667421 C131.139535,123.360126 138.143132,122.467872 138.143134,122.467871 C138.143135,122.467871 140.02079,122.228659 141.992666,121.856924 L137.876615,120.370388 L134.128251,120.975243 Z" id="Fill-48" stroke="#3E6CDE" stroke-width="2" fill="#FFFFFF"></path>
                        <path d="M149,122.176905 C149,122.176905 154.596196,123.887102 155.724572,124.314496 C156.852947,124.742097 161.817512,126.141481 161.998081,123.0319 C162.17841,119.922318 149.586428,120.000177 149.586428,120.000177 L149,122.176905 Z" id="Fill-44" stroke="#3E6CDE" stroke-width="2" fill="#FFFFFF"></path>
                        <path d="M137.180952,108.497239 C142.313053,109.888308 155.805122,117.426652 155.805122,120.543057 C155.805122,121.543057 155.632891,122.775403 154.909772,125 C154.67151,125.732986 150.569333,125.275005 148.920269,125 C143.298092,124.062422 126.98314,126.515821 128.041846,114.409636 C128.041846,108.497239 132.048668,107.10617 137.180952,108.497239 Z" id="Fill-46" stroke="#3E6CDE" stroke-width="2" fill="#FFFFFF"></path>
                    </g>
                    <path d="M17.3936677,76.4328522 C14.1105642,74.5852332 12.4690125,72.8852332 12.4690125,71.3328522 C12.4690125,69.0042808 17.6172709,66.1405445 12.4690125,64.4328522" id="Path-28" stroke="#EDC149" stroke-width="3" transform="translate(14.931340, 70.432852) rotate(-15.000000) translate(-14.931340, -70.432852) "></path>
                    <path d="M114.393668,114.432852 C111.110564,112.585233 109.469012,110.885233 109.469012,109.332852 C109.469012,107.004281 114.617271,104.140545 109.469012,102.432852" id="Path-28-Copy" stroke="#EDC149" stroke-width="3" transform="translate(111.931340, 108.432852) scale(-1, 1) rotate(-30.000000) translate(-111.931340, -108.432852) "></path>
                    <polygon id="Path-29" fill="#EDC149" transform="translate(18.534460, 103.428323) rotate(-15.000000) translate(-18.534460, -103.428323) " points="20.8122574 107.856645 23.06892 104.954285 17.4078769 99 14 101.530403"></polygon>
                    <polygon id="Path-29-Copy" fill="#F9E9B5" style="mix-blend-mode: multiply;" transform="translate(123.534460, 58.428323) scale(-1, 1) translate(-123.534460, -58.428323) " points="125.812257 62.8566454 128.06892 59.9542855 122.407877 54 119 56.5304028"></polygon>
                    <g id="Python" transform="translate(25.000000, 33.000000)" fill-rule="nonzero">
                        <path d="M59.0006886,69.594579 C59.0006886,75.231574 54.1607892,78.0866968 49.2486282,79.5106473 C41.858749,81.6574058 35.9281883,81.3287066 29.7520603,79.5106473 C24.594128,77.9915742 20,74.8882247 20,69.594579 L20,50.9967666 C20,45.6443141 24.4134738,41.0734764 29.7520603,41.0734764 L48.9369232,39.8125343 C55.4310842,39.8125343 59.675335,35.71504 59.675335,28.9900156 L61.4420718,20 L68.7525448,20 C74.4301896,20 77.1032593,24.2644232 78.5046051,29.915862 C80.455058,37.7656442 80.5414046,43.6364222 78.5046051,49.7554268 C76.5325145,55.6990427 74.4220245,59.6712888 68.7525448,59.6712888 L59.0006886,59.6712888 L39.5039165,59.6712888 L39.5039165,59.6300208 C56.3290478,59.6712888 59.0006886,52.7869701 59.0006886,69.5923092 L59.0006886,69.594579 Z" id="路径" fill="#FFFEF9"></path>
                        <path d="M47,71.4966999 C47,69.5663616 48.570172,68 50.5,68 C52.4546521,68 54,69.5663616 54,71.4966999 C54,73.4338325 52.4368647,75 50.5,75 C48.570172,75 47,73.4338325 47,71.4966999 Z" id="路径" fill="#F4C545"></path>
                        <path d="M69.1723169,20 L58.9824396,20 L58.9824396,28.1852062 C58.9983158,33.8984897 53.2769453,39.7701414 47.6549463,39.7701414 L30.488793,39.7398433 C24.1058986,39.7148754 18.9779094,44.66334 19.0000716,51.4917193 L19.0326483,70.1907699 C19.0413327,75.7382658 23.3358784,79.5509702 29.9669362,81.4748711 C36.8413876,83.4686286 43.0181063,83.5471709 50.2532953,81.4765435 L50.8472262,81.3017423 C57.7067126,79.2219313 62.1079437,75.7200795 62.1079437,70.1858989 L62.103888,62.8228494 L69.1723169,62.8228494 C75.0091715,62.8220119 77.6976673,59.4043265 80.4261847,51.3008869 C82.5292853,45.0870756 82.5079285,39.0624628 80.4621352,30.9533811 C78.6966272,23.9415357 75.1931829,20 69.1723169,20 Z M62.2878064,28.1806471 L62.2863933,23.2926668 L69.1723169,23.2926668 C73.3741877,23.2926668 75.8176633,26.0416891 77.2562595,31.7551795 C79.157709,39.2921143 79.1768301,44.6860523 77.293219,50.2513666 L77.0836596,50.8647742 L76.6700524,52.0188151 C74.616268,57.5499318 72.7350512,59.5296713 69.1720788,59.5301825 L52.4392204,59.5301825 L52.4333653,62.822839 L58.7985149,62.8430498 L58.8025706,70.1863802 C58.8025706,73.9308217 55.2698923,76.6182167 49.3414048,78.3116595 C42.7181983,80.2071443 37.1773542,80.1366877 30.8910726,78.3135137 C25.5071098,76.7514386 22.3438996,73.9431355 22.3380169,70.1853515 L22.3054512,51.4835282 C22.2892925,46.5037357 25.9050057,43.0146041 30.4793763,43.0324949 L47.6520183,43.0628056 C55.1263257,43.0628082 62.3086868,35.6917906 62.2878064,28.1806471 Z" id="路径" fill="#F4C545"></path>
                        <path d="M22.919978,12.8566716 C22.919978,7.27094321 24.4180602,4.2320076 32.6914664,2.78481752 C38.3086609,1.80073644 45.5108689,1.6778541 52.2281025,2.78481752 C57.5337761,3.66032867 62,7.61096541 62,12.8566716 L62,31.285752 C62,36.6905306 57.6640707,41.1185888 52.2281025,41.1185888 L34.510274,42.0975583 C27.8801763,42.0975583 21.0328526,47.8881588 21.0328526,54.2774273 L20.4732195,62 L13.755986,62 C8.07395095,62 4.76606116,57.9048078 3.37638745,52.1743195 C1.50153475,44.4760779 1.58130701,39.8885385 3.37638745,32.5158023 C4.93256019,26.0831875 9.90544027,22.6897128 15.0354103,22.6897128 L22.367913,22.6897128 C22.367913,22.6897128 40.6639881,22.6181507 22.367913,22.6242846 L22.367913,12.8568761 L22.367913,12.8568761 L22.919978,12.8566716 Z" id="路径" fill="#FFFEF9"></path>
                        <path d="M28,11.5034942 C28,9.56228508 29.563678,8 31.4999023,8 C33.4296764,8 35,9.5661675 35,11.5034942 C35,13.4338325 33.4296764,15 31.4999023,15 C29.5632871,15 28,13.4338325 28,11.5034942 Z" id="路径" fill="#F4C545"></path>
                        <path d="M31.2703973,1.52714786 L30.6796615,1.70902904 C24.0478112,3.81508867 19.5862814,7.43649831 19.6448676,11.9822351 L19.6117502,20.187347 L12.6439285,20.187347 C6.89024088,20.187347 4.2401763,23.6039593 1.55086339,31.7063898 C-0.521681063,37.9167159 -0.500392255,43.9398492 1.51539345,52.049062 C3.25395163,59.0582827 6.70894054,63 12.6441153,63 L22.6878231,63 L22.6878231,53.6921464 C22.6878231,48.5418051 28.3926782,43.2587547 33.0453343,43.2587547 L50.8317914,43.2587547 C56.5755908,43.2587547 62,37.009857 62,32.4652637 L62,12.8112663 C62.0027791,7.25891116 57.7968753,3.44419572 51.2776744,1.52520261 C44.796791,-0.381905679 38.9440972,-0.536811905 32.206587,1.265645 L31.2703973,1.52714786 Z M31.6300947,4.85817272 L32.1821048,4.68750617 C38.7090312,2.79209465 44.1709579,2.86268311 50.3665871,4.68585057 C55.6542002,6.24231331 58.7439246,9.04466451 58.742038,12.8104327 L58.742038,32.4652637 C58.742038,35.2807607 54.6743154,39.9667632 50.8317914,39.9667632 L33.0453343,39.9667632 L32.6363061,39.9757873 C26.3495904,40.2515895 19.4298641,46.8061956 19.4298641,53.6921464 L19.4298641,59.7074026 L12.6441153,59.7080085 C8.5016516,59.7080085 6.09192595,56.9588079 4.67540521,51.2479233 C2.80175586,43.7105035 2.78269508,38.3177353 4.63887787,32.7557252 L5.05003347,31.5534241 C7.15561776,25.5922213 9.01443674,23.4793386 12.6441153,23.4793386 L30.0793793,23.4773189 L30.0843469,20.1853356 L22.8697091,20.1631115 L22.9026761,11.9672189 C22.8686939,9.31303046 26.2555193,6.57418275 31.6300947,4.85817272 Z" id="路径" fill="#F4C545"></path>
                    </g>
                    <rect id="矩形" fill="#FFFFFF" x="57" y="0" width="1" height="1"></rect>
                </g>
            </g>
        </g>
    </g>
</svg>