<?xml version="1.0" encoding="UTF-8"?>
<svg width="193px" height="151px" viewBox="0 0 193 151" version="1.1" xmlns="http://www.w3.org/2000/svg" xmlns:xlink="http://www.w3.org/1999/xlink">
    <!-- Generator: Sketch 63.1 (92452) - https://sketch.com -->
    <title>编组</title>
    <desc>Created with Sketch.</desc>
    <defs>
        <polygon id="path-1" points="0 0 292 0 292 150 0 150"></polygon>
    </defs>
    <g id="V3-最新稿件" stroke="none" stroke-width="1" fill="none" fill-rule="evenodd">
        <g id="documentation" transform="translate(-963.000000, -502.000000)">
            <g id="Group-Copy-3" transform="translate(963.000000, 502.000000)">
                <g id="编组" transform="translate(0.000000, 0.328709)">
                    <g id="Group-3">
                        <mask id="mask-2" fill="white">
                            <use xlink:href="#path-1"></use>
                        </mask>
                        <g id="Clip-2"></g>
                        <path d="M-9.05619186,-10.3287094 C21,-28.3287094 -10.883943,14.8828374 30,22.7825739 C70.883943,30.6823105 89.2377875,11.1567708 135.888304,11.1567708 C211.353844,13.1567708 203.32803,155.258358 158,159.584855 C112.67197,163.911352 288.598141,169.595912 193,181.671291 C97.4018592,193.74667 -42.0000596,144.634859 -42.0000596,144.634859 C-41.4970181,139.603253 -39.1123837,7.67129061 -9.05619186,-10.3287094 Z" id="Fill-1" fill="#F2D354" mask="url(#mask-2)"></path>
                    </g>
                    <g id="Group-30" transform="translate(8.000000, 10.671291)">
                        <g id="Group-8" transform="translate(22.000000, 13.011020)" fill="#F8E9A1" stroke="#F4C545" stroke-width="2">
                            <polygon id="Fill-4" points="0 106 72.0686643 106 72.0686643 0 0 0"></polygon>
                        </g>
                        <polygon id="Fill-9" fill="#EDC149" points="30 39 87.2472563 39 87.2472563 35 30 35"></polygon>
                        <path d="M56.8088749,98 L63,104.19126 L62.691,104.5 L63,104.808875 L56.808565,111 L55,109.191125 L59.691,104.5 L55,99.808565 L56.8088749,98 Z M50.2934019,99 L52,100.706459 L42.7065981,110 L41,108.293376 L50.2934019,99 Z M37.1912603,97 L39,98.8087397 L34.308,103.5 L39,108.191435 L37.1912603,110 L31,103.80874 L31.308,103.5 L31,103.19126 L37.1912603,97 Z" id="Combined-Shape" fill="#F4C545"></path>
                        <path d="M83.7680124,36.8088755 C86.217045,36.6238186 84.5431331,48.1209574 92.3947523,51.6852786 C96.4570071,53.52938 103.33851,54.1165948 115.942238,50.8049875 C128.545967,47.4933801 137.202512,56.7431543 139.214177,64.984531 C141.225841,73.2259078 142.228746,78.2067117 141.942238,80.3834129 C141.602635,82.9635018 132.263408,82.210039 132.263408,84.3730686 C132.263408,88.3609458 113.609435,98.4152041 104.17305,103.01557 C103.086113,103.545527 93.358283,64.5 80.6008554,77.0952375 C70.1459712,87.4172048 54.7757943,81.6960632 43.9110379,65.0790689 C33.3650938,48.9501381 33.1376101,36.8088755 33.1376101,36.8088755 C65.2049901,36.9362918 82.0817909,36.9362918 83.7680124,36.8088755 Z" id="Fill-6" stroke="#EDC149" stroke-width="3" fill="#FFFEF9"></path>
                        <g id="Group-29" transform="translate(102.942238, 20.065171)">
                            <path d="M0.0190451447,57.5935006 C1.21461731,55.133677 2.89797086,53.9544643 5.06910581,54.0558624 C6.06642978,54.1024403 8.55540999,55.8178846 11.9243462,55.8216708 C13.394411,55.8233229 14.3486133,53.0599227 17.5892042,52.6956559 C18.7159146,52.5690052 21.5722117,54.5813866 24.9555104,54.5813866 C26.7065453,54.5813866 27.7277236,53.5773486 28.0190451,51.5692726" id="Path-15-Copy-3" stroke="#EDC149" stroke-width="3" transform="translate(14.019045, 54.581387) rotate(-25.000000) translate(-14.019045, -54.581387) "></path>
                            <path d="M24.1445967,7.45414747 C25.6146615,7.45579888 26.5688638,4.69239866 29.8094547,4.32813189 C30.9361652,4.20148117 33.7924623,6.21386254 37.175761,6.21386254 C38.9267959,6.21386254 39.9479741,5.20982453 40.2392957,3.20174851" id="Path-15-Copy-4" stroke="#F9E9B5" stroke-width="4" style="mix-blend-mode: multiply;" transform="translate(32.191946, 5.327948) rotate(-25.000000) translate(-32.191946, -5.327948) "></path>
                            <path d="M31.7495746,54.7210643 C29.9890351,53.6034096 28.541753,52.0791479 26.4872945,49.2279836 C24.6469787,46.6740576 21.2875368,42.0859393 21.2875368,42.0859393 C21.2875368,42.0859393 18.6540802,40.2416546 18.5703889,39.3472593 C18.4863997,38.4525662 19.5362617,38.7120472 20.3746642,39.1593938 C21.2133645,39.6064425 21.4198715,38.7133178 21.0845105,37.706937 C20.7488517,36.7008539 17.1436322,36.3758104 17.3116105,35.7887797 C17.4789932,35.2020469 20.0939967,35.1953158 21.6037169,36.0337183 C23.1131393,36.8724187 24.1357227,39.9900819 24.1357227,39.9900819 C24.1357227,39.9900819 28.6139538,45.8413274 30.3440711,47.7042786 C31.4850729,48.9334393 36.9745891,54.0049242 36.9745891,54.0049242 L31.7495746,54.7210643 Z" id="Fill-25" stroke="#3E6CDE" stroke-width="2" fill="#F9F7F1"></path>
                            <path d="M49.9891692,56.6048544 C49.89968,55.8682475 49.89968,52.2279446 45.4934593,52.6559681 C43.9594719,52.8049808 42.227805,51.7548207 40.2984585,49.5054879 C39.4743578,49.0441637 38.9298996,48.8986038 38.665084,49.0688081 C33.8981152,52.1326709 31.9378475,55.1556185 32.0014983,55.6795435 C32.070453,56.2471264 34.8361064,56.8709282 40.2984585,57.5509491 C46.8916143,58.012357 50.1218512,57.6969921 49.9891692,56.6048544 Z" id="Path-19" stroke="#3E6CDE" stroke-width="2" fill="#5C76E9"></path>
                            <path d="M30.3816998,46.9218637 C31.1102223,47.5947141 33.2300864,47.3344409 33.2300864,47.3344409 C33.2300864,47.3344409 32.4460626,48.1328033 32.9925623,48.4018479 C33.5390621,48.6711314 36.1775317,48.9745912 36.9062699,50.1181502 C37.6350081,51.262187 38.8277494,52.3781494 38.0324803,54.7258291 C37.9096437,55.0884496 39.3779704,53.0315633 40.2765162,50.6757807 C41.1796426,48.3079892 41.9424546,45.2719194 41.6833208,42.6161947 C41.3462336,39.1628188 39.0044907,36.2188734 34.0857775,36.8544494 C31.645854,37.1697033 29.1803666,38.2000188 27.98674,40.3494377 C27.7596022,40.7584551 27.6859041,41.5140408 27.7656454,42.6161947 C27.7656454,43.891455 29.6529616,46.2490134 30.3816998,46.9218637 Z" id="Fill-17" stroke="#3E6CDE" stroke-width="2" fill="#FFFFFF"></path>
                            <path d="M39.5,38.8311573 C40.1926031,38.8311573 40.828848,38.1595845 41.6513273,39.17442 C44.1241777,42.2256044 41.1498845,46.8169246 49.2903554,54.4958207 C50.0962879,55.2560559 51.6099668,48.3602554 46.9072344,37.7659859 C46.4245876,36.6786837 45.7467144,34.6612673 43.4902491,34.0569623 C40.9107987,33.3661586 39.8391735,35.8311573 39.5,35.8311573 C38.6715729,35.8311573 38,36.5027302 38,37.3311573 C38,38.1595845 38.6715729,38.8311573 39.5,38.8311573 Z" id="Oval" stroke="#3E6CDE" stroke-width="2" fill="#FFFFFF"></path>
                            <path d="M27.6922713,43.0866335 C26.6932692,41.6001474 25.7954199,45.5593671 28.7214946,49.7408364 C31.6475693,53.9223058 34.0465857,50.7676299 34.7345647,52.1843536 C35.4225437,53.6010773 34.3196553,56.6881758 33.1119822,58.92573 C32.1983238,60.6185391 35.4349842,62.0431298 37.0275043,58.92573 C37.1837771,58.6198219 46.3656306,57.4076878 46.717992,57.0190271 C46.9082007,56.8090995 45.4320641,57.7760123 43.7827331,55.6044909 C42.4998868,53.9154859 39.3345826,49.7408364 39.3345826,49.7408364 L37.0275043,48.3994803 C35.5066521,46.3300526 34.2014781,44.985313 33.1119822,44.3652616 C32.1269819,43.8046804 30.3204116,43.3784711 27.6922713,43.0866335 Z" id="Fill-19" stroke="#3E6CDE" stroke-width="2" fill="#FFFFFF"></path>
                            <path d="M30.555107,83.5231239 C30.7435281,85.7648547 22.2857038,80.6460131 16.9295933,80.6460131 C11.5734827,80.6460131 9.46631927,86.4424076 11.611214,88.2023655 C13.7561087,89.9623234 18.2739243,91.7168684 24.0577617,93.5111305 C29.8415991,95.3053927 30.7622536,96.3254427 30.555107,97 L33,89.2586717 L30.555107,83.5231239 Z" id="Fill-27" stroke="#3E6CDE" stroke-width="2" fill="#FFFFFF"></path>
                            <path d="M31.0577617,96.716574 C32.6231769,97.9466282 30.3211697,92.1632278 30.3211697,86.4608993 C30.3211697,85.5607254 30.3211697,84.7581885 30.3211697,84.0536848 C30.3211697,80.2953711 30.3211697,79.3269832 30.3211697,81.2086784 C30.3211697,83.4431011 33.136672,87.8948373 33.4571954,79 C33.7777187,70.1051627 27.9844662,65.0881223 31.0577617,60.767529 C32.0694263,59.3452801 33.3692631,57.8611499 34.8206007,57.5270785 C36.2719383,57.1930071 36.9244848,56.8846376 40.765618,55.8628019 C43.3263735,55.181578 44.5679172,54.5622855 44.4902491,54.0049242 C44.7576067,53.4309266 46.1281827,53.4309266 48.6019771,54.0049242 C52.3126688,54.8659206 57,77.0948063 57,77.0948063 C57,77.5855611 56.1962142,80.0588072 56.4167356,81.2086784 C56.8886764,83.6695327 56.9532347,87.5861861 56.4167356,88.8230065 C55.9668159,89.8602309 55.5138807,91.0501869 53.6702644,92.4772522 C52.8360758,93.1229622 51.0693135,93.4449331 50.1697453,93.0705388 C49.270177,92.6961446 48.8789686,94.8892717 46.56741,96.716574 C45.1311933,97.8519128 43.2734175,99.00767 39.6293141,99.0646968 C32.473556,99.1763845 29.4861615,95.1565322 29.4861615,95.1565322 L31.0577617,83.6237783 L31.753924,83.6237783" id="Fill-21" stroke="#3E6CDE" stroke-width="2" fill="#FFFFFF"></path>
                            <path d="M31.0577617,96.716574 C32.6231769,97.9466282 30.3211697,92.1632278 30.3211697,86.4608993 C30.3211697,85.5607254 30.3211697,84.7581885 30.3211697,84.0536848 C30.3211697,80.2953711 30.3211697,79.3269832 30.3211697,81.2086784 C30.3211697,83.4431011 33.136672,87.8948373 33.4571954,79 C33.7777187,70.1051627 27.9844662,65.0881223 31.0577617,60.767529 C32.0694263,59.3452801 33.3692631,57.8611499 34.8206007,57.5270785 C36.2719383,57.1930071 36.9244848,56.8846376 40.765618,55.8628019 C43.3263735,55.181578 44.5679172,54.5622855 44.4902491,54.0049242 C44.7576067,53.4309266 46.1281827,53.4309266 48.6019771,54.0049242 C52.3126688,54.8659206 57,77.0948063 57,77.0948063 C57,77.5855611 57.0507275,80.5742162 56.4167356,81.2086784 C48.4657446,89.1655668 40.6601661,91.8488979 33,89.2586717 L31.0577617,83.6237783 L31.753924,83.6237783" id="Fill-21" stroke="#3E6CDE" stroke-width="2" fill="#5C76E9"></path>
                            <path d="M23.2285977,96.6469478 C24.1891584,95.9608263 27.7094376,96.6332074 28.6595278,95.9064926 C29.6099159,95.17948 29.9320848,88.6283303 29.6527166,86.9509296 C29.3730505,85.2738267 29.4799602,74.3409571 29.4799602,74.3409571 L35.3167324,72.3455679 C35.8323272,75.934441 35.1313718,84.2114531 34.6840253,87.3982762 C34.4139337,89.3234656 33.8709925,91.3186646 33.1738734,94.5253518 C32.7171385,96.6262927 32.2923486,98.3193689 32.0614587,98.7097309 C31.4781592,99.6959063 23.8632625,99.1816182 23.2285977,98.7097309 C22.5939328,98.2378436 22.2680369,97.3330693 23.2285977,96.6469478 Z" id="Fill-23" stroke="#3E6CDE" stroke-width="2" fill="#F9F7F1"></path>
                            <path d="M37.2923876,65.8968585 C37.7641292,70.3212909 38,72.9869756 38,73.8939126 C38,75.2543181 30.5725555,75.4788082 28.9814312,73.8939126 C27.3903068,72.309017 27.9016557,66.9257693 29.3191763,64.1178497 C30.26419,62.2459033 31.1529854,60.9397729 31.9855624,60.1994585 L32.1261293,60" id="Path-18" stroke="#3E6CDE" stroke-width="2" fill="#5C76E9" stroke-linecap="round"></path>
                        </g>
                        <circle id="Oval" fill="#EDC149" cx="73" cy="19" r="2"></circle>
                        <circle id="Oval" fill="#EDC149" cx="80" cy="19" r="2"></circle>
                        <circle id="Oval-Copy-3" fill="#EDC149" cx="87" cy="19" r="2"></circle>
                        <line x1="22" y1="24.5" x2="94.0686643" y2="24.5" id="Path-14" stroke="#EDC149" stroke-width="2"></line>
                        <path d="M49,53.024228 C50.3424525,50.5644045 52.2326121,49.3851918 54.6704788,49.4865899 C55.7903277,49.5331677 58.5850881,51.248612 62.3679102,51.2523982 C64.0185778,51.2540504 65.0900073,48.4906502 68.7287164,48.1263834 C69.9938473,47.9997327 73.2010508,50.012114 77,50.012114 C78.9661558,50.012114 80.1127895,49.008076 80.439901,47" id="Path-15" stroke="#EDC149" stroke-width="3"></path>
                        <path d="M60.2439482,64.9902153 C61.5864007,62.5303918 63.4765603,61.351179 65.914427,61.4525772 C67.0342758,61.499155 69.8290362,63.2145993 73.6118584,63.2183855 C75.2625259,63.2200376 76.3339554,60.4566374 79.9726646,60.0923707 C81.2377955,59.9657199 84.444999,61.9781013 88.2439482,61.9781013 C90.210104,61.9781013 91.3567377,60.9740633 91.6838491,58.9659873" id="Path-15-Copy" stroke="#EDC149" stroke-width="3" transform="translate(75.963899, 61.978101) rotate(-15.000000) translate(-75.963899, -61.978101) "></path>
                        <path d="M88.9612834,66.6586721 C90.1568556,64.1988485 91.8402091,63.0196358 94.0113441,63.1210339 C95.008668,63.1676118 97.4976483,64.883056 100.866584,64.8868423 C102.336649,64.8884944 103.290852,62.1250942 106.531442,61.7608274 C107.658153,61.6341767 110.51445,63.6465581 113.897749,63.6465581 C115.648784,63.6465581 116.669962,62.6425201 116.961283,60.634444" id="Path-15-Copy-2" stroke="#EDC149" stroke-width="3" transform="translate(102.961283, 63.646558) rotate(-25.000000) translate(-102.961283, -63.646558) "></path>
                        <path d="M15.4718444,2.45981047 L23.9693444,0 C23.9693444,0 23.7459689,6.59702166 25.7584328,9.39189531 C27.7711945,12.1873646 29.895644,13.3054332 29.895644,13.3054332 L22.6838931,22.0117148 C22.6838931,22.0117148 19.0500213,19.4551083 16.4782252,14.0881408 C13.9064292,8.72117329 15.4718444,2.45981047 15.4718444,2.45981047" id="Fill-15" fill="#F9E9B5" style="mix-blend-mode: multiply;"></path>
                        <path d="M5.47046034,103.232435 L12.3160858,101.2508 C12.3160858,101.2508 12.1361335,106.565391 13.7573838,108.816955 C15.378874,111.068998 17.0903403,111.969719 17.0903403,111.969719 L11.2805203,118.98354 C11.2805203,118.98354 8.35305627,116.923926 6.28120544,112.600272 C4.20935461,108.276618 5.47046034,103.232435 5.47046034,103.232435" id="Fill-15-Copy" fill="#F9E9B5" style="mix-blend-mode: multiply;" transform="translate(11.090340, 110.117170) scale(-1, -1) rotate(45.000000) translate(-11.090340, -110.117170) "></path>
                    </g>
                </g>
            </g>
        </g>
    </g>
</svg>