<?xml version="1.0" encoding="UTF-8"?>
<svg width="54px" height="54px" viewBox="0 0 54 54" version="1.1" xmlns="http://www.w3.org/2000/svg" xmlns:xlink="http://www.w3.org/1999/xlink">
    <!-- Generator: Sketch 63.1 (92452) - https://sketch.com -->
    <title>re-icon</title>
    <desc>Created with Sketch.</desc>
    <g id="V-Web-Final" stroke="none" stroke-width="1" fill="none" fill-rule="evenodd">
        <g id="documentation" transform="translate(-939.000000, -504.000000)">
            <g id="re-icon" transform="translate(939.000000, 504.000000)">
                <g id="Group-8" transform="translate(7.942857, 8.714286)">
                    <path d="M33.7053551,38.8630673 L6.6761513,38.8630673 C5.68134974,38.8630673 4.72737728,38.4665055 4.02400948,37.7612096 C3.32064167,37.0559137 2.92550291,36.0993261 2.92550291,35.1019399 L2.92550291,3.76107983 C2.92550291,2.76374105 3.32064167,1.80715354 4.02400948,1.10185764 C4.72737728,0.396561739 5.68134974,-2.09610107e-13 6.6761513,-2.09610107e-13 L33.7053551,-2.09610107e-13 C34.7088618,-0.0131806894 35.6755608,0.37725351 36.3898574,1.08387774 C37.104154,1.79064429 37.5061055,2.75501202 37.5061055,3.76107983 L37.5061055,35.1019399 C37.5061055,36.1080077 37.104154,37.0723755 36.3898574,37.7791895 C35.6755608,38.485956 34.7088618,38.8762479 33.7053551,38.8630673 Z M6.6761513,2.50765796 C5.98555738,2.50765796 5.42596671,3.06878259 5.42596671,3.76107983 L5.42596671,35.1019399 C5.42596671,35.434402 5.5575377,35.7533436 5.79205672,35.9883157 C6.02657573,36.2234776 6.34445616,36.355599 6.6761513,36.355599 L33.7053551,36.355599 C34.0455661,36.3691195 34.3765516,36.2431179 34.6219994,36.0064854 C34.8673999,35.7699951 35.0056419,35.4432733 35.0056419,35.1019399 L35.0056419,3.76107983 C35.0056419,3.06878259 34.4458618,2.50765796 33.7554098,2.50765796 L6.6761513,2.50765796 Z M6.6761513,2.50765796 C5.98555738,2.50765796 5.42596671,3.06878259 5.42596671,3.76107983 L5.42596671,35.1019399 C5.42596671,35.434402 5.5575377,35.7533436 5.79205672,35.9883157 C6.02657573,36.2234776 6.34445616,36.355599 6.6761513,36.355599 L33.7053551,36.355599 C34.0455661,36.3691195 34.3765516,36.2431179 34.6219994,36.0064854 C34.8673999,35.7699951 35.0056419,35.4432733 35.0056419,35.1019399 L35.0056419,3.76107983 C35.0056419,3.06878259 34.4458618,2.50765796 33.7554098,2.50765796 L6.6761513,2.50765796 Z" id="Fill-1" stroke="#FFFFFF" fill="#FFFFFF"></path>
                    <path d="M7.21208792,24.9340659 L1.27426444,24.9340659 C0.669294745,24.9340659 0.0880932718,25.1772935 -0.340123936,25.6130513 C-0.761600854,26.0420367 -1,26.6236408 -1,27.2307692 C-1,27.8377057 -0.761769519,28.4191801 -0.34047739,28.8483236 C0.088301152,29.2843011 0.669404199,29.5274725 1.27426444,29.5274725 L7.21208792,29.5274725 C7.81694816,29.5274725 8.39805121,29.2843011 8.82619337,28.8489713 C9.24812188,28.4191801 9.48635236,27.8377057 9.48635236,27.2307692 C9.48635236,26.6236408 9.24795321,26.0420367 8.82654703,25.6131232 C8.39825909,25.1772935 7.81705761,24.9340659 7.21208792,24.9340659 Z M7.21222288,17.1538462 L1.27412948,17.1538462 C0.644112067,17.1538462 0.0729723037,17.412357 -0.340132374,17.8328125 C-0.746938383,18.2468572 -1,18.8184567 -1,19.4506476 C-1,20.0827418 -0.746928565,20.6543389 -0.340058107,21.0683866 C0.0730342923,21.4887659 0.644146135,21.7472527 1.27412948,21.7472527 L7.21222288,21.7472527 C7.84220622,21.7472527 8.41331807,21.4887659 8.82641046,21.0683866 C9.23328092,20.6543389 9.48635236,20.0827418 9.48635236,19.4506476 C9.48635236,18.8184567 9.23329074,18.2468572 8.82648473,17.8328125 C8.41338005,17.412357 7.84224029,17.1538462 7.21222288,17.1538462 Z M7.21208792,9.37362637 L1.27426444,9.37362637 C0.644302247,9.37362637 0.0731227946,9.63211176 -0.340022071,10.0525398 C-0.746897238,10.4665875 -1,11.0381857 -1,11.6703542 C-1,12.3024986 -0.746894784,12.8740961 -0.340003504,13.2881446 C0.073138291,13.7085536 0.644310762,13.967033 1.27426444,13.967033 L7.21208792,13.967033 C7.8420416,13.967033 8.41321407,13.7085536 8.82635586,13.2881446 C9.23324714,12.8740961 9.48635236,12.3024986 9.48635236,11.6703542 C9.48635236,11.0381857 9.23324959,10.4665875 8.82637443,10.0525398 C8.41322956,9.63211176 7.84205011,9.37362637 7.21208792,9.37362637 Z" id="Fill-2" stroke="#FFFFFF" stroke-width="2" fill="#3E6CDE"></path>
                    <path d="M7.62209862,2.50765796 C7.07865612,2.50765796 6.63830276,2.95907125 6.63830276,3.51601021 L6.63830276,28.7290909 C6.63830276,28.9965499 6.74183867,29.2531318 6.92638649,29.4421621 C7.1109343,29.631345 7.36108092,29.737634 7.62209862,29.737634 L28.8919326,29.737634 C29.1596517,29.748511 29.4201109,29.6471452 29.6132588,29.4567792 C29.8063695,29.2665277 29.9151549,29.0036867 29.9151549,28.7290909 L29.9151549,3.51601021 C29.9151549,2.95907125 29.4746525,2.50765796 28.9313217,2.50765796 L7.62209862,2.50765796 Z" id="Path" fill="#F9D84B"></path>
                    <path d="M6.92772426,2.43131868 C6.24842113,2.43131868 5.69797944,2.99558529 5.69797944,3.69175899 L5.69797944,35.2081099 C5.69797944,35.5424336 5.82739932,35.863161 6.05808409,36.0994488 C6.28876886,36.3359275 6.60145214,36.4687887 6.92772426,36.4687887 L33.5150168,36.4687887 C33.8496656,36.4823849 34.1752397,36.3556778 34.4166745,36.1177202 C34.6580629,35.8799058 34.7940447,35.5513546 34.7940447,35.2081099 L34.7940447,3.69175899 C34.7940447,2.99558529 34.2434166,2.43131868 33.5642531,2.43131868 L6.92772426,2.43131868 Z" id="Path" stroke="#3E6CDE" stroke-width="3" stroke-linejoin="round"></path>
                    <path d="M28.8796662,20.9866079 C28.5418207,20.9859535 28.2180264,20.8615238 27.9794387,20.6408487 L23.8288731,16.6746742 L19.4031014,20.6638411 C19.042736,20.9897056 18.5051448,21.083595 18.0403174,20.9020987 C17.5755373,20.7206024 17.274878,20.299147 17.27779,19.8337136 L17.27779,3.99283705 C17.27779,3.35594203 17.8375912,2.83989913 18.5280432,2.83989913 C19.2184952,2.83989913 19.7782751,3.35594203 19.7782751,3.99283705 L19.7782751,17.089847 L23.0037277,14.2074586 C23.2319543,13.9896194 23.5505444,13.8720395 23.8787859,13.8846482 C24.2179088,13.8802417 24.5436901,14.0053258 24.7789661,14.2306256 L27.6294343,16.9744485 L27.6294343,3.99283705 C27.6294343,3.58071824 27.8676435,3.20018678 28.2544556,2.99412738 C28.6412677,2.78806797 29.1178754,2.78806797 29.5048768,2.99412738 C29.8916415,3.20018678 30.1298981,3.58071824 30.1298981,3.99283705 L30.1298981,19.8337136 C30.1415365,20.3030299 29.8308473,20.7282374 29.3548073,20.89442 C29.2060152,20.9581619 29.0435977,20.9897056 28.8796662,20.9866079 Z" id="Path" fill="#3E6CDE"></path>
                </g>
            </g>
        </g>
    </g>
</svg>