<?xml version="1.0" encoding="UTF-8"?>
<svg width="60px" height="60px" viewBox="0 0 60 60" version="1.1" xmlns="http://www.w3.org/2000/svg" xmlns:xlink="http://www.w3.org/1999/xlink">
    <!-- Generator: Sketch 63.1 (92452) - https://sketch.com -->
    <title>Group 4</title>
    <desc>Created with Sketch.</desc>
    <g id="V-Web-Final" stroke="none" stroke-width="1" fill="none" fill-rule="evenodd">
        <g id="documentation" transform="translate(-460.000000, -342.000000)">
            <g id="tu-icon" transform="translate(460.000000, 342.000000)">
                <g id="icon" transform="translate(5.250000, 2.250000)">
                    <path d="M19.3342924,32.6586329 C17.0441786,30.9052762 15.6998682,28.172023 15.7010926,25.2722616 C15.7010926,20.1476533 19.8204036,15.9932104 24.9016749,15.9932104 C29.9830227,15.9932104 34.1023329,20.1476533 34.1023329,25.2722616 C34.1023329,28.7678538 32.1840008,31.8151249 29.350343,33.3968761" id="Fill-1" fill="#F4D54B"></path>
                    <g id="Group-5">
                        <path d="M39.9260954,25.3091004 C39.9260954,16.9525636 33.1875433,10.1566171 24.9016749,10.1566171 C16.6158065,10.1566171 9.87733094,16.9525636 9.87733094,25.3091004 C9.87733094,30.0804579 12.0418583,34.4774808 15.8108284,37.3720678 C16.7309784,38.0786467 18.0429733,37.8993954 18.7435003,36.9714748 C19.4441039,36.043477 19.2663685,34.7199835 18.3462951,34.0137908 C15.6226785,31.925873 14.0648713,28.7518672 14.0648713,25.3040032 C14.0648713,19.2724809 18.9265961,14.3692915 24.9071119,14.3692915 C28.8938671,14.3692915 26.626752,22.6045511 18.1057665,39.0750704 C16.9819215,38.8165038 15.8578467,39.5230826 15.601773,40.6619188 C15.3456993,41.7956578 16.0459966,42.9290106 17.175202,43.1872683 L30.3282322,46.2188617 C30.4849088,46.2557005 30.636608,46.2716871 30.7933613,46.2716871 C31.2638508,46.2716871 31.7239258,46.113597 32.0948651,45.8127854 C32.5916971,45.4121925 32.8842981,44.8057812 32.8842981,44.1626082 L32.8842981,43.0291782 C32.8842981,40.1979199 32.9679968,38.7585811 33.0308666,38.0520795 C37.3272229,35.2627572 39.9245639,30.4626701 39.9260954,25.3091004 Z M29.1571391,50.8823066 C29.0003858,50.8823066 28.8382722,50.8663199 28.6760819,50.824075 L16.9451645,48.0510483 C16.4049133,47.9236958 15.9367977,47.5846553 15.6445796,47.1088402 C15.3522849,46.6331023 15.2598564,46.059591 15.3872806,45.5151183 C15.6487147,44.3813793 16.7728661,43.6748776 17.9017652,43.9439475 L29.6327592,46.7169743 C30.756834,46.9806381 31.4571313,48.1194743 31.1905665,49.2529043 C30.9701011,50.2065425 30.1277534,50.8813798 29.1571391,50.8823066 Z M26.8203133,54.9918575 C26.6581996,54.9918575 26.5014464,54.9706956 26.3393327,54.933934 L18.2835019,53.0095125 C17.7441696,52.8810015 17.2772026,52.5415749 16.9861332,52.0661459 C16.6947575,51.590408 16.6029416,51.0175146 16.7309784,50.4735824 C16.9972369,49.3413108 18.1225369,48.6405242 19.245463,48.9075089 L27.3012939,50.8319304 C28.4251389,51.1007687 29.1203055,52.2344304 28.8538173,53.3678605 C28.632433,54.3199541 27.789779,54.9927062 26.8203133,54.9918575 Z" id="Fill-2" stroke="#FFFFFF" stroke-width="3" fill="#FFFFFF"></path>
                        <path d="M33.5973837,24.4296362 C33.5973837,18.634646 28.8638503,13.921875 23.0433961,13.921875 C17.2229418,13.921875 12.4894622,18.634646 12.4894622,24.4296362 C12.4894622,27.7384197 16.6905087,34.2865771 16.5106283,35.0763234 C16.3307479,35.8625351 16.8226756,36.6484789 17.6158923,36.8275724 L26.8553114,38.9298851 C26.9653698,38.9554316 27.0719317,38.9665179 27.1820439,38.9665179 C27.5125418,38.9665179 27.8357241,38.8568874 28.0962925,38.6482842 C28.4452949,38.3704859 28.6508341,37.9499591 28.6508341,37.5039393 L28.6508341,36.7179419 C28.6508341,34.7545551 28.7096287,33.7564198 28.7537919,33.2664836 C31.7717913,31.332178 33.5963079,28.0034715 33.5973837,24.4296362 Z" id="Fill-2" fill="#F4D54B"></path>
                        <path d="M25.2939859,4.59006354 C24.6110632,4.59006354 24.0524571,4.02646392 24.0524571,3.33771675 L24.0524571,1.46577725 C24.0524571,0.776984221 24.6110632,0.213430459 25.2939859,0.213430459 C25.976954,0.213430459 26.535742,0.776984221 26.535742,1.46577725 L26.535742,3.33771675 C26.535742,4.02646392 25.976954,4.59006354 25.2939859,4.59006354 Z M10.0914283,10.8442843 C9.61493024,11.3234514 8.84392254,11.3234514 8.36742452,10.8442843 L7.07913986,9.54501217 C6.60406955,9.06445021 6.60406955,8.28686675 7.07913986,7.80630478 C7.55545941,7.3271827 8.32646711,7.3271827 8.80296513,7.80630478 L10.0914283,9.10575694 C10.5664986,9.58492402 10.5664986,10.368132 10.0914283,10.8442843 Z M4.41265918,26.1766847 C4.41265918,26.8654777 3.85382573,27.4288481 3.17090306,27.4288481 L1.31479391,27.4288481 C0.63182577,27.4288481 0.0730377907,26.8654777 0.0730377907,26.1766847 C0.0730377907,25.4879376 0.63182577,24.9243838 1.31479391,24.9243838 L3.17090306,24.9243838 C3.85382573,24.9243838 4.41265918,25.4879376 4.41265918,26.1766847 Z M39.5271941,10.8442843 C39.0520777,10.3637224 39.0520777,9.58613892 39.5271941,9.10575694 L40.8154826,7.80630478 C41.2919374,7.3271827 42.0629921,7.3271827 42.5394469,7.80630478 C43.0145632,8.28686675 43.0145632,9.06445021 42.5394469,9.54501217 L41.2509799,10.8442843 C40.7759082,11.3234514 39.9993212,11.3234514 39.5271941,10.8442843 Z M44.9053113,26.6377599 C44.9053113,25.9490127 45.5326817,25.385459 46.2994734,25.385459 L48.3835949,25.385459 C49.1503355,25.385459 49.7775527,25.9490127 49.7775527,26.6377599 C49.7775527,27.3265529 49.1503355,27.8899233 48.3835949,27.8899233 L46.2994734,27.8899233 C45.5326817,27.8899233 44.9053113,27.3265529 44.9053113,26.6377599 Z" id="Fill-4" fill="#3E6CDE"></path>
                        <path d="M27.7690919,24.2400439 C26.9847654,24.2400439 26.3494952,23.5993556 26.3494952,22.8081299 C26.3494952,20.1450709 23.9075599,19.9373807 23.1587948,19.9373807 C22.3742602,19.9373807 21.739042,19.2967449 21.739042,18.505729 C21.739042,17.714713 22.3742602,17.073815 23.1587948,17.073815 C26.7114001,17.073815 29.1888967,19.4327057 29.1888967,22.8081299 C29.1888967,23.5993556 28.5534185,24.2400439 27.7690919,24.2400439 Z" id="Path" fill="#3E6CDE"></path>
                        <g id="Group-6" transform="translate(11.868641, 11.886998)" stroke="#3E6CDE" stroke-linecap="round" stroke-width="3">
                            <path d="M5.15505477,24.1350298 C-0.870364814,17.4308008 -1.61373366,10.984937 2.92494824,4.79743844 C9.73297109,-4.48380939 25.0338514,0.883012136 25.9665913,10.8505743 C26.588418,17.4956157 24.1752814,21.9237676 18.7271817,24.1350298 L18.7271817,31.9997624 L5.98146418,29.1274656" id="Path-8" stroke-linejoin="round"></path>
                            <line x1="16.762173" y1="37.0973772" x2="6.51862282" y2="34.5929129" id="Path-9"></line>
                            <line x1="14.406152" y1="41.3000064" x2="7.31495605" y2="39.3858487" id="Path-9-Copy"></line>
                        </g>
                    </g>
                </g>
            </g>
        </g>
    </g>
</svg>