<?xml version="1.0" encoding="UTF-8"?>
<svg width="185px" height="150px" viewBox="0 0 185 150" version="1.1" xmlns="http://www.w3.org/2000/svg" xmlns:xlink="http://www.w3.org/1999/xlink">
    <!-- Generator: Sketch 63.1 (92452) - https://sketch.com -->
    <title>tutorial</title>
    <desc>Created with Sketch.</desc>
    <defs>
        <rect id="path-1" x="0" y="0" width="548.076923" height="150"></rect>
        <path d="M139.64916,2.30769231 C159.78757,1.59013455 189.614994,-11.2243136 212.642936,34.0185809 C235.670877,79.2614755 237.441577,85.5167139 225.871571,120.359918 C213.379949,157.979584 240.232798,161.815373 219.630218,183.605037 C199.027638,205.394702 161.402033,176.149749 132.784357,184.949993 C108.928429,192.286548 116.49576,213.62373 91.2850368,210.224687 C66.0743138,206.825242 -6.59729554,229.512114 0.897838791,195.518469 C8.39297312,161.524825 31.8189627,82.3722155 30.8933138,69.2666247 C29.7724518,53.3954384 68.3140211,34.3192067 87.2456583,31.1479475 C107.989873,27.672843 129.036185,42.6288716 155.685999,34.0185809 C187.483551,23.744989 120.987353,2.97293234 139.64916,2.30769231 Z" id="path-3"></path>
        <path d="M182.514926,0.523098051 C202.653335,-0.194459704 238.993625,23.2233576 232.255546,55.4039918 C225.462211,87.847422 210.669181,81.9735325 199.099175,116.816737 C186.607553,154.436402 213.460402,158.272191 192.857822,180.061856 C172.255242,201.85152 134.629637,172.606567 106.011961,181.406812 C82.1560331,188.743367 89.723364,210.080548 64.512641,206.681506 C39.3019179,203.282061 -6.67964015,152.852198 0.815494173,118.858554 C8.3106285,84.8649091 41.9421348,96.3844678 41.0164859,83.278877 C39.8956239,67.4076907 41.5416252,30.7760252 60.4732625,27.604766 C81.2174776,24.1296616 102.263789,39.0856901 128.913604,30.4753995 C160.711155,20.2018076 163.853118,1.18833808 182.514926,0.523098051 Z" id="path-5"></path>
    </defs>
    <g id="V3-最新稿件" stroke="none" stroke-width="1" fill="none" fill-rule="evenodd">
        <g id="documentation" transform="translate(-390.000000, -328.000000)">
            <g id="Group-Copy" transform="translate(390.000000, 328.000000)">
                <g id="tutorial">
                    <g>
                        <mask id="mask-2" fill="white">
                            <use xlink:href="#path-1"></use>
                        </mask>
                        <g id="Mask"></g>
                        <g mask="url(#mask-2)">
                            <g transform="translate(-53.692308, -60.000000)">
                                <mask id="mask-4" fill="white">
                                    <use xlink:href="#path-3"></use>
                                </mask>
                                <use id="Fill-7" stroke="none" fill="#F2D454" fill-rule="evenodd" xlink:href="#path-3"></use>
                                <polygon id="Fill-3" stroke="none" fill="#F9E9B5" fill-rule="evenodd" style="mix-blend-mode: multiply;" transform="translate(82.838998, 176.377499) rotate(40.000000) translate(-82.838998, -176.377499) " points="83.9109918 168.049453 73.0267669 184.705545 92.65123 184.705545"></polygon>
                                <path d="M96.1211814,94.1075633 L104.240805,182.492209 L208.463577,170.04291 L197.350839,103.196147 L96.1211814,94.1075633 Z" id="Fill-5" stroke="#F4C545" stroke-width="2" fill="#FFFEF8" fill-rule="evenodd"></path>
                                <g id="Path-2-Copy-+-Path-2-Mask" stroke="none" stroke-width="1" fill="none" fill-rule="evenodd" transform="translate(26.772396, 3.543181)">
                                    <mask id="mask-6" fill="white">
                                        <use xlink:href="#path-5"></use>
                                    </mask>
                                    <g id="Mask"></g>
                                    <path d="M170.913118,151.68626 C167.613606,157.938595 165.713391,164.378605 165.212473,171.00629 C164.711556,177.633975 167.014943,187.423456 172.122635,200.374734 L183.74869,200.374734 L182.474771,178.770612 L185.87054,149.991512 L170.913118,151.68626 Z" id="Path-2-Copy" stroke="#3E6CDE" stroke-width="2" fill="#FFFFFF" mask="url(#mask-6)"></path>
                                    <path d="M173.104903,149.24457 C175.352458,158.610779 178.146773,168.883208 181.487847,180.061856 C184.828922,191.240503 188.690892,200.038824 193.073758,206.456819 L203.830403,200.374734 L194.935433,147.985108 L173.104903,149.24457 Z" id="Path-2" stroke="#3E6CDE" stroke-width="2" fill="#FFFFFF" mask="url(#mask-6)"></path>
                                </g>
                                <g id="Path-2-Copy-+-Path-2-Mask" stroke="none" stroke-width="1" fill="none" fill-rule="evenodd" transform="translate(191.000033, 151.446647)"></g>
                                <line x1="97.2267474" y1="104.024428" x2="199.224873" y2="110.13526" id="Stroke-1" stroke="#F4C545" stroke-width="2" fill="none"></line>
                                <path d="M168.666927,82.256638 C166.344299,82.256638 164.461538,80.3738774 164.461538,78.0515424 C164.461538,75.7289145 166.344299,73.8461538 168.666927,73.8461538 C170.989262,73.8461538 172.872023,75.7289145 172.872023,78.0515424 C172.872023,80.3738774 170.989262,82.256638 168.666927,82.256638 Z" id="Fill-10" stroke="none" fill="#FAE9B5" fill-rule="evenodd" style="mix-blend-mode: multiply;"></path>
                                <path d="M213.612992,114.956257 C216.493287,114.956257 219.630218,113.262867 219.630218,108.247359 C219.630218,103.231851 215.846256,101.471182 212.525973,102.256482 C209.205691,103.041781 209.245602,104.121434 209.245602,107.307692 C209.245602,110.49395 210.732697,114.956257 213.612992,114.956257 Z" id="Oval" stroke="#3E6CDE" stroke-width="2" fill="#F9F7F1" fill-rule="evenodd"></path>
                                <path d="M228.962124,92.0775088 C223.927665,92.0775088 219.846154,87.9962905 219.846154,82.9618313 C219.846154,77.9273721 223.927665,73.8461538 228.962124,73.8461538 C233.996583,73.8461538 238.077802,77.9273721 238.077802,82.9618313 C238.077802,87.9962905 233.996583,92.0775088 228.962124,92.0775088 Z" id="Fill-12" stroke="none" fill="#FAE9B5" fill-rule="evenodd" style="mix-blend-mode: multiply;"></path>
                                <polygon id="Fill-25" stroke="none" fill="#F4C545" fill-rule="evenodd" points="114.295236 162.742357 114.295236 159.196769 163.933756 153.672071 163.933756 157.135367"></polygon>
                                <polygon id="Fill-27" stroke="none" fill="#F4C545" fill-rule="evenodd" points="114.295236 148.065053 113.470558 144.272296 183.393342 138.29426 183.393342 142.293186"></polygon>
                                <path d="M106.544319,99.7190453 C106.544319,100.99384 105.510836,102.027323 104.236041,102.027323 C102.961538,102.027323 101.928055,100.99384 101.928055,99.7190453 C101.928055,98.4442503 102.961538,97.4110601 104.236041,97.4110601 C105.510836,97.4110601 106.544319,98.4442503 106.544319,99.7190453" id="Fill-29" stroke="none" fill="#F4C545" fill-rule="evenodd"></path>
                                <path d="M113.271388,100.281736 C113.271388,101.408932 112.35739,102.322638 111.230193,102.322638 C110.102997,102.322638 109.189291,101.408932 109.189291,100.281736 C109.189291,99.1545392 110.102997,98.2405408 111.230193,98.2405408 C112.35739,98.2405408 113.271388,99.1545392 113.271388,100.281736" id="Fill-31" stroke="none" fill="#F4C545" fill-rule="evenodd"></path>
                                <path d="M119.043255,100.645226 C119.043255,101.628631 118.246105,102.425781 117.2627,102.425781 C116.279295,102.425781 115.482146,101.628631 115.482146,100.645226 C115.482146,99.6618216 116.279295,98.8643791 117.2627,98.8643791 C118.246105,98.8643791 119.043255,99.6618216 119.043255,100.645226" id="Fill-33" stroke="none" fill="#F4C545" fill-rule="evenodd"></path>
                                <path d="M113.110699,124.217145 C113.110699,124.217145 118.276301,128.278114 125.456106,127.515186 C131.512832,126.871699 137.926431,116.072179 148.436188,116.072179 C158.945476,116.072179 157.665014,123.700775 160.499767,124.236111 C162.481977,124.610237 162.334711,121.804182 163.747853,120.193883 C165.160759,118.583359 166.187622,118.784534 166.187622,118.784534" id="Stroke-35" stroke="#F4C545" stroke-width="3" fill="none"></path>
                                <path d="M207.305428,111.372159 C206.313306,108.544592 208.04934,103.611962 211.016039,103.611962 C213.982737,103.611962 213.982737,104.813899 214.43791,105.751007 C214.893083,106.688115 214.228354,109.182256 214.78156,109.527908 C215.334766,109.87356 216.460494,109.455047 216.543079,110.609479 C216.625371,111.763911 215.509889,114.314459 215.509889,114.314459 C215.509889,114.314459 215.509889,116.49903 215.509889,117.574465 C215.509889,118.649899 215.757351,120.648526 215.757351,120.648526 L211.016039,130.17215 L201.945754,127.121486 L205.161587,120.318772 C205.161587,120.318772 208.042397,119.940506 209.246586,117.574465 C209.999402,116.0953 210.253719,116.213528 210.253719,114.775793 C209.675187,114.462035 208.297549,114.199727 207.305428,111.372159 Z" id="Fill-37" stroke="#3E6CDE" stroke-width="2" fill="#F9F7F1" fill-rule="evenodd"></path>
                                <polygon id="Fill-41" stroke="#F9D84B" stroke-width="1" fill="#FDF3E4" fill-rule="evenodd" points="166.022628 120.167513 167.809039 120.359918 174.488169 118.463393 173.608434 116.676982 167.039418 118.710855"></polygon>
                                <path d="M170.502772,118.793294 C171.391167,121.171514 170.077548,119.954692 169.485689,120.129002 C168.893831,120.303312 171.05246,120.195187 172.729051,121.267034 C174.405642,122.338881 179.499487,129.144946 181.229653,131.038139 C182.959819,132.931332 185.207282,136.576289 186.911402,136.466468 C188.615521,136.356355 197.685513,132.612505 197.685513,132.612505 L194.387388,126.296808 C194.387388,126.296808 189.137681,129.217152 186.608883,127.677909 C184.448497,126.362993 169.469762,114.542415 168.347147,117.163549 C167.59692,118.915215 169.614378,116.415074 170.502772,118.793294 Z" id="Fill-45" stroke="#3E6CDE" stroke-width="2" fill="#F9F7F1" fill-rule="evenodd"></path>
                                <path d="M205.477075,119.617492 C205.779301,120.112123 205.314255,121.512044 207.700925,122.667016 C210.087594,123.821987 212.866091,122.653619 213.91041,121.581772 C214.955021,120.509925 215.853378,120.175888 215.853378,120.175888 C215.853378,120.175888 220.245506,121.497964 221.290118,122.267586 C222.334436,123.036914 225.376613,129.30616 225.376613,130.17215 C225.376613,131.038139 223.450906,131.700528 222.602338,132.41357 C221.753771,133.126611 220.531466,133.487466 218.540023,134.562944 C216.548581,135.638422 219.885782,136.274151 220.411163,138.29426 C220.93625,140.314369 223.302128,147.240668 223.631882,148.065053 C223.961929,148.889731 223.961929,151.52829 223.631882,154.661831 C223.301835,157.795373 220.454578,155.718298 211.329529,156.212929 C202.20448,156.707852 194.273341,160.240395 194.985173,156.212929 C197.81164,141.384016 199.224873,133.775711 199.224873,133.388012 C199.224873,132.806465 198.524014,133.181843 197.410875,133.388012 C195.78729,133.688774 190.884922,126.945666 191.984869,125.967402 C194.697165,123.555159 197.685513,121.581772 201.221907,119.617492 C202.617776,119.617492 205.17485,119.122568 205.477075,119.617492 Z" id="Fill-43" stroke="#3E6CDE" stroke-width="2" fill="#5C76E9" fill-rule="evenodd"></path>
                                <path d="M194.772257,148.065053 L204.888911,162.393831 L191.984869,160.948887 L194.772257,148.065053 Z M193.122901,141.523565 L189.165267,163.154373 L210.521086,165.545822 L193.122901,141.523565 Z" id="Fill-47" stroke="none" fill="#F4C545" fill-rule="evenodd"></path>
                                <path d="M219.373168,141.523565 C219.634872,143.19923 204.446876,150.154159 204.007302,151.143421 C203.567727,152.132975 199.692093,153.672218 199.884205,154.771593 C200.076904,155.871261 200.818996,155.046291 200.818996,155.046291 C200.818996,155.046291 204.612046,153.562398 205.326318,153.562398 C206.041175,153.562398 222.947887,148.575253 224.541893,145.056901 C226.135899,141.538841 226.135899,138.88014 225.383665,136.468895 C224.631431,134.05765 224.085221,131.482107 223.631882,131.811861 C223.178251,132.141615 217.494709,134.236528 218.079539,135.440745 C218.51213,136.743821 218.94334,138.771428 219.373168,141.523565 Z" id="Fill-39" stroke="#3E6CDE" stroke-width="2" fill="#F9F7F1" fill-rule="evenodd"></path>
                            </g>
                        </g>
                    </g>
                </g>
            </g>
        </g>
    </g>
</svg>